<svg width="291" height="62" viewBox="0 0 291 62" fill="none" xmlns="http://www.w3.org/2000/svg">
<g clip-path="url(#clip0_87_95)">
<path d="M54.4526 6.86242L71.6361 -0.00299259L35.8195 62L0 -0.00299259L17.2204 6.87342C17.7271 7.08578 18.2775 7.20319 18.8608 7.20319C19.6283 7.20319 20.347 6.99848 20.9658 6.6365C25.4484 4.04261 30.6415 2.64748 35.8195 2.64748C41.0336 2.64748 46.2799 4.05916 50.7929 6.70187C51.386 7.01509 52.0626 7.20319 52.7823 7.20319C53.3679 7.20319 53.9242 7.08578 54.4351 6.87342L54.4526 6.86242ZM33.3228 35.7001V21.372L22.5646 17.0735L33.3228 35.7001ZM38.3128 35.7001L49.0731 17.0735L38.3128 21.372V35.7001Z" fill="#ED1C24"/>
<path d="M285.077 44.8892C284.971 44.9304 284.683 44.9456 284.243 44.9456H283.933V43.8918H284.243C284.683 43.8918 284.958 43.9128 285.077 43.9489C285.197 43.984 285.277 44.0411 285.325 44.1322C285.41 44.2244 285.438 44.3095 285.438 44.4083C285.438 44.55 285.41 44.613 285.325 44.7052C285.269 44.8044 285.197 44.8611 285.077 44.8892ZM285.735 45.8928C285.637 45.7369 285.552 45.6447 285.502 45.5957C285.41 45.5315 285.325 45.4824 285.226 45.433C285.552 45.3763 285.813 45.2701 285.99 45.0724C286.145 44.8814 286.251 44.662 286.251 44.3511C286.251 44.1614 286.195 43.984 286.103 43.8224C286.018 43.6591 285.891 43.5323 285.735 43.4677C285.609 43.3689 285.41 43.3276 285.156 43.3059C285.071 43.3059 284.661 43.2919 283.933 43.2919H283.169V47.1082H283.933V45.5315H284.123C284.358 45.5315 284.52 45.5957 284.675 45.7019C284.823 45.8081 285.001 46.0835 285.205 46.4861L285.53 47.1082H286.485L286.026 46.3444C285.856 46.0621 285.792 45.9208 285.735 45.8928Z" fill="white"/>
<path d="M287.122 46.6063C286.846 47.0796 286.485 47.4122 286.046 47.687C285.609 47.9414 285.113 48.0767 284.618 48.0767C284.116 48.0767 283.643 47.9414 283.176 47.687C282.723 47.4122 282.377 47.0796 282.101 46.6063C281.869 46.1546 281.741 45.6955 281.741 45.1785C281.741 44.6841 281.869 44.1893 282.136 43.7155C282.392 43.2568 282.738 42.9242 283.198 42.6845C283.643 42.4223 284.116 42.3022 284.618 42.3022C285.098 42.3022 285.572 42.4223 286.039 42.6845C286.485 42.9242 286.846 43.2568 287.115 43.7155C287.369 44.1893 287.497 44.6841 287.497 45.1785C287.497 45.6955 287.369 46.1546 287.122 46.6063ZM287.715 43.3688C287.391 42.7888 286.952 42.3944 286.386 42.0694C285.828 41.7501 285.226 41.5809 284.618 41.5809C283.989 41.5809 283.402 41.7501 282.829 42.0694C282.277 42.3944 281.826 42.7888 281.515 43.3688C281.19 43.9489 281.041 44.5639 281.041 45.1785C281.041 45.808 281.19 46.4155 281.507 46.9739C281.826 47.5255 282.271 47.9771 282.822 48.302C283.382 48.5996 283.983 48.7688 284.618 48.7688C285.226 48.7688 285.834 48.5996 286.401 48.302C286.959 47.9771 287.41 47.5255 287.723 46.9739C288.049 46.4155 288.203 45.808 288.203 45.1785C288.203 44.5639 288.034 43.9489 287.715 43.3688Z" fill="white"/>
<path d="M228.862 25.8066C228.862 21.1554 232.615 17.3816 237.275 17.3816H237.438H259.865L256.337 23.3327H240.386L246.331 35.7931C246.997 36.9804 247.357 38.3583 247.357 39.814C247.357 44.4787 243.604 48.239 238.944 48.239H238.802H215.293L222.682 35.9833L235.457 41.6872L229.596 29.3537C229.13 28.238 228.862 27.0509 228.862 25.8066Z" fill="white"/>
<path d="M131.262 22.3999L130.986 22.8948L130.937 23.0075L124.474 34.4351H113.819L120.366 23.0075C120.804 22.2653 121.738 21.6503 122.473 21.6503H130.893C131.155 21.6503 131.347 21.9046 131.347 22.131C131.347 22.2375 131.318 22.287 131.262 22.3999ZM142.843 17.573H120.678C119.242 17.573 117.396 18.7242 116.59 20.1735L112.581 27.1492C100.42 48.3021 100.42 48.274 100.42 48.274H105.879L111.43 38.57H122.141L116.633 48.274H129.862L144.823 22.2375C146.306 19.6434 145.431 17.573 142.843 17.573Z" fill="white"/>
<path d="M174.773 48.274L189.076 23.001L189.394 22.3782C189.458 22.2653 189.494 22.2088 189.494 22.1238C189.494 21.8626 189.274 21.6367 189.019 21.6367H188.355H181.927C181.193 21.6367 180.274 22.2653 179.842 23.001L165.553 48.274H151.844C151.844 48.274 151.829 48.3021 163.976 27.1492L167.999 20.1735C168.826 18.7242 170.658 17.573 172.094 17.573H174.087H193.454C196.027 17.573 196.917 19.6434 195.447 22.2375L180.437 48.274H174.773Z" fill="white"/>
<path d="M106.239 22.3999L105.943 22.9082L105.879 23.0074L101.892 30.1108L94.6012 42.7755C94.1918 43.5182 93.2443 44.1041 92.5085 44.1041L90.5083 44.1321H84.2437L96.214 22.9512L96.9565 21.6502H105.851C106.098 21.6502 106.31 21.9046 106.31 22.131C106.31 22.2374 106.282 22.2869 106.239 22.3999ZM109.853 17.5729H87.7072C87.6588 17.5729 87.6229 17.5729 87.5733 17.5729H85.1063L81.6135 23.6222L79.5841 27.1491C67.4512 48.302 67.4512 48.274 67.4512 48.274H81.9028L88.6558 48.302H94.2545C95.7047 48.302 97.5363 47.1151 98.3564 45.6955L102.379 38.7041L111.853 22.2374C113.325 19.6433 112.44 17.5729 109.853 17.5729Z" fill="white"/>
<path d="M211.044 48.2529H190.023C187.896 48.2529 186.113 45.7368 187.457 43.3688C188.766 41.0009 199.993 21.743 200.92 20.0814C201.852 18.4135 203.641 17.3895 205.373 17.3895H228.939L225.488 23.3109H214.615C212.876 23.3109 211.737 23.9119 210.853 25.4818L208.208 29.9059L220.193 29.8916L217.761 34.0406L205.939 34.0043C205.939 34.0043 203.655 37.8778 202.821 39.2631C201.979 40.6414 202.898 41.8213 204.355 41.8213H214.777L211.044 48.2529Z" fill="white"/>
<path d="M159.486 27.22L147.283 48.1818H133.842L141.577 35.1143L146.216 27.22H159.486Z" fill="white"/>
<path d="M151.751 17.7989H164.966L160.78 24.9794H147.516L151.751 17.7989Z" fill="white"/>
<path d="M273.073 48.2529H252.101C249.945 48.2529 248.184 45.7368 249.486 43.3688C250.842 41.0009 262.05 21.743 262.983 20.0814C263.894 18.4135 265.69 17.3895 267.423 17.3895H291.003L287.566 23.3109H276.665C274.918 23.3109 273.787 23.9119 272.889 25.4818L270.272 29.9059L282.271 29.8916L279.817 34.0406L267.982 34.0043C267.982 34.0043 265.713 37.8778 264.885 39.2631C264.05 40.6414 264.956 41.8213 266.426 41.8213H276.814L273.073 48.2529Z" fill="white"/>
</g>
<defs>
<clipPath id="clip0_87_95">
<rect width="291" height="62" fill="white"/>
</clipPath>
</defs>
</svg>
