<svg width="45" height="45" viewBox="0 0 45 45" fill="none" xmlns="http://www.w3.org/2000/svg">
<path id="Subtract" fill-rule="evenodd" clip-rule="evenodd" d="M22.5 0C10.0736 0 0 10.0736 0 22.5C0 34.9264 10.0736 45 22.5 45C34.9264 45 45 34.9264 45 22.5C45 10.0736 34.9264 0 22.5 0ZM24.2129 35.1234H19.4859V23.3462H15.5171V18.7643H19.4859V15.3764C19.4859 11.456 21.8736 9.31027 25.3906 9.31027C27.0685 9.31027 28.5043 9.43933 28.9238 9.48773V13.6017H26.4877C24.584 13.6017 24.2129 14.5052 24.2129 15.8281V18.7643H28.7625L28.1655 23.3462H24.2129V35.1234Z" fill="#DF1B01"/>
</svg>
