<svg width="28" height="29" viewBox="0 0 28 29" fill="none" xmlns="http://www.w3.org/2000/svg">
<g id="socials-icon/dark/default/facebook" clip-path="url(#clip0_104_231)">
<path id="path14" d="M27.2533 14.5204C27.2533 7.2376 21.3495 1.33374 14.0667 1.33374C6.78387 1.33374 0.880005 7.2376 0.880005 14.5204C0.880005 21.1023 5.70218 26.5576 12.0063 27.5469V18.3322H8.65808V14.5204H12.0063V11.6152C12.0063 8.31031 13.9749 6.48478 16.9871 6.48478C18.4298 6.48478 19.9389 6.74233 19.9389 6.74233V9.98749H18.2761C16.6379 9.98749 16.1271 11.004 16.1271 12.0468V14.5204H19.7843L19.1997 18.3322H16.1271V27.5469C22.4312 26.5576 27.2533 21.1023 27.2533 14.5204Z" fill="white"/>
</g>
<defs>
<clipPath id="clip0_104_231">
<rect width="27.52" height="27.52" fill="white" transform="translate(0.306641 0.680176)"/>
</clipPath>
</defs>
</svg>
