<svg width="45" height="45" viewBox="0 0 45 45" fill="none" xmlns="http://www.w3.org/2000/svg">
<g id="Group 400">
<path id="Vector" d="M44.5488 13.2133C44.5238 11.3336 44.1719 9.47258 43.5089 7.71352C42.934 6.22977 42.0559 4.88225 40.9307 3.75707C39.8055 2.63189 38.458 1.75379 36.9743 1.17887C35.2378 0.527034 33.4034 0.174575 31.549 0.136501C29.1615 0.0297821 28.4045 0 22.3439 0C16.2833 0 15.5065 1.6642e-07 13.1363 0.136501C11.2828 0.174855 9.44918 0.527309 7.71352 1.17887C6.22953 1.75339 4.88181 2.63134 3.75658 3.75658C2.63135 4.88181 1.75338 6.22953 1.17887 7.71352C0.525728 9.44865 0.174034 11.2827 0.138982 13.1363C0.0322637 15.5263 0 16.2833 0 22.3439C0 28.4045 -1.84911e-08 29.1789 0.138982 31.5515C0.17621 33.4079 0.526147 35.2395 1.17887 36.9792C1.75435 38.4628 2.63296 39.81 3.75857 40.9347C4.88418 42.0595 6.23203 42.9371 7.716 43.5114C9.44691 44.1894 11.2808 44.5671 13.1388 44.6282C15.5288 44.7349 16.2858 44.7672 22.3464 44.7672C28.407 44.7672 29.1838 44.7672 31.554 44.6282C33.4083 44.5917 35.2429 44.2401 36.9792 43.5883C38.4626 43.0128 39.8098 42.1344 40.9349 41.0093C42.06 39.8842 42.9383 38.5371 43.5139 37.0537C44.1666 35.3164 44.5165 33.4848 44.5538 31.6259C44.6605 29.2384 44.6928 28.4815 44.6928 22.4184C44.6878 16.3577 44.6878 15.5884 44.5488 13.2133ZM22.329 33.805C15.9904 33.805 10.8555 28.6701 10.8555 22.3315C10.8555 15.9929 15.9904 10.858 22.329 10.858C25.372 10.858 28.2903 12.0668 30.442 14.2185C32.5937 16.3702 33.8025 19.2885 33.8025 22.3315C33.8025 25.3744 32.5937 28.2928 30.442 30.4445C28.2903 32.5962 25.372 33.805 22.329 33.805ZM34.2592 13.109C33.9077 13.1093 33.5597 13.0404 33.2349 12.906C32.9102 12.7717 32.6151 12.5746 32.3666 12.3261C32.1181 12.0776 31.9211 11.7826 31.7867 11.4578C31.6524 11.1331 31.5834 10.785 31.5837 10.4336C31.5837 10.0824 31.6529 9.73469 31.7873 9.41024C31.9217 9.0858 32.1187 8.791 32.367 8.54268C32.6153 8.29436 32.9101 8.09738 33.2346 7.96299C33.559 7.8286 33.9067 7.75944 34.2579 7.75944C34.6091 7.75944 34.9568 7.8286 35.2813 7.96299C35.6057 8.09738 35.9005 8.29436 36.1488 8.54268C36.3972 8.791 36.5941 9.0858 36.7285 9.41024C36.8629 9.73469 36.9321 10.0824 36.9321 10.4336C36.9321 11.9128 35.7358 13.109 34.2592 13.109Z" fill="white"/>
<path id="Vector_2" d="M22.3342 29.7848C26.4503 29.7848 29.7871 26.448 29.7871 22.3318C29.7871 18.2157 26.4503 14.8789 22.3342 14.8789C18.218 14.8789 14.8813 18.2157 14.8813 22.3318C14.8813 26.448 18.218 29.7848 22.3342 29.7848Z" fill="white"/>
</g>
</svg>
