<svg width="28" height="29" viewBox="0 0 28 29" fill="none" xmlns="http://www.w3.org/2000/svg">
<g id="socials-icon/dark/default/instagram">
<path id="Subtract" d="M9.9209 14.1474C9.9209 12.0904 11.5889 10.4225 13.6471 10.4225C15.7053 10.4225 17.3742 12.0904 17.3742 14.1474C17.3742 16.2043 15.7053 17.8723 13.6471 17.8723C11.5889 17.8723 9.9209 16.2043 9.9209 14.1474ZM7.9061 14.1474C7.9061 17.3162 10.4763 19.885 13.6471 19.885C16.8179 19.885 19.3881 17.3162 19.3881 14.1474C19.3881 10.9785 16.8179 8.40979 13.6471 8.40979C10.4763 8.40979 7.9061 10.9785 7.9061 14.1474ZM18.2738 8.1823C18.2737 8.44749 18.3522 8.70676 18.4996 8.92732C18.6469 9.14788 18.8564 9.31983 19.1015 9.42141C19.3466 9.52299 19.6164 9.54965 19.8766 9.49802C20.1369 9.44639 20.376 9.31878 20.5637 9.13133C20.7514 8.94389 20.8793 8.70502 20.9312 8.44494C20.9831 8.18487 20.9566 7.91526 20.8552 7.67021C20.7537 7.42516 20.5818 7.21568 20.3613 7.06825C20.1407 6.92083 19.8813 6.84209 19.616 6.84198H19.6154C19.2597 6.84215 18.9187 6.9834 18.6671 7.2347C18.4155 7.48601 18.2741 7.82682 18.2738 8.1823ZM9.13022 23.2425C8.04017 23.1929 7.4477 23.0115 7.05397 22.8582C6.53197 22.6551 6.15953 22.4132 5.76795 22.0224C5.37636 21.6315 5.13397 21.2597 4.93165 20.738C4.77817 20.3447 4.59659 19.7524 4.54704 18.663C4.49284 17.4852 4.48202 17.1314 4.48202 14.1475C4.48202 11.1635 4.49373 10.8107 4.54704 9.63193C4.59668 8.54254 4.7796 7.9514 4.93165 7.55692C5.13487 7.03524 5.3769 6.66302 5.76795 6.27167C6.159 5.88033 6.53108 5.63808 7.05397 5.43588C7.44752 5.28249 8.04017 5.10102 9.13022 5.0515C10.3087 4.99733 10.6627 4.98652 13.6471 4.98652C16.6315 4.98652 16.9859 4.99823 18.1654 5.0515C19.2554 5.10111 19.8469 5.28392 20.2416 5.43588C20.7636 5.63808 21.1361 5.88086 21.5276 6.27167C21.9192 6.66249 22.1607 7.03524 22.3639 7.55692C22.5174 7.95024 22.699 8.54254 22.7485 9.63193C22.8027 10.8107 22.8136 11.1635 22.8136 14.1475C22.8136 17.1314 22.8027 17.4842 22.7485 18.663C22.6989 19.7524 22.5164 20.3445 22.3639 20.738C22.1607 21.2597 21.9187 21.6319 21.5276 22.0224C21.1366 22.4128 20.7636 22.6551 20.2416 22.8582C19.8481 23.0116 19.2554 23.193 18.1654 23.2425C16.9869 23.2967 16.6328 23.3075 13.6471 23.3075C10.6614 23.3075 10.3084 23.2967 9.13022 23.2425ZM9.03765 3.0413C7.84742 3.09547 7.03411 3.28408 6.32384 3.5603C5.58826 3.84554 4.96555 4.22822 4.34329 4.84912C3.72103 5.47003 3.33911 6.09334 3.05369 6.82848C2.77731 7.53878 2.58859 8.35115 2.53438 9.54067C2.47929 10.7321 2.46667 11.1129 2.46667 14.1474C2.46667 17.1818 2.47929 17.5627 2.53438 18.7541C2.58859 19.9437 2.77731 20.756 3.05369 21.4663C3.33911 22.201 3.72112 22.825 4.34329 23.4456C4.96546 24.0663 5.58826 24.4484 6.32384 24.7345C7.03545 25.0107 7.84742 25.1993 9.03765 25.2535C10.2304 25.3076 10.6109 25.3211 13.6471 25.3211C16.6834 25.3211 17.0645 25.3085 18.2566 25.2535C19.4469 25.1993 20.2597 25.0107 20.9704 24.7345C21.7055 24.4484 22.3287 24.0665 22.951 23.4456C23.5732 22.8247 23.9543 22.201 24.2406 21.4663C24.5169 20.756 24.7066 19.9436 24.7599 18.7541C24.8141 17.5618 24.8267 17.1818 24.8267 14.1474C24.8267 11.1129 24.8141 10.7321 24.7599 9.54067C24.7057 8.35106 24.5169 7.53833 24.2406 6.82848C23.9543 6.09379 23.5722 5.47101 22.951 4.84912C22.3297 4.22724 21.7055 3.84554 20.9713 3.5603C20.2597 3.28408 19.4468 3.09458 18.2575 3.0413C17.0654 2.98713 16.6843 2.97363 13.648 2.97363C10.6118 2.97363 10.2304 2.98624 9.03765 3.0413Z" fill="white"/>
</g>
</svg>
