<svg width="21" height="20" viewBox="0 0 21 20" fill="none" xmlns="http://www.w3.org/2000/svg">
<path d="M20.192 5.90938C20.181 5.08178 20.026 4.26242 19.7342 3.48793C19.481 2.83466 19.0944 2.24137 18.599 1.74597C18.1036 1.25057 17.5103 0.86396 16.857 0.610834C16.0925 0.323841 15.2848 0.168659 14.4684 0.151896C13.4172 0.104909 13.0839 0.0917969 10.4155 0.0917969C7.74714 0.0917969 7.40512 0.0917969 6.36159 0.151896C5.54551 0.168783 4.7382 0.323963 3.97402 0.610834C3.32064 0.863784 2.72726 1.25033 2.23184 1.74576C1.73642 2.24118 1.34987 2.83456 1.09692 3.48793C0.80935 4.25188 0.654505 5.05937 0.639073 5.8755C0.592086 6.92778 0.577881 7.26106 0.577881 9.92945C0.577881 12.5978 0.577881 12.9388 0.639073 13.9834C0.655463 14.8007 0.809535 15.6072 1.09692 16.3732C1.35029 17.0263 1.73713 17.6195 2.23272 18.1147C2.7283 18.6099 3.32174 18.9963 3.97511 19.2492C4.7372 19.5477 5.54465 19.714 6.36268 19.7409C7.41496 19.7879 7.74823 19.8021 10.4166 19.8021C13.085 19.8021 13.427 19.8021 14.4706 19.7409C15.287 19.7248 16.0947 19.57 16.8592 19.283C17.5123 19.0296 18.1055 18.6429 18.6008 18.1475C19.0962 17.6522 19.4829 17.059 19.7363 16.4059C20.0237 15.641 20.1778 14.8346 20.1942 14.0162C20.2412 12.965 20.2554 12.6317 20.2554 9.96223C20.2532 7.29384 20.2532 6.9551 20.192 5.90938ZM10.409 14.9756C7.6182 14.9756 5.35739 12.7148 5.35739 9.92399C5.35739 7.13321 7.6182 4.8724 10.409 4.8724C11.7487 4.8724 13.0336 5.40462 13.981 6.35197C14.9283 7.29933 15.4606 8.58422 15.4606 9.92399C15.4606 11.2638 14.9283 12.5486 13.981 13.496C13.0336 14.4434 11.7487 14.9756 10.409 14.9756ZM15.6616 5.86348C15.5069 5.86363 15.3537 5.83326 15.2107 5.77411C15.0677 5.71496 14.9378 5.6282 14.8284 5.51879C14.719 5.40938 14.6322 5.27947 14.5731 5.13649C14.5139 4.99351 14.4835 4.84027 14.4837 4.68554C14.4837 4.53093 14.5141 4.37782 14.5733 4.23497C14.6325 4.09213 14.7192 3.96233 14.8285 3.853C14.9379 3.74367 15.0677 3.65694 15.2105 3.59777C15.3534 3.5386 15.5065 3.50815 15.6611 3.50815C15.8157 3.50815 15.9688 3.5386 16.1116 3.59777C16.2545 3.65694 16.3843 3.74367 16.4936 3.853C16.603 3.96233 16.6897 4.09213 16.7488 4.23497C16.808 4.37782 16.8385 4.53093 16.8385 4.68554C16.8385 5.3368 16.3118 5.86348 15.6616 5.86348Z" fill="white"/>
<path d="M10.4113 13.2059C12.2236 13.2059 13.6927 11.7367 13.6927 9.92447C13.6927 8.1122 12.2236 6.64307 10.4113 6.64307C8.59902 6.64307 7.12988 8.1122 7.12988 9.92447C7.12988 11.7367 8.59902 13.2059 10.4113 13.2059Z" fill="white"/>
</svg>
