<svg xmlns="http://www.w3.org/2000/svg" width="183" height="99" viewBox="0 0 183 99" fill="none">
  <path d="M159.847 27.9329C159.835 27.9051 159.817 27.874 159.79 27.8397C158.252 25.7869 156.705 23.7398 155.147 21.6984C154.559 20.9262 154.208 20.377 153.178 20.1833C151.554 19.8777 149.681 19.6064 147.559 19.3694C147.478 19.3596 147.359 19.2999 147.204 19.1904C147.104 19.1185 147.018 19.0221 146.944 18.9011C142.492 11.3796 136.218 5.56686 127.061 5.07899C126.625 5.05447 126.19 4.88368 125.757 4.56661C124.86 3.90957 123.959 3.26154 123.053 2.62248C122.728 2.39203 122.452 2.11663 122.224 1.79629C122.174 1.72764 122.176 1.66064 122.232 1.59526C122.97 0.724941 124.203 -0.238543 125.419 0.0531985C125.782 0.139822 126.228 0.271388 126.757 0.447903C136.284 3.63009 145.922 8.10182 153.453 14.8756C158.033 18.9968 161.065 23.7823 162.548 29.6147C162.668 30.0821 162.573 30.4547 162.264 30.7326C160.981 31.8881 159.731 33.0273 158.513 34.1501C158.429 34.2275 158.326 34.281 158.214 34.3051C158.102 34.3293 157.985 34.3232 157.876 34.2874L130.982 25.3342C130.977 25.3324 130.974 25.3294 130.971 25.3255C130.969 25.3216 130.968 25.317 130.968 25.3124C130.968 25.3078 130.97 25.3035 130.973 25.2999C130.976 25.2963 130.98 25.2937 130.984 25.2925C131.097 25.2745 131.22 25.2778 131.354 25.3023C138.147 26.5297 144.93 27.8119 151.703 29.1489C152.124 29.2322 152.49 29.0851 152.835 28.7909C154.066 27.7465 155.301 26.7716 156.54 25.8662C156.611 25.8142 156.697 25.7873 156.785 25.7895C156.873 25.7917 156.959 25.8229 157.027 25.8784L159.69 28.0505C159.707 28.0653 159.729 28.0738 159.752 28.0745C159.775 28.0752 159.797 28.0682 159.815 28.0545C159.834 28.0408 159.847 28.0213 159.852 27.9992C159.858 27.9771 159.856 27.9537 159.847 27.9329Z" fill="black"/>
  <path d="M45.5874 17.6901C49.1259 20.0158 51.6846 21.6723 53.2634 22.6595C53.3484 22.7118 53.5004 22.7461 53.7194 22.7625C59.4742 23.2185 65.2126 23.8322 70.9346 24.6036C71.3775 24.6624 71.8139 24.6379 72.2438 24.5301C73.6134 24.1885 74.9454 23.8559 76.2399 23.5323C76.4599 23.4777 76.6909 23.4828 76.9092 23.547L96.9093 29.47C96.9976 29.4962 97.009 29.5411 96.9437 29.6049C96.6887 29.8566 96.4321 29.9661 96.1739 29.9334C94.1668 29.6768 92.1565 29.4349 90.1429 29.2077C90.0694 29.1996 90.0154 29.229 89.9811 29.296L89.3167 30.6002C89.2934 30.6457 89.2563 30.6826 89.2109 30.7056C89.1655 30.7285 89.1141 30.7362 89.0642 30.7277L58.478 25.7093C58.4631 25.7074 58.448 25.7108 58.4354 25.719C58.4227 25.7271 58.4134 25.7395 58.409 25.7539C58.4046 25.7682 58.4054 25.7837 58.4113 25.7975C58.4172 25.8113 58.4278 25.8226 58.4412 25.8294C62.2837 27.557 66.0322 29.4692 69.6867 31.5662C69.7837 31.6219 69.893 31.6524 70.0048 31.655C70.1166 31.6575 70.2272 31.6321 70.3266 31.5809L73.0773 30.1761C73.0933 30.1687 73.1115 30.1671 73.1288 30.1714C73.146 30.1757 73.1612 30.1857 73.1717 30.1997C73.1822 30.2137 73.1874 30.2308 73.1863 30.248C73.1851 30.2652 73.1778 30.2814 73.1656 30.2938L71.4911 32.032C71.4775 32.0461 71.4672 32.0631 71.461 32.0817C71.4548 32.1003 71.4528 32.1201 71.4551 32.1395C71.4575 32.159 71.4641 32.1777 71.4746 32.1943C71.485 32.2109 71.4991 32.2249 71.5156 32.2355L76.1344 35.0989C76.1859 35.1306 76.2454 35.1472 76.306 35.1467C76.3667 35.1463 76.4262 35.1289 76.4777 35.0965C77.8277 34.2466 79.1867 33.4106 80.5547 32.5885C81.1594 32.224 81.1897 32.2665 80.6454 32.716L76.7204 35.9644C76.7029 35.9788 76.6888 35.997 76.6792 36.0176C76.6695 36.0381 76.6645 36.0605 76.6645 36.0833C76.6645 36.106 76.6695 36.1284 76.6792 36.1489C76.6888 36.1695 76.7029 36.1877 76.7204 36.2022L77.7525 37.0431C77.7706 37.0578 77.7844 37.077 77.7926 37.0988C77.8009 37.1207 77.8033 37.1443 77.7996 37.1675C77.7959 37.1907 77.7862 37.2127 77.7715 37.2313C77.7568 37.2498 77.7376 37.2644 77.7157 37.2735L76.5537 37.7418C76.53 37.7514 76.5041 37.7545 76.4787 37.7506C76.4532 37.7467 76.4292 37.7361 76.409 37.7197C71.9553 34.1322 66.8837 31.9625 61.1944 31.2107C61.1288 31.2016 61.0666 31.1764 61.0135 31.1374C60.9604 31.0985 60.9181 31.047 60.8904 30.9876C58.0392 24.7973 50.8658 22.863 44.7441 21.9657C43.6638 21.8072 42.7027 21.6061 41.861 21.3626C32.1134 18.5416 22.3724 15.6969 12.6379 12.8286C12.3657 12.7476 11.9147 12.6864 11.5739 12.5025C11.5388 12.4834 11.512 12.4519 11.4985 12.414C11.4849 12.3761 11.4856 12.3343 11.5003 12.2966L11.8534 11.4459C11.8804 11.3793 11.9261 11.3217 11.9852 11.2801C12.0442 11.2384 12.1142 11.2142 12.1868 11.2105L41.2015 9.81798C41.2734 9.81471 41.3249 9.84495 41.356 9.90869L44.4867 16.5256C44.5194 16.5941 44.5759 16.6484 44.6454 16.6782C44.7149 16.708 44.7928 16.7113 44.8642 16.6874C46.0067 16.3074 46.8991 16.2387 48.1298 16.5771C52.2109 17.7032 56.6908 18.665 61.5695 19.4626C65.5182 20.1098 69.3108 20.2324 72.9474 19.8303C73.2742 19.7944 73.6788 19.662 74.1609 19.4332C74.2329 19.398 74.2934 19.3426 74.335 19.2738C85.1931 1.08046 108.64 7.63116 122.511 16.9644C122.52 16.9705 122.527 16.9787 122.532 16.9883C122.537 16.9979 122.539 17.0086 122.538 17.0192C122.537 17.0299 122.534 17.0402 122.528 17.049C122.522 17.0579 122.514 17.0651 122.504 17.0698C121.2 17.7171 119.892 18.3782 118.582 19.0532C116.995 19.8696 113.259 19.6023 111.364 19.3131C103.004 18.0333 94.3793 14.9467 86.7597 12.1397C84.7224 11.3895 82.1115 12.8188 80.7999 14.3289C80.7719 14.3614 80.7525 14.4003 80.7433 14.4422C80.7342 14.484 80.7357 14.5275 80.7476 14.5687C80.7596 14.6098 80.7816 14.6473 80.8117 14.6778C80.8418 14.7083 80.879 14.7308 80.92 14.7433C84.9333 15.947 95.6345 19.6391 93.3251 25.952C93.2891 26.0517 93.2197 26.086 93.1167 26.055L77.1347 21.3724C76.837 21.2839 76.5228 21.2704 76.2203 21.3332C75.0419 21.5718 73.8373 21.8341 72.6066 22.1201C72.0917 22.2395 71.5761 22.2762 71.0596 22.2305C65.4896 21.7369 59.9203 21.2425 54.3519 20.7472C53.7783 20.6966 53.2201 20.565 52.6775 20.3525C50.324 19.4356 47.9704 18.5285 45.6169 17.6312C45.4322 17.561 45.4224 17.5806 45.5874 17.6901Z" fill="white"/>
  <path d="M14.783 14.3118C24.1261 18.6217 32.1747 22.1594 43.05 26.6507C49.9733 29.5118 57.2595 31.9437 62.2215 34.1502C63.3027 34.6307 68.1544 36.6067 66.8134 38.0728C66.109 38.8393 65.4536 39.5282 64.8472 40.1395C64.8301 40.1564 64.8074 40.1662 64.7836 40.1668C64.7598 40.1675 64.7366 40.159 64.7185 40.1431C64.7004 40.1271 64.6887 40.1049 64.6858 40.0806C64.6828 40.0564 64.6888 40.0319 64.7026 40.012C65.3204 39.2054 65.8622 37.5628 64.9575 36.6288C63.7023 35.327 60.6476 34.4959 58.1151 33.731C53.0534 32.2012 47.9883 30.682 42.9201 29.1734C42.6389 29.0901 42.272 28.9291 41.8193 28.6905C32.7663 23.9147 23.7134 19.1374 14.6604 14.3584C14.6228 14.3371 14.6236 14.3183 14.6629 14.302C14.6955 14.2873 14.7356 14.2906 14.783 14.3118Z" fill="white"/>
  <path d="M127.848 22.1299C129.52 20.2062 131.179 18.2703 132.825 16.3221C132.892 16.242 132.987 16.0924 133.11 15.8734C133.219 15.6757 133.249 15.5122 133.2 15.3831C133.128 15.187 132.94 15.1012 132.634 15.1257C132.59 15.129 132.564 15.1093 132.556 15.0668C132.549 15.0325 132.559 15.0121 132.585 15.0055C134.317 14.5822 135.871 14.8503 137.245 15.8097C138.182 16.4618 138.457 17.3689 137.547 18.2147C135.942 19.702 134.373 21.249 132.84 22.8556C132.818 22.8786 132.79 22.8955 132.76 22.9047C132.729 22.9139 132.697 22.9151 132.666 22.9082C132.635 22.9013 132.607 22.8865 132.583 22.8652C132.56 22.8439 132.543 22.817 132.533 22.787C132.486 22.6431 132.529 22.4944 132.663 22.3408C134.018 20.8011 135.446 19.331 136.946 17.9303C137.156 17.7342 137.263 17.4449 137.268 17.0625C137.268 17.0226 137.26 16.9829 137.244 16.946C137.228 16.9092 137.204 16.8762 137.174 16.8492C136.802 16.5231 135.676 15.7974 135.167 16.3294C133.091 18.4836 131.005 20.6295 128.91 22.7673C128.461 23.2258 128.317 23.5273 128.219 24.1304C128.214 24.1569 128.2 24.181 128.18 24.1989C128.16 24.2168 128.135 24.2275 128.108 24.2292C128.081 24.2309 128.055 24.2235 128.032 24.2083C128.01 24.193 127.994 24.1708 127.986 24.1451C127.955 24.0405 127.939 23.9032 127.939 23.7333C127.938 22.7036 127.421 22.2737 126.39 22.4437C126.385 22.4441 126.38 22.443 126.375 22.4407C126.371 22.4384 126.367 22.4348 126.365 22.4305C126.362 22.4262 126.361 22.4212 126.361 22.4162C126.361 22.4111 126.363 22.4063 126.365 22.402C126.383 22.3808 126.4 22.3595 126.417 22.3383C126.428 22.322 126.443 22.3113 126.461 22.3064C126.843 22.1937 127.235 22.1626 127.635 22.2133C127.72 22.2231 127.791 22.1953 127.848 22.1299Z" fill="white"/>
  <path d="M105.686 27.298L131.18 16.3246C131.207 16.3134 131.236 16.31 131.265 16.3147C131.294 16.3194 131.32 16.3321 131.342 16.3513C131.364 16.3704 131.38 16.3954 131.388 16.4232C131.396 16.451 131.396 16.4805 131.389 16.5084C131.188 17.2121 129.81 18.4599 129.256 18.9919C128.89 19.345 128.453 19.6351 127.944 19.8622C120.82 23.0477 113.711 26.2217 106.618 29.3843C106.426 29.4696 106.272 29.6211 106.184 29.8109L104.973 32.4316C104.944 32.4913 104.894 32.5371 104.833 32.5591L102.749 33.3338C102.582 33.3959 102.537 33.3469 102.614 33.1867L105.198 27.7687C105.299 27.557 105.473 27.3897 105.686 27.298Z" fill="white"/>
  <path d="M89.0887 41.6889L122.046 26.4129C122.384 26.2551 122.768 26.2271 123.124 26.3345L144.939 32.9097C145.215 32.9931 145.22 33.0903 144.953 33.2014C143.455 33.8192 141.859 34.3194 140.168 34.7018C139.561 34.8391 138.915 34.8881 138.229 34.8489C134.504 34.6381 130.781 34.4575 127.059 34.3071C126.936 34.3022 126.815 34.336 126.713 34.4038C126.61 34.4715 126.532 34.5698 126.488 34.6847C122.117 46.1263 117.711 57.6219 112.837 68.8723C112.769 69.0308 112.656 69.1403 112.499 69.2008C112.467 69.2131 112.432 69.2163 112.398 69.21C112.364 69.2037 112.333 69.1882 112.308 69.1652C112.283 69.1423 112.264 69.1127 112.255 69.08C112.246 69.0473 112.247 69.0127 112.256 68.9802C115.603 57.4968 118.876 45.9866 121.68 34.3414C121.688 34.3125 121.688 34.2824 121.683 34.2531C121.677 34.2239 121.665 34.1963 121.647 34.1722C121.63 34.1481 121.607 34.1282 121.581 34.1138C121.555 34.0994 121.526 34.0909 121.496 34.0889C119.788 33.9827 118.049 33.8895 116.279 33.8094C115.013 33.7539 113.954 33.8372 113.105 34.0595C110.349 34.7819 107.647 35.6645 105 36.7072C104.146 37.0439 103.082 37.6585 101.808 38.5508C99.6404 40.0659 99.9713 42.3974 100.807 44.5818C101.577 46.5954 102.367 48.6008 103.178 50.598C105.215 55.6173 106.653 60.5327 107.493 65.3444C107.606 65.9868 107.179 66.2932 106.733 66.6659C105.767 67.4749 103.71 69.1812 102.44 69.1959C100.266 69.2221 98.0411 69.1975 95.7644 69.1224C95.7385 69.1222 95.7136 69.1134 95.6936 69.0972C95.6736 69.081 95.6596 69.0584 95.654 69.033C95.6484 69.0076 95.6513 68.9809 95.6625 68.9571C95.6736 68.9333 95.6922 68.9138 95.7154 68.9017C97.6211 67.9015 99.4524 66.741 101.209 65.4204C101.453 65.2357 101.554 65.0069 101.513 64.734C100.221 56.3618 97.4486 48.6073 91.7487 42.1964C91.6097 42.0395 91.4406 41.9316 91.2412 41.8728C91.2078 41.8632 91.1726 41.864 91.1407 41.8752L89.3853 42.4464C89.2857 42.482 89.1761 42.4774 89.0798 42.4335C88.9836 42.3897 88.9081 42.3101 88.8696 42.2115C88.831 42.113 88.8323 42.0034 88.8732 41.9058C88.9141 41.8083 88.9914 41.7304 89.0887 41.6889Z" fill="black"/>
  <path d="M118.849 69.191C118.799 69.1893 118.75 69.1722 118.709 69.1419C118.599 69.0586 118.572 68.9385 118.626 68.7816C121.592 60.2328 126.152 52.0493 132.377 45.5918C137.514 40.262 143.576 36.3427 150.565 33.8339C150.58 33.8278 150.597 33.8277 150.612 33.8336C150.627 33.8395 150.639 33.851 150.645 33.8658C150.652 33.8807 150.653 33.8977 150.648 33.9136C150.643 33.9295 150.633 33.9431 150.619 33.9516C144.642 37.3953 139.242 41.5794 134.419 46.5038C128.381 52.6672 124.595 60.3652 123.24 68.9311C123.226 69.0226 123.176 69.0831 123.088 69.1125C122.939 69.1648 122.753 69.1918 122.531 69.1934C121.323 69.2098 120.096 69.2089 118.849 69.191Z" fill="black"/>
  <path d="M97.282 35.3L83.428 40.6224C83.4124 40.6282 83.3953 40.6287 83.3793 40.6238C83.3634 40.619 83.3495 40.609 83.3398 40.5954L82.4939 39.4628C82.487 39.4537 82.4823 39.4431 82.48 39.4319C82.4778 39.4207 82.478 39.4092 82.4809 39.3981C82.4837 39.387 82.489 39.3767 82.4963 39.368C82.5037 39.3592 82.5129 39.3522 82.5234 39.3476L95.0682 34.057C95.0784 34.0528 95.0894 34.0508 95.1004 34.0512C95.1114 34.0516 95.1222 34.0544 95.132 34.0594L97.2894 35.1602C97.3028 35.1667 97.314 35.1771 97.3216 35.19C97.3291 35.2028 97.3327 35.2176 97.332 35.2325C97.3312 35.2474 97.326 35.2618 97.3171 35.2738C97.3083 35.2857 97.2961 35.2949 97.282 35.3Z" fill="white"/>
  <path d="M15.5871 45.0745C16.3226 44.5041 16.2826 44.442 15.467 44.8882C7.34566 49.3273 2.24796 56.0814 0.1739 65.1507C0.0349753 65.7587 -0.0205945 65.7506 0.00719035 65.1262C0.764736 47.9699 17.9039 35.3073 34.462 39.8207C39.2623 41.1283 43.345 43.7245 46.7103 47.6095C46.7202 47.621 46.7256 47.636 46.7254 47.6514C46.7252 47.6668 46.7194 47.6816 46.7091 47.6927C46.6989 47.7039 46.685 47.7106 46.6702 47.7115C46.6555 47.7125 46.6409 47.7075 46.6294 47.6977C41.7932 44.035 36.3285 42.0272 30.2355 41.6742C29.8874 41.6545 29.8833 41.6823 30.2232 41.7575C32.5743 42.2846 34.9033 43.15 37.0755 44.2165C37.0914 44.2223 37.1043 44.2343 37.1115 44.2497C37.1186 44.2651 37.1193 44.2827 37.1135 44.2986C37.1076 44.3145 37.0957 44.3275 37.0803 44.3346C37.0649 44.3417 37.0473 44.3425 37.0313 44.3366C29.2818 42.3067 22.0471 42.8705 15.288 47.1584C12.57 48.8843 10.1291 51.0303 7.9651 53.5963C7.95529 53.6094 7.9414 53.6159 7.92342 53.6159C7.90218 53.6159 7.88011 53.6159 7.85723 53.6159C7.85396 53.6159 7.85314 53.6143 7.85478 53.611C9.93374 50.3079 12.5112 47.4624 15.5871 45.0745Z" fill="white"/>
  <path d="M79.7824 41.5418C79.7614 41.4991 79.732 41.4611 79.696 41.43C79.6599 41.399 79.618 41.3755 79.5726 41.3611C79.5273 41.3467 79.4795 41.3415 79.4322 41.3461C79.3848 41.3506 79.3388 41.3646 79.297 41.3873C76.6763 42.8093 75.7397 45.8076 75.649 48.6612C75.6458 48.7593 75.5984 48.7912 75.5068 48.7568L74.2394 48.2763C74.1948 48.259 74.1575 48.2272 74.1334 48.1863C74.1094 48.1453 74.1 48.0975 74.107 48.0508C74.5368 45.0484 75.8043 42.3778 77.9094 40.0389C78.3997 39.493 78.9301 39.1302 79.5005 38.9504C79.5385 38.9387 79.5792 38.9382 79.6175 38.9491C79.6557 38.96 79.69 38.9817 79.7162 39.0117L82.1237 41.7869C82.1907 41.8654 82.1989 41.9496 82.1482 42.0394C80.4354 45.0696 79.6778 48.3384 79.8756 51.8459C79.8766 51.8641 79.873 51.8824 79.865 51.8988C79.857 51.9153 79.845 51.9295 79.83 51.94C79.8151 51.9506 79.7977 51.9571 79.7795 51.9591C79.7613 51.9611 79.7429 51.9584 79.726 51.9513L78.7675 51.5247C78.6776 51.4838 78.6335 51.4144 78.6351 51.3163C78.6956 48.3156 79.2079 45.3965 80.1722 42.5592C80.2017 42.4726 80.1959 42.3884 80.1551 42.3067L79.7824 41.5418Z" fill="white"/>
  <path d="M153.23 68.5976L153.348 68.909C153.355 68.9307 153.358 68.954 153.355 68.9769C153.352 68.9998 153.343 69.0217 153.33 69.0407C153.317 69.0596 153.299 69.0751 153.279 69.0859C153.259 69.0967 153.236 69.1024 153.213 69.1026L149.185 69.11C149.159 69.1102 149.133 69.1029 149.112 69.089C149.09 69.0751 149.072 69.0552 149.061 69.0317C149.05 69.0081 149.047 68.982 149.05 68.9563C149.054 68.9306 149.065 68.9065 149.082 68.8869C149.853 67.9847 150.835 67.6676 152.026 67.9357C152.155 67.9651 152.199 67.9169 152.156 67.791L152.124 67.6979C152.113 67.6624 152.091 67.6306 152.063 67.6061C152.034 67.5815 152 67.5649 151.962 67.5581C150.442 67.3081 149.307 67.8286 148.557 69.1198C148.532 69.162 148.493 69.1944 148.447 69.2121C148.401 69.2297 148.351 69.2315 148.304 69.2171C148.257 69.2027 148.216 69.173 148.187 69.1328C148.159 69.0925 148.145 69.0439 148.148 68.9948C148.167 68.7079 148.214 68.4554 148.079 68.1588C147.494 66.8692 146.93 65.583 146.388 64.2999C146.38 64.2826 146.369 64.2673 146.355 64.2553C146.34 64.2433 146.323 64.235 146.305 64.2311C146.286 64.2272 146.267 64.2279 146.249 64.2331C146.231 64.2382 146.215 64.2477 146.201 64.2607C144.848 65.5617 144.041 67.1463 143.779 69.0144C143.774 69.0529 143.754 69.088 143.725 69.1129C143.695 69.1378 143.658 69.1507 143.62 69.1492L143.031 69.1321C142.909 69.1288 142.856 69.0659 142.874 68.9433C143.097 67.3743 143.679 65.9564 144.622 64.6898C144.678 64.6146 144.674 64.5435 144.61 64.4765L143.973 63.8096C143.898 63.7312 143.826 63.7345 143.759 63.8194C142.594 65.2871 141.908 66.9559 141.7 68.8256C141.677 69.0316 141.562 69.1337 141.354 69.1321L138.716 69.1076C138.694 69.1073 138.672 69.1024 138.651 69.0931C138.631 69.0837 138.612 69.0702 138.597 69.0534C138.582 69.0365 138.571 69.0167 138.564 68.9952C138.557 68.9737 138.555 68.951 138.557 68.9286C138.982 64.9439 140.79 61.765 143.98 59.3918C144.122 59.2872 144.158 59.154 144.088 58.9922L138.998 47.173C138.988 47.1484 138.972 47.1263 138.952 47.1081C138.933 47.0899 138.909 47.0761 138.884 47.0676C138.858 47.059 138.831 47.0559 138.805 47.0584C138.778 47.061 138.752 47.0691 138.729 47.0823C137.441 47.8145 136.222 48.6473 135.073 49.5805C134.307 50.2032 134.246 50.1403 134.892 49.3917C137.347 46.5348 140.027 43.9075 142.933 41.5098C143 41.4559 143.077 41.4265 143.164 41.4216C149.226 41.1543 155.36 41.6079 160.997 43.503C163.473 44.3365 165.723 45.5664 167.748 47.1927C167.864 47.2858 167.848 47.3389 167.699 47.352L158.437 48.2003C158.328 48.2101 158.247 48.2624 158.194 48.3572C156.653 51.1487 155.7 54.1323 155.336 57.308C155.324 57.4011 155.363 57.4632 155.451 57.4943C160.789 59.4147 163.854 63.2 164.647 68.8501C164.652 68.8849 164.649 68.9203 164.639 68.9539C164.629 68.9876 164.612 69.0187 164.589 69.0452C164.566 69.0717 164.538 69.0929 164.506 69.1075C164.474 69.1221 164.439 69.1296 164.404 69.1296L159.572 69.1124C159.474 69.1124 159.418 69.0642 159.403 68.9678C158.947 66.2024 157.486 64.1741 155.02 62.8829C155.008 62.8772 154.995 62.8745 154.982 62.875C154.969 62.8755 154.957 62.8792 154.945 62.8858C154.934 62.8923 154.925 62.9015 154.918 62.9126C154.911 62.9236 154.908 62.9362 154.907 62.9491L154.593 68.9408C154.588 69.0209 154.546 69.0708 154.468 69.0904C153.935 69.2211 153.546 69.0602 153.301 68.6074C153.16 68.3492 153.137 68.3459 153.23 68.5976ZM143.599 45.1868C143.574 45.1205 143.523 45.067 143.459 45.038C143.394 45.0089 143.321 45.0067 143.254 45.0319L143.204 45.051C143.138 45.0762 143.084 45.1266 143.055 45.1913C143.026 45.2559 143.024 45.3295 143.049 45.3957L147.602 57.382C147.627 57.4482 147.678 57.5018 147.742 57.5308C147.807 57.5599 147.881 57.562 147.947 57.5369L147.997 57.5177C148.063 57.4926 148.117 57.4421 148.146 57.3775C148.175 57.3128 148.177 57.2393 148.152 57.173L143.599 45.1868ZM142.146 50.8039C142.074 50.5832 142.131 50.4369 142.315 50.365C142.662 50.231 142.945 50.1011 143.164 49.9752C143.26 49.9197 143.29 49.8404 143.252 49.7374L141.803 45.7756C141.796 45.756 141.785 45.7381 141.771 45.723C141.757 45.7079 141.739 45.6959 141.72 45.6879C141.701 45.6798 141.68 45.6758 141.66 45.6761C141.639 45.6765 141.618 45.6811 141.6 45.6898L140.222 46.315C140.153 46.3469 140.1 46.4049 140.073 46.4761C140.047 46.5473 140.05 46.626 140.082 46.695L140.786 48.2101C140.826 48.3 140.895 48.3326 140.992 48.3081L141.443 48.1905C141.467 48.1841 141.493 48.1835 141.518 48.1886C141.543 48.1938 141.566 48.2046 141.587 48.2202C141.607 48.2358 141.623 48.2558 141.634 48.2787C141.645 48.3016 141.651 48.3268 141.651 48.3523V48.4528C141.651 48.5361 141.616 48.5974 141.546 48.6366L140.786 49.0632C140.702 49.109 140.679 49.176 140.717 49.2643L148.565 67.8989C148.572 67.9173 148.585 67.9334 148.6 67.9459C148.616 67.9585 148.634 67.9671 148.653 67.9709C148.673 67.9748 148.693 67.9738 148.712 67.9681C148.731 67.9624 148.749 67.9521 148.763 67.9381C149.221 67.4903 149.762 67.1896 150.386 67.0359C150.412 67.0299 150.436 67.0181 150.456 67.0015C150.476 66.9849 150.493 66.9638 150.504 66.9398C150.515 66.9159 150.521 66.8896 150.521 66.863C150.521 66.8363 150.515 66.81 150.504 66.7859L150.036 65.7734C150.027 65.754 150.014 65.7366 149.998 65.7223C149.982 65.708 149.964 65.697 149.943 65.6902C149.923 65.6833 149.902 65.6806 149.881 65.6822C149.859 65.6839 149.839 65.6899 149.82 65.6998L148.535 66.352C148.47 66.3863 148.411 66.3773 148.359 66.325C148.298 66.2661 148.274 66.2008 148.288 66.1289C148.299 66.0635 148.35 65.9997 148.44 65.9376C148.776 65.7105 149.102 65.4996 149.418 65.3051C149.457 65.2809 149.486 65.2436 149.5 65.1997C149.515 65.1558 149.513 65.1081 149.496 65.0649L143.598 50.5366C143.585 50.5061 143.567 50.4784 143.543 50.4554C143.519 50.4324 143.491 50.4146 143.46 50.4031C143.429 50.3916 143.396 50.3866 143.364 50.3885C143.331 50.3904 143.298 50.3991 143.269 50.4141L142.333 50.8823C142.241 50.9297 142.179 50.9036 142.146 50.8039ZM157.631 60.5147C157.631 60.3697 157.573 60.2306 157.47 60.1281C157.368 60.0256 157.229 59.968 157.084 59.968C156.939 59.968 156.8 60.0256 156.697 60.1281C156.595 60.2306 156.537 60.3697 156.537 60.5147C156.537 60.6597 156.595 60.7987 156.697 60.9013C156.8 61.0038 156.939 61.0614 157.084 61.0614C157.229 61.0614 157.368 61.0038 157.47 60.9013C157.573 60.7987 157.631 60.6597 157.631 60.5147ZM149.528 61.6042C149.598 61.5775 149.639 61.4824 149.643 61.3397C149.646 61.1969 149.61 61.0184 149.544 60.8432C149.478 60.668 149.386 60.5106 149.29 60.4056C149.193 60.3006 149.099 60.2566 149.028 60.2832C148.958 60.3099 148.916 60.405 148.913 60.5478C148.91 60.6905 148.946 60.8691 149.012 61.0442C149.078 61.2194 149.17 61.3768 149.266 61.4818C149.363 61.5868 149.457 61.6309 149.528 61.6042ZM157.341 62.9663L157.699 62.3804C157.719 62.348 157.732 62.3121 157.737 62.2748C157.743 62.2374 157.741 62.1993 157.732 62.1626C157.723 62.1259 157.707 62.0914 157.684 62.061C157.662 62.0307 157.634 62.0051 157.601 61.9856L155.755 60.8628C155.678 60.8158 155.593 60.7827 155.506 60.7654C155.418 60.7481 155.33 60.7469 155.246 60.7619C155.162 60.7769 155.084 60.8079 155.016 60.8529C154.948 60.898 154.892 60.9563 154.85 61.0246L154.826 61.0614C154.785 61.1297 154.759 61.2066 154.75 61.2877C154.742 61.3689 154.75 61.4526 154.776 61.5341C154.801 61.6156 154.843 61.6933 154.899 61.7628C154.955 61.8323 155.023 61.8922 155.101 61.9391L156.947 63.0619C156.979 63.0816 157.015 63.0947 157.052 63.1006C157.089 63.1064 157.127 63.1049 157.164 63.096C157.2 63.0871 157.235 63.0711 157.265 63.0488C157.296 63.0266 157.322 62.9985 157.341 62.9663ZM160.526 61.7846C160.526 61.708 160.511 61.6321 160.482 61.5613C160.452 61.4905 160.409 61.4262 160.355 61.372C160.301 61.3178 160.237 61.2749 160.166 61.2455C160.095 61.2162 160.019 61.2011 159.942 61.2011C159.866 61.2011 159.79 61.2162 159.719 61.2455C159.648 61.2749 159.584 61.3178 159.53 61.372C159.476 61.4262 159.433 61.4905 159.403 61.5613C159.374 61.6321 159.359 61.708 159.359 61.7846C159.359 61.9394 159.42 62.0878 159.53 62.1972C159.639 62.3066 159.788 62.3681 159.942 62.3681C160.097 62.3681 160.246 62.3066 160.355 62.1972C160.464 62.0878 160.526 61.9394 160.526 61.7846ZM144.355 62.3019C144.355 62.1582 144.298 62.0204 144.196 61.9188C144.095 61.8172 143.957 61.7601 143.813 61.7601C143.67 61.7601 143.532 61.8172 143.43 61.9188C143.329 62.0204 143.272 62.1582 143.272 62.3019C143.272 62.4456 143.329 62.5834 143.43 62.685C143.532 62.7866 143.67 62.8437 143.813 62.8437C143.957 62.8437 144.095 62.7866 144.196 62.685C144.298 62.5834 144.355 62.4456 144.355 62.3019ZM145.358 62.1548L145.078 62.3166C145.07 62.3214 145.063 62.3279 145.057 62.3355C145.051 62.3432 145.047 62.3519 145.044 62.3613C145.042 62.3706 145.041 62.3803 145.042 62.3899C145.043 62.3995 145.047 62.4087 145.051 62.4171L145.069 62.4465C145.21 62.6931 145.365 62.9188 145.498 63.0741C145.631 63.2295 145.733 63.3018 145.78 63.2752L145.833 63.2433C145.857 63.2304 145.866 63.1934 145.861 63.1346C145.856 63.0757 145.836 62.996 145.803 62.9001C145.769 62.8042 145.723 62.694 145.667 62.5758C145.611 62.4576 145.546 62.3337 145.476 62.2112L145.458 62.1818C145.454 62.1734 145.447 62.1661 145.439 62.1602C145.432 62.1543 145.423 62.15 145.414 62.1474C145.404 62.1449 145.395 62.1443 145.385 62.1456C145.375 62.1468 145.366 62.15 145.358 62.1548ZM150.092 62.4067C150.069 62.3472 150.024 62.2992 149.966 62.2733C149.907 62.2474 149.841 62.2456 149.782 62.2685L149.773 62.272C149.743 62.2833 149.716 62.3003 149.693 62.322C149.671 62.3437 149.652 62.3697 149.639 62.3986C149.626 62.4274 149.619 62.4584 149.619 62.49C149.618 62.5215 149.623 62.5529 149.635 62.5824L151.263 66.8258C151.286 66.8853 151.332 66.9332 151.39 66.9592C151.448 66.9851 151.514 66.9868 151.574 66.964L151.583 66.9604C151.612 66.9491 151.639 66.9321 151.662 66.9104C151.685 66.8887 151.704 66.8627 151.716 66.8339C151.729 66.805 151.736 66.774 151.737 66.7424C151.738 66.7109 151.732 66.6795 151.721 66.65L150.092 62.4067ZM158.334 64.3931C159.386 65.6827 160.023 67.188 160.295 68.833C160.304 68.8848 160.332 68.9315 160.374 68.9638C160.415 68.9961 160.468 69.0115 160.521 69.007L161.35 68.9335C161.371 68.9313 161.392 68.9249 161.412 68.9146C161.431 68.9043 161.448 68.8904 161.461 68.8737C161.475 68.857 161.485 68.8378 161.49 68.8173C161.496 68.7968 161.497 68.7755 161.494 68.7545C161.228 66.7785 160.461 65.0273 159.195 63.5007C159.128 63.419 159.057 63.4166 158.984 63.4934L158.342 64.1725C158.275 64.2428 158.272 64.3163 158.334 64.3931ZM141.511 65.1212C141.511 64.9665 141.45 64.8181 141.34 64.7087C141.231 64.5992 141.083 64.5378 140.928 64.5378C140.773 64.5378 140.625 64.5992 140.515 64.7087C140.406 64.8181 140.344 64.9665 140.344 65.1212C140.344 65.276 140.406 65.4244 140.515 65.5338C140.625 65.6433 140.773 65.7047 140.928 65.7047C141.083 65.7047 141.231 65.6433 141.34 65.5338C141.45 65.4244 141.511 65.276 141.511 65.1212ZM162.122 65.4669C162.122 65.3967 162.108 65.3272 162.081 65.2624C162.054 65.1976 162.015 65.1386 161.965 65.089C161.916 65.0394 161.857 65 161.792 64.9732C161.727 64.9463 161.658 64.9325 161.587 64.9325C161.517 64.9325 161.448 64.9463 161.383 64.9732C161.318 65 161.259 65.0394 161.21 65.089C161.16 65.1386 161.121 65.1976 161.094 65.2624C161.067 65.3272 161.053 65.3967 161.053 65.4669C161.053 65.6087 161.109 65.7446 161.21 65.8448C161.31 65.9451 161.446 66.0014 161.587 66.0014C161.729 66.0014 161.865 65.9451 161.965 65.8448C162.066 65.7446 162.122 65.6087 162.122 65.4669ZM163.738 68.1907C163.738 68.0385 163.677 67.8926 163.57 67.785C163.462 67.6774 163.316 67.617 163.164 67.617C163.012 67.617 162.866 67.6774 162.758 67.785C162.651 67.8926 162.59 68.0385 162.59 68.1907C162.59 68.3428 162.651 68.4887 162.758 68.5963C162.866 68.7039 163.012 68.7643 163.164 68.7643C163.316 68.7643 163.462 68.7039 163.57 68.5963C163.677 68.4887 163.738 68.3428 163.738 68.1907ZM141.308 68.247C141.308 68.1778 141.294 68.1093 141.268 68.0453C141.241 67.9814 141.202 67.9233 141.153 67.8743C141.104 67.8254 141.046 67.7866 140.982 67.7601C140.918 67.7336 140.85 67.7199 140.781 67.7199C140.711 67.7199 140.643 67.7336 140.579 67.7601C140.515 67.7866 140.457 67.8254 140.408 67.8743C140.359 67.9233 140.32 67.9814 140.294 68.0453C140.267 68.1093 140.254 68.1778 140.254 68.247C140.254 68.3163 140.267 68.3848 140.294 68.4487C140.32 68.5127 140.359 68.5708 140.408 68.6197C140.457 68.6687 140.515 68.7075 140.579 68.734C140.643 68.7605 140.711 68.7741 140.781 68.7741C140.92 68.7741 141.055 68.7186 141.153 68.6197C141.252 68.5209 141.308 68.3868 141.308 68.247Z" fill="white"/>
  <path d="M85.5363 45.1529C86.3674 44.7337 87.2549 44.4468 88.1595 44.2385C88.5076 44.1576 88.6744 44.2458 88.9367 44.4468C88.9956 44.4913 89.0679 44.5154 89.1426 44.5155C90.2753 44.5204 91.5329 44.1992 92.1066 45.4716C92.1491 45.568 92.1189 45.6056 92.0159 45.5844C89.6052 45.1006 87.3832 45.5043 85.35 46.7955C84.9136 47.0725 84.5189 47.1215 84.3105 46.5797C84.2968 46.5451 84.2956 46.5066 84.3073 46.4708C84.3189 46.4351 84.3425 46.4043 84.3742 46.3836C84.764 46.136 85.5093 45.9031 85.4358 45.3417C85.4243 45.2551 85.4579 45.1921 85.5363 45.1529Z" fill="white"/>
  <path d="M90.3487 47.0848L92.1261 47.3814C92.2258 47.3978 92.2708 47.4574 92.261 47.5604L92.2438 47.732C92.2419 47.751 92.236 47.7693 92.2263 47.7858C92.2167 47.8022 92.2037 47.8164 92.1881 47.8273C92.1725 47.8382 92.1547 47.8457 92.136 47.8491C92.1173 47.8526 92.098 47.8519 92.0795 47.8472C89.1654 47.1314 86.7734 47.9004 84.9037 50.1542C84.8678 50.1973 84.8167 50.2248 84.761 50.2312C84.7053 50.2376 84.6493 50.2223 84.6046 50.1885C84.5294 50.1313 84.5041 50.0496 84.5286 49.9434C84.5433 49.8796 84.585 49.8151 84.6536 49.7497C84.853 49.5617 85.0181 49.3869 85.1488 49.2251C85.1734 49.1942 85.1906 49.1581 85.1991 49.1197C85.2076 49.0812 85.2072 49.0414 85.198 49.0032C85.1888 48.9651 85.1709 48.9297 85.1458 48.8997C85.1207 48.8697 85.089 48.846 85.0532 48.8303L84.4183 48.5509C84.281 48.4888 84.2671 48.407 84.3766 48.3057C86.0666 46.7334 88.0753 45.9481 90.4026 45.9497C90.4381 45.9503 90.4729 45.9599 90.5036 45.9776C90.5343 45.9953 90.5599 46.0206 90.5779 46.051C90.5959 46.0813 90.6057 46.1157 90.6064 46.1508C90.607 46.1859 90.5985 46.2205 90.5816 46.2513L90.2433 46.8691C90.232 46.8897 90.2258 46.9127 90.2253 46.9363C90.2248 46.9598 90.2299 46.9831 90.2402 47.0042C90.2505 47.0253 90.2658 47.0437 90.2846 47.0577C90.3035 47.0717 90.3255 47.081 90.3487 47.0848Z" fill="white"/>
  <path d="M77.4066 64.8099C77.4198 64.8204 77.4361 64.8262 77.4529 64.8264C77.4697 64.8267 77.4861 64.8213 77.4996 64.8112C77.513 64.8012 77.5228 64.7869 77.5272 64.7706C77.5317 64.7544 77.5307 64.7372 77.5243 64.7216L76.1146 61.5051C76.0997 61.4705 76.0739 61.4415 76.0413 61.4225C76.0086 61.4036 75.9708 61.3956 75.9332 61.3997L73.7488 61.6326C73.729 61.6353 73.7106 61.6447 73.6968 61.6592C73.683 61.6737 73.6745 61.6925 73.6728 61.7125C73.6711 61.7325 73.6762 61.7525 73.6874 61.7691C73.6985 61.7858 73.715 61.7982 73.7341 61.8042L75.59 62.2921C75.6074 62.2972 75.6226 62.3084 75.6327 62.3237C75.6429 62.339 75.6473 62.3573 75.6452 62.3752C75.6432 62.3931 75.6347 62.4095 75.6214 62.4212C75.608 62.433 75.5908 62.4394 75.5728 62.4392L72.8148 62.4686C72.7732 62.4691 72.7329 62.4547 72.7013 62.4281C72.6698 62.4015 72.6491 62.3645 72.6432 62.324L72.1234 59.0315C72.1142 58.9766 72.1227 58.9201 72.1478 58.87C72.1729 58.8198 72.2132 58.7785 72.2632 58.752C73.2503 58.2224 74.3021 57.8988 75.4184 57.7811C75.4584 57.7762 75.4951 57.7565 75.521 57.726C75.547 57.6955 75.5602 57.6565 75.5581 57.6169L75.5091 56.548C75.5058 56.4515 75.456 56.4099 75.3595 56.4229C74.4312 56.539 73.605 56.731 72.881 56.9991C68.4877 58.622 64.0952 60.1821 59.7036 61.6792C59.6333 61.7029 59.5585 61.7103 59.4851 61.701C59.4116 61.6916 59.3413 61.6657 59.2795 61.6252L45.9109 52.8583C45.8896 52.8445 45.8722 52.8254 45.8607 52.8029C45.8491 52.7803 45.8437 52.7551 45.8449 52.7297C45.8461 52.7044 45.854 52.6799 45.8677 52.6585C45.8815 52.6372 45.9006 52.6199 45.9231 52.6082C48.3829 51.3236 50.8606 50.0267 53.3564 48.7175C55.3446 47.6756 57.9654 47.835 60.0811 48.3621C64.8495 49.5486 69.358 51.5982 73.8837 53.4712C73.9036 53.4793 73.9252 53.4824 73.9466 53.4801C73.9679 53.4778 73.9884 53.4702 74.0062 53.4581C74.0239 53.4459 74.0383 53.4296 74.0482 53.4105C74.0581 53.3914 74.063 53.3701 74.0626 53.3486L73.9695 49.833C73.9689 49.8144 73.9728 49.796 73.9809 49.7792C73.989 49.7625 74.0011 49.748 74.016 49.7369C74.0309 49.7258 74.0483 49.7185 74.0667 49.7156C74.0851 49.7127 74.1039 49.7143 74.1215 49.7203L75.3644 50.1542C75.4364 50.1803 75.478 50.2302 75.4895 50.3037L75.9724 53.6061C75.9782 53.6452 75.9955 53.6818 76.0221 53.711C76.0487 53.7403 76.0835 53.7609 76.122 53.7703L78.4388 54.3219C78.4788 54.3316 78.5207 54.3312 78.5606 54.3208C78.6005 54.3104 78.6373 54.2903 78.6678 54.2623C78.6982 54.2342 78.7214 54.1991 78.7354 54.1599C78.7493 54.1207 78.7535 54.0787 78.7477 54.0375L78.603 53.0373C78.5883 52.9359 78.6308 52.873 78.7305 52.8485C78.7714 52.8387 78.8073 52.8477 78.8384 52.8755C78.8612 52.8951 78.8751 52.9261 78.88 52.9686C78.934 53.4949 78.9585 54.0236 78.9536 54.5548C78.952 54.6398 78.9258 54.7158 78.8751 54.7828C78.5613 55.2012 78.4894 55.6711 78.6594 56.1925C78.6855 56.2742 78.7403 56.3232 78.8237 56.3396L79.4071 56.4622C79.7308 56.5292 79.8803 56.3984 79.8558 56.0699L79.6474 53.2922C79.6467 53.2808 79.6484 53.2693 79.6523 53.2585C79.6563 53.2478 79.6624 53.238 79.6703 53.2299C79.6782 53.2218 79.6876 53.2155 79.6981 53.2115C79.7085 53.2074 79.7196 53.2057 79.7308 53.2064C79.7585 53.2081 79.7863 53.2089 79.8141 53.2089C79.8435 53.2105 79.8599 53.2252 79.8631 53.253C79.9882 54.5573 80.0372 55.8615 80.2456 57.156C80.3142 57.5809 80.351 58.0091 80.3559 58.4406C80.3559 58.5289 80.3388 58.5951 80.3044 58.6392C80.2815 58.6719 80.2538 58.6956 80.2211 58.7103C80.2066 58.717 80.1906 58.7196 80.1747 58.7177C80.1589 58.7158 80.1439 58.7096 80.1314 58.6996C80.119 58.6897 80.1095 58.6765 80.1041 58.6615C80.0987 58.6465 80.0976 58.6303 80.1009 58.6147L80.1524 58.3499C80.172 58.2551 80.1541 58.1685 80.0985 58.09C78.1446 55.3271 74.2367 58.5215 76.4701 60.9363C77.2007 61.7274 78.1527 61.8786 79.3262 61.3899C79.4145 61.3523 79.4701 61.3801 79.4929 61.4733C79.7757 62.6386 80.0503 63.7876 80.3167 64.9202C80.3477 65.051 80.2971 65.1278 80.1647 65.1507C80.1266 65.1565 80.0877 65.1486 80.0552 65.1283C80.0227 65.108 79.9989 65.0768 79.9882 65.0403L79.1179 62.0028C79.1049 61.9597 79.0771 61.9225 79.0395 61.8978C79.0018 61.8732 78.9566 61.8626 78.9119 61.868L77.8651 62.0077C77.8424 62.0107 77.8205 62.0182 77.8009 62.0299C77.7812 62.0415 77.7642 62.057 77.7508 62.0754C77.7375 62.0938 77.7281 62.1147 77.7233 62.1368C77.7185 62.1589 77.7184 62.1817 77.7229 62.2038L78.4608 66.0553C78.465 66.0767 78.4647 66.0988 78.46 66.1202C78.4553 66.1415 78.4462 66.1617 78.4334 66.1796C78.4206 66.1975 78.4042 66.2126 78.3854 66.2241C78.3665 66.2356 78.3454 66.2432 78.3235 66.2465L77.1075 66.4304C77.0665 66.4367 77.0246 66.4277 76.9898 66.4051C76.955 66.3825 76.9297 66.3478 76.9188 66.3078L76.3941 64.4397C76.3834 64.4002 76.3855 64.3583 76.4001 64.32C76.4148 64.2818 76.4411 64.2491 76.4754 64.2268C76.5098 64.2045 76.5503 64.1936 76.5912 64.1957C76.632 64.1978 76.6712 64.2129 76.703 64.2387L77.4066 64.8099Z" fill="white"/>
  <path d="M87.0561 50.8505L86.4506 50.4852C86.3411 50.4182 86.3264 50.3349 86.4065 50.2352C87.7467 48.5403 89.4889 47.9462 91.6333 48.4529C91.7395 48.479 91.827 48.5289 91.8956 48.6024C91.91 48.6186 91.9189 48.6389 91.9211 48.6605C91.9232 48.682 91.9186 48.7037 91.9077 48.7224C91.8968 48.7412 91.8803 48.756 91.8606 48.7648C91.8408 48.7736 91.8187 48.776 91.7975 48.7716L90.2923 48.4382C90.2416 48.4271 90.1886 48.4363 90.1446 48.4638C90.1006 48.4912 90.0692 48.5349 90.0569 48.5852C89.927 49.1099 90.1966 49.2791 90.6747 49.3747C91.3039 49.4989 91.8801 49.7489 92.4031 50.1249C92.4864 50.1853 92.5044 50.2613 92.457 50.3529L92.4031 50.4558C92.3606 50.5392 92.3009 50.5547 92.2241 50.5024C91.5083 50.0194 90.6698 49.6198 89.7872 49.7841C88.3604 50.0505 87.4664 50.9658 87.1052 52.5299C87.0989 52.5567 87.0855 52.5813 87.0664 52.6013C87.0474 52.6212 87.0234 52.6356 86.9969 52.6431C86.9704 52.6506 86.9423 52.6509 86.9157 52.6439C86.889 52.6369 86.8647 52.623 86.8453 52.6034C86.7897 52.5479 86.7709 52.4661 86.7889 52.3583C86.8674 51.9186 86.9867 51.51 87.1468 51.1325C87.1684 51.0821 87.1711 51.0257 87.1544 50.9738C87.1377 50.9219 87.1028 50.8781 87.0561 50.8505Z" fill="white"/>
  <path d="M174.692 63.9396C174.711 63.8987 174.715 63.8562 174.704 63.8121C173.377 58.6163 171.1 54.299 167.874 50.8602C166.829 49.7456 166.885 49.6867 168.04 50.6837C172.865 54.8449 175.8 60.2621 176.844 66.9354C176.913 67.3767 176.95 68.0648 176.957 68.9997C176.957 69.083 176.915 69.1247 176.832 69.1247L174.851 69.1296C174.75 69.1312 174.696 69.0806 174.689 68.9776C174.447 65.1351 173.334 61.5738 171.35 58.2935C171.003 57.7198 171.039 57.6953 171.455 58.22C172.835 59.9508 173.896 61.8565 174.638 63.9371C174.652 63.9812 174.67 63.9821 174.692 63.9396Z" fill="white"/>
  <path d="M91.0278 51.0736C89.3313 50.37 88.2477 51.5492 88.1717 53.2335C88.1709 53.282 88.152 53.3283 88.1186 53.3632C88.0853 53.3981 88.0399 53.4191 87.9914 53.4222C87.9429 53.4253 87.8948 53.4101 87.8565 53.3798C87.8182 53.3494 87.7925 53.306 87.7843 53.258C87.6618 52.5879 87.8415 51.957 88.3237 51.3654C89.0804 50.4354 90.1346 50.2123 91.4863 50.6961C91.5268 50.7101 91.5621 50.7363 91.5874 50.7709C91.6127 50.8056 91.6269 50.8471 91.6279 50.89C91.629 50.9329 91.617 50.9751 91.5934 51.011C91.5698 51.0469 91.5359 51.0747 91.4961 51.0908C91.3522 51.1496 91.1962 51.1439 91.0278 51.0736Z" fill="white"/>
  <path d="M40.5126 54.0106L38.4557 57.0113C38.3969 57.098 38.3242 57.111 38.2376 57.0506L37.5609 56.5749C37.4808 56.5177 37.462 56.445 37.5045 56.3568C38.3658 54.5605 39.4633 52.9237 40.797 51.4462C40.864 51.371 40.94 51.3612 41.025 51.4168L68.2011 68.9923C68.2136 69.0008 68.2231 69.0131 68.2282 69.0274C68.2332 69.0417 68.2336 69.0572 68.2292 69.0717C68.2248 69.0862 68.216 69.0989 68.2038 69.108C68.1917 69.1171 68.177 69.1221 68.1618 69.1223C66.4163 69.119 64.6626 69.1116 62.9007 69.1002C62.5607 69.0986 62.2445 69.0111 61.9519 68.8379C54.6674 64.5639 47.3886 60.2834 40.1155 55.9964C40.0828 55.9767 40.058 55.9463 40.0451 55.9101C40.0321 55.874 40.0319 55.8344 40.0444 55.7978L40.645 54.0768C40.6538 54.0592 40.6552 54.0389 40.649 54.0203C40.6428 54.0016 40.6295 53.9862 40.6119 53.9775C40.5944 53.9687 40.5741 53.9673 40.5554 53.9735C40.5368 53.9797 40.5214 53.993 40.5126 54.0106Z" fill="white"/>
  <path d="M93.3642 54.8295L93.83 54.9962C93.8631 55.0086 93.8997 55.0085 93.933 54.9959C93.9663 54.9833 93.9942 54.959 94.0115 54.9275C94.595 53.8636 94.7159 52.7489 94.3743 51.5836C94.3712 51.5731 94.3706 51.562 94.3726 51.5512C94.3746 51.5405 94.3792 51.5304 94.3859 51.5217C94.3926 51.5131 94.4013 51.5062 94.4112 51.5016C94.4211 51.497 94.432 51.4948 94.4429 51.4953C94.4691 51.4969 94.4953 51.4986 94.5214 51.5002C94.577 51.5018 94.6113 51.5296 94.6244 51.5836C94.8973 52.7146 94.8197 53.8121 94.3915 54.8761C94.3604 54.9512 94.3097 55.0093 94.2395 55.0501C93.9878 55.1923 93.8194 55.319 93.7344 55.4301C92.981 56.4206 92.0126 57.0098 90.8293 57.1977C90.1355 57.3081 89.3975 57.1168 88.6253 57.0678C88.2984 57.0482 88.0238 56.9673 87.8016 56.8251C86.7817 56.1697 86.0985 55.2414 85.752 54.0401C85.7463 54.0181 85.7488 53.9949 85.759 53.9746C85.7693 53.9544 85.7865 53.9386 85.8076 53.9302C85.8286 53.9217 85.852 53.9213 85.8734 53.9289C85.8948 53.9365 85.9126 53.9516 85.9236 53.9714C86.6248 55.3394 87.0416 56.2857 88.564 56.906C88.6045 56.9218 88.6492 56.9234 88.691 56.9105C88.7328 56.8976 88.7693 56.871 88.7945 56.8349L89.0911 56.3961C89.1159 56.3597 89.1509 56.3313 89.1918 56.3143C89.2327 56.2973 89.2778 56.2925 89.3215 56.3004C90.853 56.5865 92.0861 56.1378 93.021 54.9545C93.0864 54.8728 93.0978 54.7845 93.0553 54.6897L92.9426 54.4372C92.9099 54.362 92.914 54.2893 92.9548 54.219C93.3454 53.5489 93.4239 52.8404 93.1902 52.0935C93.1756 52.0474 93.1754 51.9981 93.1894 51.9521C93.2034 51.9061 93.231 51.8657 93.2686 51.8361C93.4206 51.7184 93.5154 51.7511 93.553 51.9341C93.7524 52.8707 93.6601 53.7671 93.276 54.6236C93.2319 54.7232 93.2613 54.7919 93.3642 54.8295Z" fill="white"/>
  <path d="M92.4499 53.6282C92.6297 53.133 92.6525 52.6312 92.5185 52.1229C92.5149 52.1086 92.5143 52.0936 92.5169 52.0791C92.5196 52.0646 92.5253 52.0508 92.5337 52.0389C92.5422 52.027 92.5531 52.0171 92.5657 52.01C92.5783 52.0029 92.5924 51.9988 92.6068 51.9979C92.6329 51.9946 92.6583 51.9913 92.6828 51.9881C92.723 51.9815 92.7641 51.9905 92.7979 52.0133C92.8316 52.0361 92.8553 52.0709 92.8642 52.1107C93.0227 52.802 92.9574 53.4754 92.6681 54.1308C92.6554 54.1601 92.6336 54.1843 92.6058 54.1999C92.5781 54.2154 92.5459 54.2214 92.5142 54.217C92.4824 54.2126 92.4528 54.198 92.4297 54.1754C92.4066 54.1527 92.3913 54.1233 92.3861 54.0916C92.3649 53.9559 92.3861 53.8014 92.4499 53.6282Z" fill="white"/>
  <path d="M88.5467 53.7582C88.5222 53.7321 88.5031 53.7015 88.4905 53.668C88.4778 53.6345 88.4719 53.5989 88.473 53.5632C88.4742 53.5274 88.4824 53.4922 88.4971 53.4597C88.5118 53.4271 88.5329 53.3977 88.559 53.3733L88.5859 53.3463C88.7794 53.1638 89.0138 53.0407 89.2377 53.0039C89.4616 52.9671 89.6566 53.0197 89.7799 53.1502L89.7946 53.1649C89.917 53.2958 89.9576 53.4934 89.9075 53.7145C89.8574 53.9356 89.7207 54.162 89.5273 54.3441L89.5004 54.3711C89.4745 54.3957 89.444 54.415 89.4106 54.4278C89.3772 54.4407 89.3416 54.4468 89.3059 54.4459C89.2701 54.445 89.2349 54.4371 89.2023 54.4225C89.1696 54.408 89.1401 54.3872 89.1155 54.3613L88.5467 53.7582Z" fill="white"/>
  <path d="M90.17 53.8954C90.1994 53.7009 90.2754 53.5342 90.398 53.3952C90.423 53.3669 90.456 53.3468 90.4927 53.3377C90.5294 53.3285 90.5679 53.3308 90.6033 53.3441C90.6387 53.3574 90.6692 53.3811 90.6907 53.4121C90.7123 53.4432 90.7239 53.48 90.7241 53.5178L90.729 54.4372C90.729 54.5418 90.6807 54.6161 90.5843 54.6603C90.3571 54.7649 90.1381 54.7608 89.9273 54.648C89.8374 54.6006 89.8194 54.5344 89.8734 54.4494L90.0965 54.0988C90.1357 54.0367 90.1602 53.9689 90.17 53.8954Z" fill="white"/>
  <path d="M89.1573 55.3492C89.3518 55.426 89.5136 55.5159 89.6427 55.6188C89.6653 55.6366 89.6813 55.6614 89.6883 55.6893C89.6953 55.7171 89.6929 55.7465 89.6814 55.7729C89.6699 55.7992 89.65 55.821 89.6248 55.8348C89.5996 55.8487 89.5706 55.8538 89.5422 55.8493C88.7217 55.7284 88.0998 55.3099 87.6765 54.5941C87.6592 54.5622 87.6543 54.5251 87.6627 54.4899C87.6711 54.4546 87.6922 54.4237 87.7219 54.4031C87.7517 54.3824 87.788 54.3735 87.824 54.378C87.8599 54.3824 87.893 54.4 87.9168 54.4274C88.2485 54.849 88.662 55.1563 89.1573 55.3492Z" fill="white"/>
  <path d="M19.8431 67.7347L19.9853 68.6786C20 68.7832 19.9551 68.8339 19.8505 68.8306L19.1322 68.8159C19.0292 68.8126 18.9744 68.7595 18.9679 68.6565L18.9507 68.3917C18.9458 68.2995 18.9077 68.2121 18.8434 68.1455C18.7792 68.0789 18.6931 68.0378 18.6012 68.0297C18.5093 68.0216 18.4178 68.0471 18.3437 68.1015C18.2696 68.1559 18.2179 68.2355 18.1981 68.3256C18.1769 68.4171 18.1711 68.5119 18.1809 68.6099C18.1936 68.6997 18.1701 68.7908 18.1156 68.8632C18.0612 68.9356 17.9802 68.9834 17.8904 68.9961C17.8007 69.0087 17.7096 68.9853 17.6372 68.9308C17.5648 68.8763 17.517 68.7953 17.5043 68.7056C15.7514 59.0904 26.9307 52.5274 34.4277 58.7398C34.4943 58.7954 34.5762 58.8296 34.6628 58.8379C34.7494 58.8462 34.8366 58.8283 34.9131 58.7864L37.2324 57.5115C37.2554 57.4987 37.2814 57.4924 37.3078 57.4931C37.3341 57.4938 37.3598 57.5016 37.3821 57.5156C37.4043 57.5297 37.4225 57.5494 37.4345 57.5729C37.4466 57.5963 37.4521 57.6225 37.4506 57.6488L37.3598 59.4802C37.3554 59.5588 37.3739 59.637 37.4131 59.7053C37.4523 59.7736 37.5104 59.8291 37.5805 59.8651L48.3627 65.4081C48.3997 65.4274 48.4306 65.4563 48.4523 65.4918C48.4739 65.5272 48.4853 65.5679 48.4852 65.6092L48.4632 68.8968C48.463 68.9568 48.4419 69.015 48.4033 69.0611C48.3648 69.1072 48.3114 69.1384 48.2523 69.1493C48.0644 69.1852 47.9818 69.0945 48.0047 68.8772C48.1093 67.8818 48.1567 66.8946 48.1469 65.9156C48.1465 65.8977 48.142 65.8802 48.1338 65.8643C48.1255 65.8485 48.1138 65.8348 48.0996 65.8243C48.0853 65.8138 48.0688 65.8069 48.0515 65.804C48.0342 65.8011 48.0165 65.8024 47.9998 65.8078L38.3969 68.6737C38.3168 68.6982 38.2457 68.7382 38.1836 68.7938C37.8845 69.0667 37.502 69.1534 37.0362 69.0537C34.9989 68.6173 32.7508 68.9581 30.6253 68.8796C29.7607 68.8469 28.883 68.8477 27.9923 68.8821C26.4281 68.9433 24.8542 68.7742 23.3416 68.86C22.6698 68.8992 21.9973 68.9352 21.3239 68.9679C21.2507 68.9713 21.1788 68.9477 21.1219 68.9016C21.065 68.8555 21.0269 68.7901 21.015 68.7178L20.8385 67.7225C20.831 67.6799 20.8089 67.6413 20.7762 67.6135C20.7435 67.5857 20.7022 67.5705 20.6595 67.5705H19.9853C19.9645 67.5706 19.944 67.5752 19.9251 67.5838C19.9063 67.5925 19.8895 67.6051 19.876 67.6206C19.8625 67.6362 19.8526 67.6545 19.8469 67.6742C19.8412 67.6939 19.84 67.7145 19.8431 67.7347ZM29.8457 57.5581C29.8457 57.4956 29.8334 57.4338 29.8095 57.3761C29.7856 57.3184 29.7505 57.266 29.7064 57.2218C29.6622 57.1776 29.6098 57.1426 29.5521 57.1187C29.4944 57.0948 29.4325 57.0825 29.3701 57.0825C29.3076 57.0825 29.2458 57.0948 29.1881 57.1187C29.1304 57.1426 29.0779 57.1776 29.0338 57.2218C28.9896 57.266 28.9546 57.3184 28.9307 57.3761C28.9068 57.4338 28.8945 57.4956 28.8945 57.5581C28.8945 57.6842 28.9446 57.8052 29.0338 57.8944C29.123 57.9836 29.2439 58.0337 29.3701 58.0337C29.4962 58.0337 29.6172 57.9836 29.7064 57.8944C29.7956 57.8052 29.8457 57.6842 29.8457 57.5581ZM26.7174 58.1318C26.7174 58.0167 26.6717 57.9063 26.5903 57.8249C26.509 57.7436 26.3986 57.6978 26.2835 57.6978C26.1684 57.6978 26.058 57.7436 25.9767 57.8249C25.8953 57.9063 25.8496 58.0167 25.8496 58.1318C25.8496 58.1888 25.8608 58.2452 25.8826 58.2978C25.9044 58.3505 25.9364 58.3983 25.9767 58.4386C26.0169 58.4789 26.0648 58.5109 26.1174 58.5327C26.1701 58.5545 26.2265 58.5657 26.2835 58.5657C26.3986 58.5657 26.509 58.52 26.5903 58.4386C26.6717 58.3572 26.7174 58.2469 26.7174 58.1318ZM23.5769 58.6442C23.5769 58.5193 23.5273 58.3996 23.4391 58.3113C23.3508 58.223 23.2311 58.1735 23.1062 58.1735C22.9814 58.1735 22.8616 58.223 22.7734 58.3113C22.6851 58.3996 22.6355 58.5193 22.6355 58.6442C22.6355 58.769 22.6851 58.8887 22.7734 58.977C22.8616 59.0653 22.9814 59.1149 23.1062 59.1149C23.2311 59.1149 23.3508 59.0653 23.4391 58.977C23.5273 58.8887 23.5769 58.769 23.5769 58.6442ZM32.0399 60.0342C30.9268 59.3478 29.719 58.9335 28.4164 58.7913C28.3973 58.7892 28.3779 58.7912 28.3597 58.7971C28.3414 58.8031 28.3246 58.813 28.3105 58.826C28.2963 58.839 28.2851 58.8548 28.2775 58.8725C28.27 58.8902 28.2664 58.9093 28.2668 58.9285L28.2816 59.6346C28.2824 59.67 28.2958 59.7038 28.3192 59.7299C28.3426 59.756 28.3745 59.7727 28.409 59.7768C29.3815 59.901 30.2992 60.1944 31.1622 60.6569C31.2308 60.6945 31.3003 60.697 31.3706 60.6643L32.0178 60.3799C32.2433 60.2802 32.2507 60.165 32.0399 60.0342ZM32.616 59.1884C32.616 59.0733 32.5703 58.963 32.4889 58.8816C32.4075 58.8002 32.2971 58.7545 32.1821 58.7545C32.067 58.7545 31.9566 58.8002 31.8752 58.8816C31.7938 58.963 31.7481 59.0733 31.7481 59.1884C31.7481 59.3035 31.7938 59.4139 31.8752 59.4953C31.9566 59.5766 32.067 59.6224 32.1821 59.6224C32.2971 59.6224 32.4075 59.5766 32.4889 59.4953C32.5703 59.4139 32.616 59.3035 32.616 59.1884ZM23.3734 61.3409C24.3786 60.4559 25.4794 60.071 26.7934 59.8234C26.8751 59.807 26.916 59.7572 26.916 59.6738V59.0021C26.916 58.891 26.8604 58.8427 26.7493 58.8574C25.2391 59.0748 23.8817 59.6518 22.6772 60.5883C22.602 60.6471 22.5799 60.7223 22.611 60.8138C22.7009 61.0835 22.8798 61.2723 23.1479 61.3802C23.2312 61.4128 23.3064 61.3998 23.3734 61.3409ZM21.9442 60.4431C21.9438 60.4125 21.9373 60.3823 21.9252 60.3542C21.9131 60.3261 21.8956 60.3006 21.8737 60.2793C21.8518 60.258 21.8259 60.2412 21.7974 60.2299C21.769 60.2186 21.7386 60.213 21.7081 60.2134L21.3845 60.2179C21.3227 60.2188 21.2638 60.2442 21.2208 60.2884C21.1777 60.3327 21.154 60.3923 21.1549 60.4541L21.1596 60.7924C21.16 60.8229 21.1665 60.8531 21.1786 60.8812C21.1907 60.9093 21.2082 60.9348 21.2301 60.9561C21.252 60.9774 21.2779 60.9942 21.3064 61.0055C21.3348 61.0168 21.3651 61.0224 21.3957 61.022L21.7193 61.0175C21.7811 61.0166 21.8399 60.9912 21.883 60.947C21.9261 60.9027 21.9498 60.8431 21.9489 60.7813L21.9442 60.4431ZM30.3973 61.0418C26.3987 59.3404 22.3756 61.6694 21.498 65.8372C21.4931 65.861 21.4951 65.8858 21.5038 65.9085C21.5126 65.9312 21.5276 65.951 21.5472 65.9654C21.5668 65.9798 21.5901 65.9884 21.6144 65.99C21.6387 65.9916 21.663 65.9862 21.6843 65.9745L30.4071 61.2282C30.4244 61.2189 30.4387 61.205 30.4483 61.1879C30.458 61.1709 30.4625 61.1514 30.4615 61.1319C30.4605 61.1123 30.4539 61.0935 30.4425 61.0775C30.4311 61.0616 30.4154 61.0492 30.3973 61.0418ZM20.7772 66.0995C20.9586 64.7364 21.3656 63.7067 22.1574 62.5741C22.1858 62.533 22.1993 62.4835 22.1957 62.434C22.1922 62.3845 22.1717 62.3379 22.1378 62.302L21.7014 61.8386C21.6246 61.7569 21.5519 61.7601 21.4833 61.8484C20.5042 63.102 19.9461 64.5256 19.8088 66.1191C19.7974 66.2417 19.8529 66.3005 19.9755 66.2956L20.5884 66.2711C20.6996 66.2662 20.7625 66.209 20.7772 66.0995ZM19.6985 62.883C19.6985 62.8225 19.6866 62.7625 19.6634 62.7066C19.6402 62.6507 19.6063 62.5999 19.5635 62.5571C19.5207 62.5143 19.4699 62.4803 19.414 62.4572C19.358 62.434 19.2981 62.4221 19.2376 62.4221C19.1771 62.4221 19.1171 62.434 19.0612 62.4572C19.0053 62.4803 18.9545 62.5143 18.9117 62.5571C18.8689 62.5999 18.8349 62.6507 18.8118 62.7066C18.7886 62.7625 18.7767 62.8225 18.7767 62.883C18.7767 63.0052 18.8252 63.1225 18.9117 63.2089C18.9981 63.2953 19.1153 63.3439 19.2376 63.3439C19.3598 63.3439 19.4771 63.2953 19.5635 63.2089C19.6499 63.1225 19.6985 63.0052 19.6985 62.883ZM19.048 65.8428C19.155 65.8573 19.2641 65.8228 19.3514 65.7469C19.4386 65.671 19.4969 65.5599 19.5134 65.4382C19.5215 65.3779 19.5192 65.3167 19.5064 65.2583C19.4937 65.1998 19.4708 65.1452 19.4392 65.0975C19.4075 65.0498 19.3676 65.01 19.3218 64.9803C19.276 64.9506 19.2251 64.9316 19.1722 64.9244C19.0652 64.91 18.9561 64.9445 18.8688 65.0204C18.7815 65.0963 18.7233 65.2073 18.7068 65.3291C18.6987 65.3894 18.701 65.4505 18.7137 65.509C18.7265 65.5674 18.7493 65.6221 18.781 65.6698C18.8127 65.7175 18.8526 65.7573 18.8984 65.787C18.9442 65.8167 18.9951 65.8356 19.048 65.8428Z" fill="white"/>
  <path d="M140.747 56.3714C136.799 59.2178 134.09 64.0376 133.659 68.8722C133.654 68.9326 133.634 68.9909 133.601 69.0419C133.568 69.0929 133.523 69.1351 133.47 69.1648C133.417 69.1946 133.358 69.2109 133.297 69.2124C133.237 69.214 133.176 69.2007 133.122 69.1737C132.905 69.0658 132.827 68.8893 132.889 68.6442C132.923 68.5085 132.941 68.435 132.943 68.4235C133.824 63.3291 136.37 59.3093 140.582 56.3641C140.608 56.3466 140.639 56.3388 140.671 56.342C140.693 56.3453 140.717 56.3477 140.742 56.3494C140.744 56.3498 140.746 56.3509 140.748 56.3526C140.75 56.3543 140.751 56.3564 140.751 56.3588C140.752 56.3611 140.752 56.3636 140.751 56.3658C140.75 56.3681 140.748 56.37 140.747 56.3714Z" fill="white"/>
  <path d="M88.591 62.0469C92.5258 62.7407 96.034 60.7451 97.6129 57.1829C97.6224 57.1603 97.6385 57.141 97.6592 57.1276C97.6798 57.1142 97.704 57.1073 97.7286 57.1078C97.7531 57.1083 97.777 57.1163 97.797 57.1305C97.8171 57.1448 97.8323 57.1648 97.8409 57.1878C97.988 57.5605 97.9512 57.938 97.7306 58.3205C95.8404 61.5909 92.1017 63.3561 88.3679 62.6133C88.3463 62.6094 88.326 62.6005 88.3084 62.5875C88.2908 62.5745 88.2764 62.5575 88.2662 62.5379C88.2561 62.5183 88.2505 62.4966 88.2498 62.4744C88.2492 62.4522 88.2535 62.4301 88.2625 62.4098L88.3752 62.1621C88.3927 62.1216 88.4235 62.0882 88.4626 62.0673C88.5018 62.0464 88.547 62.0392 88.591 62.0469Z" fill="white"/>
  <path d="M79.1375 57.7272C79.0754 57.7566 79.0272 57.7255 78.9929 57.634C78.952 57.5294 78.9847 57.4943 79.0909 57.5286C79.274 57.5874 79.4252 57.6912 79.5445 57.8399C79.5554 57.8515 79.5618 57.8665 79.5625 57.8824C79.5632 57.8982 79.5582 57.9138 79.5484 57.9263C79.5386 57.9388 79.5246 57.9473 79.5091 57.9504C79.4935 57.9534 79.4773 57.9508 79.4636 57.9429C79.3426 57.8857 79.2339 57.8138 79.1375 57.7272Z" fill="white"/>
  <path d="M76.914 58.3278C77.0807 58.2739 77.2343 58.1946 77.3749 58.09C78.1349 57.5286 79.0395 57.8277 79.5691 58.5338C79.6165 58.5975 79.6157 58.6621 79.5666 58.7275L79.4857 58.8353C79.4729 58.8521 79.4564 58.8657 79.4375 58.875C79.4186 58.8844 79.3977 58.8893 79.3766 58.8893C79.3555 58.8893 79.3347 58.8844 79.3158 58.875C79.2969 58.8657 79.2804 58.8521 79.2675 58.8353C78.6154 57.9691 77.9322 57.9201 77.218 58.6882C77.1951 58.7132 77.1644 58.7295 77.1309 58.7344C77.0974 58.7393 77.0632 58.7326 77.0341 58.7152L76.5315 58.4038C76.4613 58.3614 76.4572 58.3115 76.5193 58.2543L76.5781 58.2028C76.6598 58.1293 76.7301 58.1391 76.789 58.2322C76.8053 58.2567 76.8208 58.2796 76.8355 58.3009C76.8552 58.3303 76.8813 58.3393 76.914 58.3278Z" fill="white"/>
  <path d="M77.9143 58.5951C77.9999 58.5195 78.1119 58.481 78.2259 58.4878C78.3399 58.4947 78.4464 58.5465 78.5223 58.6318L78.8165 58.9603C78.9004 59.0548 78.9695 59.1607 79.0197 59.2722C79.0699 59.3837 79.1003 59.4985 79.1092 59.6101C79.1181 59.7217 79.1053 59.8278 79.0714 59.9224C79.0376 60.0171 78.9835 60.0984 78.9121 60.1616L78.6155 60.424C78.5443 60.4875 78.4573 60.5319 78.3594 60.5544C78.2614 60.577 78.1545 60.5774 78.0448 60.5555C77.935 60.5337 77.8246 60.49 77.7197 60.427C77.6149 60.3641 77.5177 60.2831 77.4338 60.1886L77.142 59.8576C77.0662 59.7724 77.0272 59.6605 77.0336 59.5465C77.0401 59.4326 77.0914 59.3258 77.1764 59.2496L77.9143 58.5951Z" fill="white"/>
  <path d="M83.1998 60.6961C87.6152 65.2757 94.6341 64.4053 98.1963 59.1883C98.2453 59.1148 98.3091 59.0993 98.3875 59.1418C98.5036 59.2071 98.5354 59.3027 98.4831 59.4286C98.2854 59.9075 97.9495 60.3904 97.4755 60.8775C93.4377 65.0379 87.0832 65.2585 82.9865 61.1349C82.8198 60.9682 82.7945 60.8227 82.9105 60.6985C82.9293 60.6788 82.9518 60.663 82.9767 60.6521C83.0016 60.6413 83.0284 60.6356 83.0554 60.6353C83.0825 60.6351 83.1092 60.6404 83.134 60.6508C83.1589 60.6612 83.1813 60.6766 83.1998 60.6961Z" fill="white"/>
  <path d="M79.9491 59.7939C79.8216 60.3333 79.5356 60.719 79.091 60.9511C77.8775 61.5836 76.713 60.8898 76.3256 59.6076C76.3188 59.5835 76.3196 59.5579 76.328 59.5344C76.3364 59.5108 76.3519 59.4905 76.3725 59.4762C76.393 59.4619 76.4174 59.4543 76.4424 59.4546C76.4674 59.4548 76.4917 59.4629 76.512 59.4776C76.7498 59.6566 76.8086 60.0195 76.9508 60.2254C77.8628 61.5394 79.5029 60.6078 80.0128 59.4507C80.1011 59.2496 80.1264 59.2554 80.0888 59.4678C80.079 59.5267 80.0562 59.5839 80.0202 59.6394C79.9826 59.6983 79.9589 59.7498 79.9491 59.7939Z" fill="white"/>
  <path d="M81.8784 65.3958C83.5553 65.82 83.9157 67.8597 82.6188 68.7668C80.6428 70.1446 78.2991 67.2468 80.7115 65.5429C80.7519 65.5148 80.783 65.4749 80.8004 65.4285C80.8179 65.3822 80.8211 65.3315 80.8095 65.2831L79.8411 61.2183C79.8199 61.1268 79.8354 61.0418 79.8877 60.9633C80.0838 60.6642 80.2391 60.3423 80.3535 59.9974C80.4761 59.6313 80.5766 59.637 80.6551 60.0146L81.7289 65.2389C81.737 65.2765 81.7553 65.3111 81.7817 65.3388C81.8081 65.3665 81.8416 65.3862 81.8784 65.3958ZM82.3271 67.2002C82.3271 66.9948 82.2454 66.7977 82.1002 66.6524C81.9549 66.5071 81.7578 66.4255 81.5524 66.4255C81.3469 66.4255 81.1498 66.5071 81.0046 66.6524C80.8593 66.7977 80.7777 66.9948 80.7777 67.2002C80.7777 67.4057 80.8593 67.6027 81.0046 67.748C81.1498 67.8933 81.3469 67.9749 81.5524 67.9749C81.7578 67.9749 81.9549 67.8933 82.1002 67.748C82.2454 67.6027 82.3271 67.4057 82.3271 67.2002ZM80.9517 68.0656C80.8553 67.9316 80.7425 67.8041 80.6134 67.6832C80.57 67.6424 80.5126 67.6201 80.4533 67.6209C80.394 67.6217 80.3373 67.6456 80.295 67.6876C80.2527 67.7296 80.2281 67.7865 80.2262 67.8464C80.2243 67.9063 80.2453 67.9646 80.2849 68.0092C80.9893 68.7709 81.755 68.8485 82.582 68.2422C82.7618 68.1114 82.828 67.9766 82.7806 67.8376C82.7693 67.8034 82.7488 67.773 82.7214 67.7497C82.6939 67.7263 82.6605 67.711 82.6248 67.7052C82.589 67.6994 82.5522 67.7034 82.5183 67.7168C82.4845 67.7302 82.4548 67.7525 82.4325 67.7812C82.1105 68.1997 81.6921 68.3451 81.1773 68.2176C81.087 68.1955 81.0071 68.1417 80.9517 68.0656Z" fill="white"/>
  <path d="M134.291 68.9531C134.292 68.987 134.281 69.0201 134.258 69.0457C134.236 69.0713 134.205 69.0876 134.171 69.0913C134.138 69.095 134.104 69.0859 134.077 69.0657C134.049 69.0456 134.031 69.0159 134.024 68.9825C133.988 68.7815 134.024 68.5862 134.132 68.3966C134.212 68.2593 134.256 68.2699 134.264 68.4285L134.291 68.9531Z" fill="white"/>
  <path d="M4.64063 85.1926H2.7578C2.50054 85.1926 2.29199 85.4012 2.29199 85.6584V97.9312C2.29199 98.1884 2.50054 98.397 2.7578 98.397H4.64063C4.89789 98.397 5.10643 98.1884 5.10643 97.9312V85.6584C5.10643 85.4012 4.89789 85.1926 4.64063 85.1926Z" fill="black"/>
  <path d="M90.849 87.6442C90.8632 87.6584 90.88 87.6697 90.8985 87.6774C90.917 87.6851 90.9369 87.6891 90.9569 87.6891C90.977 87.6891 90.9968 87.6851 91.0153 87.6774C91.0339 87.6697 91.0507 87.6584 91.0648 87.6442L92.8741 85.83C93.0702 85.6339 93.3356 85.5237 93.612 85.5236C96.5114 85.5236 99.4092 85.5244 102.305 85.526C103.031 85.526 103.237 85.5554 103.774 86.0874C104.542 86.8474 105.3 87.6148 106.047 88.3895C106.488 88.8471 106.71 89.277 106.713 89.679C106.735 92.6144 106.749 95.598 106.758 98.6298C106.758 98.6774 106.749 98.7245 106.731 98.7685C106.713 98.8125 106.686 98.8525 106.652 98.8863C106.618 98.92 106.578 98.9467 106.534 98.965C106.49 98.9833 106.443 98.9927 106.395 98.9927L104.502 98.9902C104.409 98.9896 104.32 98.9521 104.254 98.886C104.188 98.8198 104.151 98.7304 104.151 98.6372L104.149 90.2601C104.149 90.2289 104.143 90.1981 104.131 90.1695C104.119 90.1409 104.102 90.115 104.08 90.0934L102.313 88.2841C102.289 88.2593 102.26 88.2396 102.229 88.2261C102.197 88.2126 102.163 88.2057 102.129 88.2056C99.6871 88.2007 97.251 88.2007 94.8207 88.2056C93.8596 88.2081 93.5998 88.6641 92.9599 89.2819C92.5317 89.6937 92.3176 90.113 92.3176 90.5395C92.311 93.0843 92.3029 95.7811 92.293 98.6298C92.2924 98.7244 92.2544 98.8148 92.1873 98.8814C92.1203 98.948 92.0296 98.9853 91.9351 98.9853H90.0351C89.9291 98.9853 89.8275 98.9432 89.7526 98.8683C89.6776 98.7933 89.6355 98.6917 89.6355 98.5857L89.6453 90.0321C89.6453 89.9708 89.6206 89.9118 89.5767 89.8678L87.8851 88.2571C87.8504 88.2241 87.8039 88.2057 87.7551 88.2056L78.8852 88.2081C78.8581 88.208 78.8313 88.2135 78.8064 88.224C78.7816 88.2345 78.7592 88.25 78.7406 88.2694L76.9852 90.0836C76.949 90.1214 76.9288 90.1714 76.9288 90.2233L76.9166 98.598C76.9166 98.8546 76.7883 98.9821 76.5317 98.9804L74.5704 98.9706C74.5082 98.97 74.4487 98.9452 74.4047 98.9017C74.3607 98.8582 74.3357 98.7993 74.335 98.7377C74.2811 95.6961 74.2697 92.6569 74.3007 89.6202C74.304 89.3048 74.4372 89.0098 74.7003 88.7352C75.6614 87.7382 76.5807 86.7845 77.4584 85.8741C77.5646 85.7641 77.6919 85.6765 77.8326 85.6167C77.9732 85.5569 78.1245 85.5261 78.2772 85.526C81.546 85.5244 84.7748 85.5244 87.9635 85.526C89.2212 85.526 90.0572 86.8523 90.849 87.6442Z" fill="white"/>
  <path d="M43.9302 95.4011L30.157 95.4035C30.1278 95.4035 30.0997 95.4152 30.079 95.4359C30.0583 95.4565 30.0467 95.4846 30.0467 95.5139L30.0443 98.1101C30.0443 98.1493 30.0365 98.1881 30.0215 98.2242C30.0064 98.2604 29.9843 98.2932 29.9565 98.3207C29.9287 98.3483 29.8957 98.3701 29.8594 98.3849C29.8232 98.3996 29.7843 98.4071 29.7452 98.4068L27.8059 98.3994C27.7578 98.3993 27.7106 98.3861 27.6696 98.361C27.6285 98.3359 27.5951 98.3 27.573 98.2572C27.4799 98.0741 27.4317 97.8306 27.4284 97.5266C27.4006 95.1764 27.3973 92.8269 27.4186 90.4783C27.4251 89.7085 27.5861 89.1364 27.9016 88.7621C28.7645 87.7374 29.907 86.1242 31.3804 86.1218C35.3487 86.1201 39.3162 86.116 43.2829 86.1095C43.9718 86.107 45.4869 87.8624 46.0018 88.3993C46.6416 89.071 46.7201 89.5295 46.7152 90.417C46.6972 92.9568 46.698 95.4526 46.7176 97.9042C46.7189 98.0286 46.6709 98.1485 46.5841 98.2376C46.4973 98.3267 46.3787 98.3778 46.2543 98.3798L44.5921 98.4141C44.257 98.4206 44.0887 98.2572 44.0871 97.9238L44.0699 95.5384C44.0699 95.5201 44.0663 95.5021 44.0592 95.4853C44.0522 95.4684 44.0418 95.4532 44.0288 95.4404C44.0158 95.4276 44.0004 95.4176 43.9834 95.4108C43.9665 95.4041 43.9484 95.4008 43.9302 95.4011ZM30.2527 93.0598H43.8738C43.9329 93.0598 43.9897 93.0363 44.0315 92.9945C44.0734 92.9526 44.0969 92.8959 44.0969 92.8367V90.8264C44.0969 90.5588 44.0431 90.2939 43.9386 90.0468C43.8341 89.7996 43.681 89.575 43.488 89.3858C43.2949 89.1966 43.0657 89.0466 42.8135 88.9442C42.5613 88.8418 42.2909 88.7891 42.0179 88.7891H32.1085C31.5571 88.7891 31.0284 89.0037 30.6385 89.3858C30.2486 89.7679 30.0296 90.2861 30.0296 90.8264V92.8367C30.0296 92.8959 30.0531 92.9526 30.0949 92.9945C30.1367 93.0363 30.1935 93.0598 30.2527 93.0598Z" fill="black"/>
  <path d="M17.872 96.0336C17.8468 96.0332 17.8218 96.038 17.7984 96.0474C17.7751 96.0569 17.7539 96.071 17.7361 96.0888C17.7182 96.1067 17.7042 96.1279 17.6947 96.1512C17.6852 96.1746 17.6805 96.1996 17.6808 96.2248L17.7102 98.0267C17.7109 98.0737 17.7023 98.1204 17.685 98.1641C17.6678 98.2078 17.6421 98.2476 17.6096 98.2813C17.577 98.315 17.5382 98.3419 17.4953 98.3605C17.4524 98.379 17.4063 98.3889 17.3596 98.3896L15.1801 98.4312C15.109 98.4326 15.0403 98.4057 14.9889 98.3566C14.9374 98.3075 14.9075 98.24 14.9056 98.1689L14.8541 96.139C14.8538 96.1248 14.8507 96.1109 14.8449 96.0979C14.8392 96.0849 14.831 96.0732 14.8208 96.0634C14.8105 96.0536 14.7984 96.046 14.7852 96.0408C14.772 96.0357 14.7579 96.0332 14.7438 96.0336L11.2625 96.0483C11.1369 96.049 11.0125 96.023 10.8975 95.9719C10.7826 95.9207 10.6797 95.8456 10.5956 95.7516C9.31917 94.3313 8.08274 92.8767 6.88636 91.3878C6.70004 91.1557 6.6126 90.7904 6.62404 90.2919C6.65101 89.0416 6.62159 87.7888 6.65591 86.5213C6.66245 86.2484 6.80219 86.1144 7.07513 86.1193L8.82558 86.1561C8.89133 86.1571 8.95614 86.1717 9.01594 86.199C9.07573 86.2262 9.1292 86.2655 9.17297 86.3144C9.21675 86.3632 9.24987 86.4206 9.27025 86.4828C9.29063 86.545 9.29783 86.6107 9.29139 86.6758C9.19659 87.6532 9.19251 88.6436 9.27913 89.6471C9.37964 90.8116 10.2794 91.5888 11.0737 92.5327C11.5861 93.1431 11.8116 93.3613 12.6771 93.3613C15.2725 93.3613 17.8132 93.3654 20.2991 93.3736C20.4449 93.3743 20.5891 93.3428 20.7213 93.2813C20.8535 93.2199 20.9705 93.13 21.064 93.0181L22.9272 90.792C23.1694 90.504 23.3023 90.1385 23.3023 89.7599L23.3048 86.6733C23.3048 86.3056 23.4895 86.1234 23.8588 86.1266L25.32 86.1389C25.6632 86.1405 25.8422 86.3138 25.8569 86.6586C25.9141 87.9498 25.9255 89.2434 25.8912 90.5395C25.8765 91.0789 25.6019 91.5349 25.2244 91.986C23.7027 93.8002 22.602 95.0448 21.9221 95.7198C21.3876 96.2518 18.6541 96.0458 17.872 96.0336Z" fill="black"/>
  <path d="M48.1665 86.5312C48.1662 86.4809 48.1758 86.4311 48.1947 86.3846C48.2136 86.3381 48.2415 86.2957 48.2768 86.26C48.3121 86.2242 48.3541 86.1958 48.4003 86.1763C48.4466 86.1568 48.4963 86.1466 48.5465 86.1462L62.555 86.0727C63.8512 86.0659 65.097 86.5554 66.0183 87.4335C66.9396 88.3116 67.4611 89.5065 67.468 90.7553L67.4827 93.6432C67.4861 94.2618 67.363 94.8751 67.1204 95.4479C66.8778 96.0208 66.5205 96.542 66.0688 96.9819C65.6171 97.4217 65.08 97.7715 64.488 98.0114C63.896 98.2513 63.2608 98.3764 62.6187 98.3797L48.6103 98.4533C48.56 98.4536 48.5102 98.4441 48.4637 98.4251C48.4172 98.4062 48.3748 98.3783 48.3391 98.343C48.3034 98.3077 48.2749 98.2658 48.2554 98.2195C48.2359 98.1732 48.2257 98.1235 48.2253 98.0733L48.1665 86.5312ZM64.5065 90.3238C64.3496 89.1544 63.6484 88.7597 62.4839 88.7597C58.6528 88.7564 54.8161 88.7523 50.9736 88.7474C50.8788 88.7458 50.8314 88.7923 50.8314 88.8871L50.8265 95.6143C50.8265 95.6928 50.8657 95.732 50.9442 95.732C54.6543 95.7271 58.3627 95.7239 62.0696 95.7222C63.2758 95.7222 64.3348 95.4991 64.5604 94.2194C64.7385 93.1995 64.7206 91.901 64.5065 90.3238Z" fill="black"/>
  <path d="M111.636 86.5238L122.276 86.5263C122.368 86.5262 122.458 86.5444 122.543 86.5797C122.628 86.6151 122.704 86.6669 122.769 86.7322L125.243 89.277C125.411 89.4487 125.508 89.6782 125.515 89.9193C125.564 91.7433 125.566 93.6057 125.522 95.5065C125.507 96.2493 123.556 97.9753 122.987 98.5342C122.704 98.8104 122.409 98.9502 122.102 98.9534C118.812 98.9796 115.523 98.9927 112.234 98.9927C110.996 98.9927 110.229 97.9311 109.256 96.8892C108.706 96.3008 108.373 96.0704 108.371 95.1951C108.371 93.4561 108.371 91.7204 108.371 89.9879C108.371 89.7019 108.503 89.424 108.768 89.1544C109.533 88.3764 110.313 87.5747 111.109 86.7493C111.177 86.678 111.259 86.6213 111.35 86.5825C111.44 86.5438 111.538 86.5238 111.636 86.5238ZM122.899 91.1567C122.898 90.8966 122.846 90.6391 122.746 90.399C122.646 90.1588 122.5 89.9407 122.316 89.7571C122.132 89.5734 121.913 89.4279 121.672 89.3288C121.432 89.2296 121.174 89.1789 120.914 89.1793L112.971 89.1932C112.711 89.1936 112.453 89.2453 112.213 89.3453C111.973 89.4453 111.755 89.5916 111.571 89.7758C111.388 89.9601 111.242 90.1787 111.143 90.4192C111.044 90.6597 110.993 90.9174 110.994 91.1775L110.999 94.3548C111 94.615 111.051 94.8724 111.151 95.1126C111.251 95.3528 111.397 95.5709 111.582 95.7545C111.766 95.9381 111.985 96.0837 112.225 96.1828C112.466 96.2819 112.723 96.3327 112.983 96.3323L120.927 96.3184C121.187 96.3179 121.444 96.2662 121.684 96.1663C121.925 96.0663 122.143 95.92 122.326 95.7357C122.51 95.5515 122.655 95.3329 122.755 95.0923C122.854 94.8518 122.904 94.5942 122.904 94.334L122.899 91.1567Z" fill="white"/>
  <path d="M137.319 89.6423L137.314 98.6838C137.314 98.7607 137.284 98.8346 137.23 98.8892C137.176 98.9438 137.102 98.9749 137.025 98.9755L134.801 99C134.763 99.0004 134.725 98.9931 134.689 98.9785C134.653 98.964 134.621 98.9426 134.594 98.9155C134.566 98.8883 134.545 98.8561 134.53 98.8205C134.515 98.785 134.507 98.7468 134.507 98.7083L134.515 89.6423C134.515 89.5649 134.484 89.4907 134.429 89.436C134.374 89.3813 134.3 89.3505 134.223 89.3505L127.378 89.3554C127.301 89.3554 127.227 89.325 127.173 89.2708C127.118 89.2167 127.087 89.1431 127.086 89.0661L127.069 86.818C127.069 86.7795 127.076 86.7413 127.091 86.7056C127.105 86.6699 127.127 86.6375 127.154 86.6101C127.181 86.5828 127.213 86.5611 127.249 86.5463C127.284 86.5314 127.322 86.5238 127.361 86.5238L144.38 86.5214C144.457 86.5214 144.531 86.5521 144.586 86.6068C144.641 86.6615 144.672 86.7357 144.672 86.8131V89.071C144.672 89.1484 144.641 89.2226 144.586 89.2773C144.531 89.332 144.457 89.3628 144.38 89.3628L137.611 89.3505C137.534 89.3505 137.459 89.3813 137.405 89.436C137.35 89.4907 137.319 89.5649 137.319 89.6423Z" fill="white"/>
  <path d="M163.475 95.3202C163.478 96.188 161.857 97.6198 161.239 98.1837C160.872 98.5195 160.612 99 159.979 98.9976C156.67 98.991 153.36 98.9902 150.05 98.9951C149.141 98.9951 149.06 98.7402 148.341 98.0537C147.655 97.3967 147.004 96.7062 146.388 95.9821C146.334 95.9172 146.304 95.8357 146.304 95.7517V89.8556C146.304 89.6576 146.382 89.4676 146.52 89.326L149.06 86.7347C149.125 86.6672 149.203 86.6135 149.289 86.5769C149.376 86.5402 149.469 86.5214 149.562 86.5214H160.094C160.301 86.5214 160.5 86.6003 160.651 86.742C161.355 87.3941 163.421 89.1519 163.434 90.1718C163.456 91.8879 163.47 93.6041 163.475 95.3202ZM160.839 91.1567C160.839 90.8966 160.787 90.6391 160.687 90.399C160.587 90.1588 160.441 89.9407 160.257 89.7571C160.073 89.5734 159.854 89.4279 159.613 89.3288C159.373 89.2296 159.115 89.1788 158.855 89.1793L150.878 89.1932C150.617 89.1937 150.36 89.2454 150.12 89.3453C149.88 89.4453 149.662 89.5916 149.478 89.7759C149.294 89.9601 149.149 90.1787 149.05 90.4193C148.95 90.6598 148.9 90.9174 148.9 91.1776L148.906 94.3499C148.906 94.6101 148.958 94.8676 149.058 95.1077C149.158 95.3479 149.304 95.566 149.488 95.7496C149.673 95.9333 149.891 96.0788 150.132 96.1779C150.372 96.2771 150.63 96.3278 150.89 96.3274L158.868 96.3135C159.128 96.313 159.385 96.2613 159.625 96.1614C159.866 96.0614 160.084 95.9151 160.267 95.7308C160.451 95.5466 160.596 95.3279 160.696 95.0874C160.795 94.8469 160.845 94.5893 160.845 94.3291L160.839 91.1567Z" fill="white"/>
  <path d="M178.107 96.3131C179.254 96.3106 179.779 94.9451 178.825 94.3273C178.603 94.1851 178.24 94.114 177.736 94.114C174.494 94.1124 171.251 94.1026 168.008 94.0846C167.17 94.0797 166.118 92.8367 165.584 92.2385C165.26 91.8741 165.069 91.4892 165.01 91.0838C164.861 90.0762 164.929 89.2672 165.704 88.5096C166.279 87.949 166.846 87.3893 167.405 86.8303C167.506 86.7301 167.625 86.6508 167.756 86.597C167.887 86.5431 168.028 86.5158 168.17 86.5165L181.223 86.5287C181.345 86.5287 181.407 86.59 181.409 86.7126L181.433 88.9681C181.434 88.9963 181.428 89.0243 181.418 89.0505C181.407 89.0766 181.392 89.1004 181.372 89.1205C181.352 89.1406 181.328 89.1565 181.302 89.1674C181.276 89.1782 181.248 89.1838 181.22 89.1838C177.302 89.1904 173.38 89.1936 169.452 89.1936C168.491 89.1936 167.224 90.1252 168.148 91.1451C168.545 91.5839 168.984 91.5129 169.543 91.5129C172.964 91.5243 176.382 91.5243 179.798 91.5129C179.852 91.5128 179.904 91.5339 179.943 91.5717L182.11 93.6335C182.126 93.649 182.139 93.6677 182.148 93.6883C182.157 93.7089 182.162 93.7312 182.162 93.7536C182.163 94.5447 182.166 95.3104 182.171 96.0508C182.173 96.3335 182.083 96.5713 181.902 96.7642C181.184 97.5291 180.423 98.2466 179.619 98.9167C179.559 98.9658 179.484 98.9926 179.406 98.9927H165.858C165.761 98.9927 165.667 98.954 165.597 98.8851C165.528 98.8162 165.489 98.7227 165.488 98.625L165.486 96.6833C165.486 96.5871 165.524 96.4948 165.591 96.4267C165.659 96.3587 165.751 96.3205 165.846 96.3205C170.001 96.3221 174.088 96.3196 178.107 96.3131Z" fill="white"/>
</svg>