<svg xmlns="http://www.w3.org/2000/svg" width="183" height="99" viewBox="0 0 183 99" fill="none">
  <path d="M159.847 27.9329C159.835 27.9051 159.817 27.874 159.79 27.8397C158.252 25.7869 156.705 23.7398 155.147 21.6984C154.559 20.9262 154.208 20.377 153.178 20.1833C151.554 19.8777 149.681 19.6064 147.559 19.3694C147.478 19.3596 147.359 19.2999 147.204 19.1904C147.104 19.1185 147.018 19.0221 146.944 18.9011C142.492 11.3796 136.218 5.56686 127.061 5.07899C126.625 5.05447 126.19 4.88368 125.757 4.56661C124.86 3.90957 123.959 3.26154 123.053 2.62248C122.728 2.39203 122.452 2.11663 122.224 1.79629C122.174 1.72764 122.176 1.66064 122.232 1.59526C122.97 0.724941 124.203 -0.238543 125.419 0.0531985C125.782 0.139822 126.228 0.271388 126.757 0.447903C136.284 3.63009 145.922 8.10182 153.453 14.8756C158.033 18.9968 161.065 23.7823 162.548 29.6147C162.668 30.0821 162.573 30.4547 162.264 30.7326C160.981 31.8881 159.731 33.0273 158.513 34.1501C158.429 34.2275 158.326 34.281 158.214 34.3051C158.102 34.3293 157.985 34.3232 157.876 34.2874L130.982 25.3342C130.977 25.3324 130.974 25.3294 130.971 25.3255C130.969 25.3216 130.968 25.317 130.968 25.3124C130.968 25.3078 130.97 25.3035 130.973 25.2999C130.976 25.2963 130.98 25.2937 130.984 25.2925C131.097 25.2745 131.22 25.2778 131.354 25.3023C138.147 26.5297 144.93 27.8119 151.703 29.1489C152.124 29.2322 152.49 29.0851 152.835 28.7909C154.066 27.7465 155.301 26.7716 156.54 25.8662C156.611 25.8142 156.697 25.7873 156.785 25.7895C156.873 25.7917 156.959 25.8229 157.027 25.8784L159.69 28.0505C159.707 28.0653 159.729 28.0738 159.752 28.0745C159.775 28.0752 159.797 28.0682 159.815 28.0545C159.834 28.0408 159.847 28.0213 159.852 27.9992C159.858 27.9771 159.856 27.9537 159.847 27.9329Z" fill="#FE0100"/>
  <path d="M45.5874 17.6898C49.1259 20.0156 51.6846 21.6721 53.2634 22.6592C53.3484 22.7115 53.5004 22.7459 53.7194 22.7622C59.4742 23.2182 65.2126 23.8319 70.9346 24.6034C71.3775 24.6622 71.8139 24.6377 72.2438 24.5298C73.6134 24.1882 74.9454 23.8556 76.2399 23.532C76.4599 23.4774 76.6909 23.4825 76.9092 23.5467L96.9093 29.4698C96.9976 29.496 97.009 29.5409 96.9437 29.6046C96.6887 29.8563 96.4321 29.9659 96.1739 29.9332C94.1668 29.6766 92.1565 29.4347 90.1429 29.2075C90.0694 29.1993 90.0154 29.2287 89.9811 29.2957L89.3167 30.6C89.2934 30.6455 89.2563 30.6824 89.2109 30.7053C89.1655 30.7282 89.1141 30.736 89.0642 30.7275L58.478 25.709C58.4631 25.7071 58.448 25.7106 58.4354 25.7187C58.4227 25.7269 58.4134 25.7393 58.409 25.7536C58.4046 25.768 58.4054 25.7835 58.4113 25.7973C58.4172 25.8111 58.4278 25.8224 58.4412 25.8292C62.2837 27.5567 66.0322 29.469 69.6867 31.5659C69.7837 31.6216 69.893 31.6522 70.0048 31.6547C70.1166 31.6573 70.2272 31.6318 70.3266 31.5806L73.0773 30.1759C73.0933 30.1685 73.1115 30.1668 73.1288 30.1711C73.146 30.1754 73.1612 30.1855 73.1717 30.1995C73.1822 30.2135 73.1874 30.2306 73.1863 30.2478C73.1851 30.2649 73.1778 30.2812 73.1656 30.2935L71.4911 32.0317C71.4775 32.0459 71.4672 32.0629 71.461 32.0815C71.4548 32.1001 71.4528 32.1198 71.4551 32.1393C71.4575 32.1588 71.4641 32.1775 71.4746 32.1941C71.485 32.2106 71.4991 32.2247 71.5156 32.2352L76.1344 35.0987C76.1859 35.1304 76.2454 35.1469 76.306 35.1465C76.3667 35.1461 76.4262 35.1287 76.4777 35.0962C77.8277 34.2464 79.1867 33.4104 80.5547 32.5882C81.1594 32.2238 81.1897 32.2663 80.6454 32.7157L76.7204 35.9641C76.7029 35.9786 76.6888 35.9968 76.6792 36.0173C76.6695 36.0379 76.6645 36.0603 76.6645 36.083C76.6645 36.1057 76.6695 36.1281 76.6792 36.1487C76.6888 36.1693 76.7029 36.1874 76.7204 36.2019L77.7525 37.0428C77.7706 37.0576 77.7844 37.0768 77.7926 37.0986C77.8009 37.1204 77.8033 37.1441 77.7996 37.1673C77.7959 37.1905 77.7862 37.2124 77.7715 37.231C77.7568 37.2496 77.7376 37.2642 77.7157 37.2733L76.5537 37.7415C76.53 37.7512 76.5041 37.7543 76.4787 37.7504C76.4532 37.7465 76.4292 37.7358 76.409 37.7195C71.9553 34.1319 66.8837 31.9623 61.1944 31.2104C61.1288 31.2013 61.0666 31.1762 61.0135 31.1372C60.9604 31.0982 60.9181 31.0467 60.8904 30.9873C58.0392 24.797 50.8658 22.8627 44.7441 21.9654C43.6638 21.8069 42.7027 21.6059 41.861 21.3623C32.1134 18.5414 22.3724 15.6967 12.6379 12.8283C12.3657 12.7474 11.9147 12.6861 11.5739 12.5022C11.5388 12.4831 11.512 12.4516 11.4985 12.4137C11.4849 12.3758 11.4856 12.3341 11.5003 12.2963L11.8534 11.4456C11.8804 11.379 11.9261 11.3215 11.9852 11.2798C12.0442 11.2381 12.1142 11.214 12.1868 11.2103L41.2015 9.81774C41.2734 9.81447 41.3249 9.8447 41.356 9.90845L44.4867 16.5253C44.5194 16.5939 44.5759 16.6481 44.6454 16.6779C44.7149 16.7077 44.7928 16.711 44.8642 16.6871C46.0067 16.3071 46.8991 16.2385 48.1298 16.5768C52.2109 17.7029 56.6908 18.6648 61.5695 19.4624C65.5182 20.1096 69.3108 20.2322 72.9474 19.8301C73.2742 19.7941 73.6788 19.6617 74.1609 19.4329C74.2329 19.3977 74.2934 19.3424 74.335 19.2736C85.1931 1.08022 108.64 7.63091 122.511 16.9642C122.52 16.9702 122.527 16.9784 122.532 16.9881C122.537 16.9977 122.539 17.0083 122.538 17.019C122.537 17.0296 122.534 17.0399 122.528 17.0488C122.522 17.0577 122.514 17.0648 122.504 17.0696C121.2 17.7168 119.892 18.3779 118.582 19.0529C116.995 19.8693 113.259 19.6021 111.364 19.3128C103.004 18.0331 94.3793 14.9465 86.7597 12.1394C84.7224 11.3892 82.1115 12.8185 80.7999 14.3287C80.7719 14.3612 80.7525 14.4001 80.7433 14.4419C80.7342 14.4838 80.7357 14.5273 80.7476 14.5684C80.7596 14.6096 80.7816 14.6471 80.8117 14.6776C80.8418 14.7081 80.879 14.7305 80.92 14.743C84.9333 15.9467 95.6345 19.6389 93.3251 25.9517C93.2891 26.0514 93.2197 26.0858 93.1167 26.0547L77.1347 21.3722C76.837 21.2836 76.5228 21.2702 76.2203 21.3329C75.0419 21.5715 73.8373 21.8339 72.6066 22.1199C72.0917 22.2392 71.5761 22.276 71.0596 22.2302C65.4896 21.7366 59.9203 21.2422 54.3519 20.747C53.7783 20.6963 53.2201 20.5648 52.6775 20.3523C50.324 19.4354 47.9704 18.5283 45.6169 17.631C45.4322 17.5607 45.4224 17.5803 45.5874 17.6898Z" fill="white"/>
  <path d="M14.783 14.3118C24.1261 18.6217 32.1747 22.1594 43.05 26.6507C49.9733 29.5118 57.2595 31.9437 62.2215 34.1502C63.3027 34.6307 68.1544 36.6067 66.8134 38.0728C66.109 38.8393 65.4536 39.5282 64.8472 40.1395C64.8301 40.1564 64.8074 40.1662 64.7836 40.1668C64.7598 40.1675 64.7366 40.159 64.7185 40.1431C64.7004 40.1271 64.6887 40.1049 64.6858 40.0806C64.6828 40.0564 64.6888 40.0319 64.7026 40.012C65.3204 39.2054 65.8622 37.5628 64.9575 36.6288C63.7023 35.327 60.6476 34.4959 58.1151 33.731C53.0534 32.2012 47.9883 30.682 42.9201 29.1734C42.6389 29.0901 42.272 28.9291 41.8193 28.6905C32.7663 23.9147 23.7134 19.1374 14.6604 14.3584C14.6228 14.3371 14.6236 14.3183 14.6629 14.302C14.6955 14.2873 14.7356 14.2906 14.783 14.3118Z" fill="white"/>
  <path d="M127.848 22.1298C129.52 20.2061 131.179 18.2701 132.825 16.3219C132.892 16.2419 132.987 16.0923 133.11 15.8733C133.219 15.6755 133.249 15.5121 133.2 15.383C133.128 15.1868 132.94 15.101 132.634 15.1256C132.59 15.1288 132.564 15.1092 132.556 15.0667C132.549 15.0324 132.559 15.012 132.585 15.0054C134.317 14.5821 135.871 14.8502 137.245 15.8096C138.182 16.4617 138.457 17.3688 137.547 18.2146C135.942 19.7019 134.373 21.2489 132.84 22.8555C132.818 22.8784 132.79 22.8953 132.76 22.9046C132.729 22.9138 132.697 22.915 132.666 22.9081C132.635 22.9012 132.607 22.8863 132.583 22.8651C132.56 22.8438 132.543 22.8169 132.533 22.7868C132.486 22.643 132.529 22.4943 132.663 22.3406C134.018 20.801 135.446 19.3309 136.946 17.9302C137.156 17.7341 137.263 17.4448 137.268 17.0623C137.268 17.0224 137.26 16.9827 137.244 16.9459C137.228 16.9091 137.204 16.8761 137.174 16.849C136.802 16.523 135.676 15.7973 135.167 16.3293C133.091 18.4834 131.005 20.6294 128.91 22.7672C128.461 23.2257 128.317 23.5272 128.219 24.1303C128.214 24.1568 128.2 24.1809 128.18 24.1988C128.16 24.2167 128.135 24.2273 128.108 24.229C128.081 24.2307 128.055 24.2234 128.032 24.2081C128.01 24.1929 127.994 24.1707 127.986 24.145C127.955 24.0404 127.939 23.9031 127.939 23.7331C127.938 22.7035 127.421 22.2736 126.39 22.4436C126.385 22.444 126.38 22.4429 126.375 22.4406C126.371 22.4382 126.367 22.4347 126.365 22.4304C126.362 22.426 126.361 22.4211 126.361 22.416C126.361 22.411 126.363 22.4061 126.365 22.4019C126.383 22.3807 126.4 22.3594 126.417 22.3382C126.428 22.3218 126.443 22.3112 126.461 22.3063C126.843 22.1935 127.235 22.1625 127.635 22.2131C127.72 22.223 127.791 22.1952 127.848 22.1298Z" fill="white"/>
  <path d="M105.686 27.2978L131.18 16.3245C131.207 16.3133 131.236 16.3098 131.265 16.3146C131.294 16.3193 131.32 16.332 131.342 16.3511C131.364 16.3703 131.38 16.3952 131.388 16.423C131.396 16.4508 131.396 16.4804 131.389 16.5083C131.188 17.2119 129.81 18.4598 129.256 18.9918C128.89 19.3448 128.453 19.6349 127.944 19.8621C120.82 23.0476 113.711 26.2216 106.618 29.3842C106.426 29.4695 106.272 29.621 106.184 29.8107L104.973 32.4315C104.944 32.4911 104.894 32.537 104.833 32.559L102.749 33.3337C102.582 33.3958 102.537 33.3468 102.614 33.1866L105.198 27.7685C105.299 27.5569 105.473 27.3896 105.686 27.2978Z" fill="white"/>
  <path d="M89.0887 41.6887L122.046 26.4127C122.384 26.2548 122.768 26.2269 123.124 26.3342L144.939 32.9095C145.215 32.9928 145.22 33.0901 144.953 33.2012C143.455 33.819 141.859 34.3191 140.168 34.7016C139.561 34.8389 138.915 34.8879 138.229 34.8487C134.504 34.6378 130.781 34.4572 127.059 34.3069C126.936 34.302 126.815 34.3358 126.713 34.4035C126.61 34.4713 126.532 34.5695 126.488 34.6844C122.117 46.1261 117.711 57.6216 112.837 68.8721C112.769 69.0306 112.656 69.1401 112.499 69.2006C112.467 69.2129 112.432 69.2161 112.398 69.2098C112.364 69.2035 112.333 69.188 112.308 69.165C112.283 69.142 112.264 69.1125 112.255 69.0798C112.246 69.0471 112.247 69.0125 112.256 68.9799C115.603 57.4966 118.876 45.9863 121.68 34.3412C121.688 34.3123 121.688 34.2822 121.683 34.2529C121.677 34.2237 121.665 34.196 121.647 34.1719C121.63 34.1478 121.607 34.1279 121.581 34.1135C121.555 34.0991 121.526 34.0907 121.496 34.0887C119.788 33.9824 118.049 33.8893 116.279 33.8092C115.013 33.7536 113.954 33.837 113.105 34.0593C110.349 34.7817 107.647 35.6642 105 36.707C104.146 37.0437 103.082 37.6582 101.808 38.5506C99.6404 40.0657 99.9713 42.3972 100.807 44.5815C101.577 46.5951 102.367 48.6005 103.178 50.5978C105.215 55.617 106.653 60.5325 107.493 65.3442C107.606 65.9865 107.179 66.293 106.733 66.6656C105.767 67.4746 103.71 69.181 102.44 69.1957C100.266 69.2218 98.0411 69.1973 95.7644 69.1221C95.7385 69.122 95.7136 69.1131 95.6936 69.0969C95.6736 69.0807 95.6596 69.0582 95.654 69.0328C95.6484 69.0074 95.6513 68.9807 95.6625 68.9569C95.6736 68.9331 95.6922 68.9136 95.7154 68.9015C97.6211 67.9012 99.4524 66.7408 101.209 65.4202C101.453 65.2355 101.554 65.0067 101.513 64.7337C100.221 56.3615 97.4486 48.6071 91.7487 42.1961C91.6097 42.0392 91.4406 41.9314 91.2412 41.8725C91.2078 41.8629 91.1726 41.8638 91.1407 41.875L89.3853 42.4462C89.2857 42.4818 89.1761 42.4771 89.0798 42.4333C88.9836 42.3894 88.9081 42.3098 88.8696 42.2113C88.831 42.1128 88.8323 42.0031 88.8732 41.9056C88.9141 41.808 88.9914 41.7302 89.0887 41.6887Z" fill="#FE0100"/>
  <path d="M118.849 69.1908C118.799 69.1892 118.75 69.1721 118.709 69.1418C118.599 69.0585 118.572 68.9383 118.626 68.7814C121.592 60.2327 126.152 52.0492 132.377 45.5917C137.514 40.2619 143.576 36.3426 150.565 33.8338C150.58 33.8277 150.597 33.8275 150.612 33.8334C150.627 33.8394 150.639 33.8509 150.645 33.8657C150.652 33.8805 150.653 33.8976 150.648 33.9135C150.643 33.9294 150.633 33.9429 150.619 33.9515C144.642 37.3952 139.242 41.5792 134.419 46.5037C128.381 52.667 124.595 60.3651 123.24 68.931C123.226 69.0225 123.176 69.083 123.088 69.1124C122.939 69.1647 122.753 69.1917 122.531 69.1933C121.323 69.2096 120.096 69.2088 118.849 69.1908Z" fill="#FE0100"/>
  <path d="M97.282 35.3001L83.428 40.6225C83.4124 40.6283 83.3953 40.6288 83.3793 40.624C83.3634 40.6191 83.3495 40.6091 83.3398 40.5955L82.4939 39.4629C82.487 39.4538 82.4823 39.4432 82.48 39.432C82.4778 39.4208 82.478 39.4093 82.4809 39.3982C82.4837 39.3871 82.489 39.3768 82.4963 39.3681C82.5037 39.3593 82.5129 39.3524 82.5234 39.3477L95.0682 34.0571C95.0784 34.0529 95.0894 34.0509 95.1004 34.0513C95.1114 34.0517 95.1222 34.0546 95.132 34.0596L97.2894 35.1603C97.3028 35.1669 97.314 35.1772 97.3216 35.1901C97.3291 35.2029 97.3327 35.2177 97.332 35.2326C97.3312 35.2475 97.326 35.2619 97.3171 35.2739C97.3083 35.2859 97.2961 35.295 97.282 35.3001Z" fill="white"/>
  <path d="M15.5871 45.0743C16.3226 44.5039 16.2826 44.4418 15.467 44.888C7.34566 49.327 2.24796 56.0812 0.1739 65.1505C0.0349753 65.7585 -0.0205945 65.7503 0.00719035 65.126C0.764736 47.9696 17.9039 35.3071 34.462 39.8205C39.2623 41.128 43.345 43.7243 46.7103 47.6093C46.7202 47.6208 46.7256 47.6357 46.7254 47.6511C46.7252 47.6666 46.7194 47.6813 46.7091 47.6925C46.6989 47.7036 46.685 47.7103 46.6702 47.7113C46.6555 47.7122 46.6409 47.7073 46.6294 47.6975C41.7932 44.0348 36.3285 42.0269 30.2355 41.6739C29.8874 41.6543 29.8833 41.6821 30.2232 41.7573C32.5743 42.2844 34.9033 43.1498 37.0755 44.2162C37.0914 44.2221 37.1043 44.234 37.1115 44.2494C37.1186 44.2648 37.1193 44.2824 37.1135 44.2984C37.1076 44.3143 37.0957 44.3272 37.0803 44.3344C37.0649 44.3415 37.0473 44.3422 37.0313 44.3364C29.2818 42.3064 22.0471 42.8703 15.288 47.1581C12.57 48.8841 10.1291 51.0301 7.9651 53.5961C7.95529 53.6091 7.9414 53.6157 7.92342 53.6157C7.90218 53.6157 7.88011 53.6157 7.85723 53.6157C7.85396 53.6157 7.85314 53.614 7.85478 53.6108C9.93374 50.3076 12.5112 47.4621 15.5871 45.0743Z" fill="white"/>
  <path d="M79.7824 41.5419C79.7614 41.4992 79.732 41.4612 79.696 41.4301C79.6599 41.3991 79.618 41.3756 79.5726 41.3612C79.5273 41.3468 79.4795 41.3417 79.4322 41.3462C79.3848 41.3507 79.3388 41.3647 79.297 41.3874C76.6763 42.8094 75.7397 45.8077 75.649 48.6614C75.6458 48.7594 75.5984 48.7913 75.5068 48.757L74.2394 48.2764C74.1948 48.2591 74.1575 48.2274 74.1334 48.1864C74.1094 48.1454 74.1 48.0976 74.107 48.0509C74.5368 45.0485 75.8043 42.3779 77.9094 40.0391C78.3997 39.4932 78.9301 39.1303 79.5005 38.9505C79.5385 38.9388 79.5792 38.9384 79.6175 38.9492C79.6557 38.9601 79.69 38.9819 79.7162 39.0118L82.1237 41.7871C82.1907 41.8655 82.1989 41.9497 82.1482 42.0396C80.4354 45.0698 79.6778 48.3386 79.8756 51.846C79.8766 51.8643 79.873 51.8825 79.865 51.899C79.857 51.9154 79.845 51.9296 79.83 51.9401C79.8151 51.9507 79.7977 51.9573 79.7795 51.9592C79.7613 51.9612 79.7429 51.9585 79.726 51.9514L78.7675 51.5248C78.6776 51.484 78.6335 51.4145 78.6351 51.3164C78.6956 48.3157 79.2079 45.3966 80.1722 42.5593C80.2017 42.4727 80.1959 42.3885 80.1551 42.3068L79.7824 41.5419Z" fill="white"/>
  <path d="M153.23 68.5979L153.348 68.9092C153.355 68.931 153.358 68.9543 153.355 68.9772C153.352 69.0001 153.343 69.0219 153.33 69.0409C153.317 69.0599 153.299 69.0754 153.279 69.0862C153.259 69.097 153.236 69.1027 153.213 69.1029L149.185 69.1103C149.159 69.1105 149.133 69.1032 149.112 69.0893C149.09 69.0754 149.072 69.0555 149.061 69.0319C149.05 69.0084 149.047 68.9822 149.05 68.9565C149.054 68.9308 149.065 68.9068 149.082 68.8871C149.853 67.985 150.835 67.6679 152.026 67.9359C152.155 67.9653 152.199 67.9171 152.156 67.7913L152.124 67.6981C152.113 67.6626 152.091 67.6309 152.063 67.6063C152.034 67.5817 152 67.5652 151.962 67.5584C150.442 67.3083 149.307 67.8289 148.557 69.1201C148.532 69.1622 148.493 69.1947 148.447 69.2123C148.401 69.2299 148.351 69.2317 148.304 69.2173C148.257 69.203 148.216 69.1733 148.187 69.133C148.159 69.0927 148.145 69.0442 148.148 68.995C148.167 68.7082 148.214 68.4557 148.079 68.159C147.494 66.8695 146.93 65.5832 146.388 64.3002C146.38 64.2828 146.369 64.2675 146.355 64.2555C146.34 64.2435 146.323 64.2352 146.305 64.2313C146.286 64.2275 146.267 64.2282 146.249 64.2333C146.231 64.2385 146.215 64.248 146.201 64.261C144.848 65.562 144.041 67.1465 143.779 69.0146C143.774 69.0531 143.754 69.0882 143.725 69.1131C143.695 69.138 143.658 69.151 143.62 69.1495L143.031 69.1323C142.909 69.129 142.856 69.0661 142.874 68.9435C143.097 67.3745 143.679 65.9567 144.622 64.69C144.678 64.6148 144.674 64.5437 144.61 64.4767L143.973 63.8099C143.898 63.7314 143.826 63.7347 143.759 63.8197C142.594 65.2874 141.908 66.9561 141.7 68.8259C141.677 69.0318 141.562 69.1339 141.354 69.1323L138.716 69.1078C138.694 69.1076 138.672 69.1026 138.651 69.0933C138.631 69.084 138.612 69.0705 138.597 69.0536C138.582 69.0367 138.571 69.0169 138.564 68.9955C138.557 68.974 138.555 68.9513 138.557 68.9288C138.982 64.9441 140.79 61.7652 143.98 59.3921C144.122 59.2875 144.158 59.1543 144.088 58.9925L138.998 47.1733C138.988 47.1486 138.972 47.1265 138.952 47.1083C138.933 47.0902 138.909 47.0764 138.884 47.0678C138.858 47.0592 138.831 47.0561 138.805 47.0587C138.778 47.0612 138.752 47.0694 138.729 47.0826C137.441 47.8148 136.222 48.6475 135.073 49.5808C134.307 50.2035 134.246 50.1405 134.892 49.392C137.347 46.5351 140.027 43.9077 142.933 41.5101C143 41.4561 143.077 41.4267 143.164 41.4218C149.226 41.1546 155.36 41.6081 160.997 43.5032C163.473 44.3368 165.723 45.5667 167.748 47.1929C167.864 47.2861 167.848 47.3392 167.699 47.3523L158.437 48.2005C158.328 48.2103 158.247 48.2626 158.194 48.3574C156.653 51.149 155.7 54.1326 155.336 57.3082C155.324 57.4014 155.363 57.4635 155.451 57.4945C160.789 59.415 163.854 63.2003 164.647 68.8504C164.652 68.8851 164.649 68.9205 164.639 68.9542C164.629 68.9878 164.612 69.019 164.589 69.0454C164.566 69.0719 164.538 69.0932 164.506 69.1078C164.474 69.1223 164.439 69.1299 164.404 69.1299L159.572 69.1127C159.474 69.1127 159.418 69.0645 159.403 68.9681C158.947 66.2026 157.486 64.1744 155.02 62.8832C155.008 62.8775 154.995 62.8748 154.982 62.8753C154.969 62.8758 154.957 62.8794 154.945 62.886C154.934 62.8926 154.925 62.9018 154.918 62.9128C154.911 62.9239 154.908 62.9364 154.907 62.9494L154.593 68.9411C154.588 69.0212 154.546 69.071 154.468 69.0906C153.935 69.2214 153.546 69.0604 153.301 68.6077C153.16 68.3494 153.137 68.3462 153.23 68.5979ZM143.599 45.187C143.574 45.1208 143.523 45.0672 143.459 45.0382C143.394 45.0091 143.321 45.007 143.254 45.0321L143.204 45.0513C143.138 45.0764 143.084 45.1269 143.055 45.1915C143.026 45.2562 143.024 45.3297 143.049 45.396L147.602 57.3822C147.627 57.4485 147.678 57.502 147.742 57.5311C147.807 57.5601 147.881 57.5623 147.947 57.5371L147.997 57.518C148.063 57.4928 148.117 57.4424 148.146 57.3777C148.175 57.3131 148.177 57.2395 148.152 57.1733L143.599 45.187ZM142.146 50.8041C142.074 50.5835 142.131 50.4372 142.315 50.3653C142.662 50.2313 142.945 50.1013 143.164 49.9755C143.26 49.9199 143.29 49.8406 143.252 49.7377L141.803 45.7759C141.796 45.7563 141.785 45.7384 141.771 45.7233C141.757 45.7081 141.739 45.6962 141.72 45.6881C141.701 45.68 141.68 45.676 141.66 45.6764C141.639 45.6767 141.618 45.6814 141.6 45.6901L140.222 46.3152C140.153 46.3472 140.1 46.4051 140.073 46.4764C140.047 46.5476 140.05 46.6263 140.082 46.6952L140.786 48.2103C140.826 48.3002 140.895 48.3329 140.992 48.3084L141.443 48.1907C141.467 48.1843 141.493 48.1837 141.518 48.1889C141.543 48.194 141.566 48.2048 141.587 48.2204C141.607 48.2361 141.623 48.2561 141.634 48.279C141.645 48.3019 141.651 48.327 141.651 48.3525V48.453C141.651 48.5364 141.616 48.5977 141.546 48.6369L140.786 49.0635C140.702 49.1092 140.679 49.1762 140.717 49.2645L148.565 67.8992C148.572 67.9175 148.585 67.9336 148.6 67.9462C148.616 67.9587 148.634 67.9673 148.653 67.9712C148.673 67.975 148.693 67.9741 148.712 67.9684C148.731 67.9627 148.749 67.9524 148.763 67.9384C149.221 67.4906 149.762 67.1898 150.386 67.0362C150.412 67.0301 150.436 67.0184 150.456 67.0017C150.476 66.9851 150.493 66.964 150.504 66.9401C150.515 66.9161 150.521 66.8898 150.521 66.8632C150.521 66.8366 150.515 66.8102 150.504 66.7861L150.036 65.7736C150.027 65.7542 150.014 65.7368 149.998 65.7225C149.982 65.7082 149.964 65.6973 149.943 65.6904C149.923 65.6835 149.902 65.6808 149.881 65.6825C149.859 65.6841 149.839 65.6901 149.82 65.7001L148.535 66.3522C148.47 66.3865 148.411 66.3775 148.359 66.3252C148.298 66.2664 148.274 66.201 148.288 66.1291C148.299 66.0637 148.35 66 148.44 65.9379C148.776 65.7107 149.102 65.4999 149.418 65.3054C149.457 65.2812 149.486 65.2439 149.5 65.2C149.515 65.1561 149.513 65.1084 149.496 65.0651L143.598 50.5369C143.585 50.5063 143.567 50.4787 143.543 50.4557C143.519 50.4327 143.491 50.4149 143.46 50.4033C143.429 50.3918 143.396 50.3868 143.364 50.3887C143.331 50.3906 143.298 50.3993 143.269 50.4143L142.333 50.8826C142.241 50.93 142.179 50.9038 142.146 50.8041ZM157.631 60.5149C157.631 60.3699 157.573 60.2309 157.47 60.1283C157.368 60.0258 157.229 59.9682 157.084 59.9682C156.939 59.9682 156.8 60.0258 156.697 60.1283C156.595 60.2309 156.537 60.3699 156.537 60.5149C156.537 60.6599 156.595 60.799 156.697 60.9015C156.8 61.004 156.939 61.0616 157.084 61.0616C157.229 61.0616 157.368 61.004 157.47 60.9015C157.573 60.799 157.631 60.6599 157.631 60.5149ZM149.528 61.6044C149.598 61.5778 149.639 61.4826 149.643 61.3399C149.646 61.1972 149.61 61.0186 149.544 60.8434C149.478 60.6683 149.386 60.5109 149.29 60.4058C149.193 60.3008 149.099 60.2568 149.028 60.2835C148.958 60.3101 148.916 60.4053 148.913 60.548C148.91 60.6907 148.946 60.8693 149.012 61.0445C149.078 61.2196 149.17 61.377 149.266 61.4821C149.363 61.5871 149.457 61.6311 149.528 61.6044ZM157.341 62.9665L157.699 62.3806C157.719 62.3483 157.732 62.3124 157.737 62.275C157.743 62.2376 157.741 62.1995 157.732 62.1628C157.723 62.1262 157.707 62.0917 157.684 62.0613C157.662 62.0309 157.634 62.0053 157.601 61.9859L155.755 60.8631C155.678 60.816 155.593 60.7829 155.506 60.7656C155.418 60.7483 155.33 60.7471 155.246 60.7622C155.162 60.7772 155.084 60.8081 155.016 60.8532C154.948 60.8983 154.892 60.9566 154.85 61.0249L154.826 61.0616C154.785 61.13 154.759 61.2069 154.75 61.288C154.742 61.3691 154.75 61.4528 154.776 61.5343C154.801 61.6158 154.843 61.6935 154.899 61.763C154.955 61.8325 155.023 61.8924 155.101 61.9393L156.947 63.0621C156.979 63.0818 157.015 63.095 157.052 63.1008C157.089 63.1067 157.127 63.1051 157.164 63.0962C157.2 63.0873 157.235 63.0713 157.265 63.0491C157.296 63.0268 157.322 62.9988 157.341 62.9665ZM160.526 61.7849C160.526 61.7082 160.511 61.6323 160.482 61.5616C160.452 61.4908 160.409 61.4265 160.355 61.3723C160.301 61.3181 160.237 61.2751 160.166 61.2458C160.095 61.2165 160.019 61.2014 159.942 61.2014C159.866 61.2014 159.79 61.2165 159.719 61.2458C159.648 61.2751 159.584 61.3181 159.53 61.3723C159.476 61.4265 159.433 61.4908 159.403 61.5616C159.374 61.6323 159.359 61.7082 159.359 61.7849C159.359 61.9396 159.42 62.088 159.53 62.1974C159.639 62.3069 159.788 62.3683 159.942 62.3683C160.097 62.3683 160.246 62.3069 160.355 62.1974C160.464 62.088 160.526 61.9396 160.526 61.7849ZM144.355 62.3021C144.355 62.1584 144.298 62.0206 144.196 61.919C144.095 61.8174 143.957 61.7603 143.813 61.7603C143.67 61.7603 143.532 61.8174 143.43 61.919C143.329 62.0206 143.272 62.1584 143.272 62.3021C143.272 62.4458 143.329 62.5836 143.43 62.6852C143.532 62.7869 143.67 62.844 143.813 62.844C143.957 62.844 144.095 62.7869 144.196 62.6852C144.298 62.5836 144.355 62.4458 144.355 62.3021ZM145.358 62.155L145.078 62.3169C145.07 62.3217 145.063 62.3281 145.057 62.3358C145.051 62.3434 145.047 62.3522 145.044 62.3615C145.042 62.3709 145.041 62.3806 145.042 62.3902C145.043 62.3998 145.047 62.409 145.051 62.4174L145.069 62.4468C145.21 62.6933 145.365 62.919 145.498 63.0744C145.631 63.2297 145.733 63.302 145.78 63.2754L145.833 63.2435C145.857 63.2306 145.866 63.1937 145.861 63.1348C145.856 63.0759 145.836 62.9962 145.803 62.9003C145.769 62.8045 145.723 62.6942 145.667 62.576C145.611 62.4578 145.546 62.3339 145.476 62.2114L145.458 62.182C145.454 62.1736 145.447 62.1663 145.439 62.1604C145.432 62.1545 145.423 62.1502 145.414 62.1477C145.404 62.1452 145.395 62.1445 145.385 62.1458C145.375 62.1471 145.366 62.1502 145.358 62.155ZM150.092 62.4069C150.069 62.3474 150.024 62.2994 149.966 62.2735C149.907 62.2476 149.841 62.2459 149.782 62.2687L149.773 62.2722C149.743 62.2835 149.716 62.3005 149.693 62.3223C149.671 62.344 149.652 62.37 149.639 62.3988C149.626 62.4276 149.619 62.4587 149.619 62.4902C149.618 62.5218 149.623 62.5532 149.635 62.5826L151.263 66.826C151.286 66.8855 151.332 66.9335 151.39 66.9594C151.448 66.9853 151.514 66.9871 151.574 66.9642L151.583 66.9607C151.612 66.9494 151.639 66.9324 151.662 66.9107C151.685 66.8889 151.704 66.8629 151.716 66.8341C151.729 66.8053 151.736 66.7742 151.737 66.7427C151.738 66.7111 151.732 66.6797 151.721 66.6503L150.092 62.4069ZM158.334 64.3934C159.386 65.6829 160.023 67.1882 160.295 68.8332C160.304 68.8851 160.332 68.9318 160.374 68.9641C160.415 68.9963 160.468 69.0118 160.521 69.0073L161.35 68.9337C161.371 68.9315 161.392 68.9251 161.412 68.9148C161.431 68.9046 161.448 68.8906 161.461 68.8739C161.475 68.8572 161.485 68.838 161.49 68.8176C161.496 68.7971 161.497 68.7757 161.494 68.7548C161.228 66.7788 160.461 65.0275 159.195 63.501C159.128 63.4193 159.057 63.4168 158.984 63.4936L158.342 64.1727C158.275 64.243 158.272 64.3165 158.334 64.3934ZM141.511 65.1215C141.511 64.9667 141.45 64.8183 141.34 64.7089C141.231 64.5995 141.083 64.538 140.928 64.538C140.773 64.538 140.625 64.5995 140.515 64.7089C140.406 64.8183 140.344 64.9667 140.344 65.1215C140.344 65.2762 140.406 65.4247 140.515 65.5341C140.625 65.6435 140.773 65.705 140.928 65.705C141.083 65.705 141.231 65.6435 141.34 65.5341C141.45 65.4247 141.511 65.2762 141.511 65.1215ZM162.122 65.4672C162.122 65.397 162.108 65.3275 162.081 65.2626C162.054 65.1978 162.015 65.1389 161.965 65.0893C161.916 65.0396 161.857 65.0003 161.792 64.9734C161.727 64.9465 161.658 64.9327 161.587 64.9327C161.517 64.9327 161.448 64.9465 161.383 64.9734C161.318 65.0003 161.259 65.0396 161.21 65.0893C161.16 65.1389 161.121 65.1978 161.094 65.2626C161.067 65.3275 161.053 65.397 161.053 65.4672C161.053 65.6089 161.109 65.7448 161.21 65.8451C161.31 65.9453 161.446 66.0016 161.587 66.0016C161.729 66.0016 161.865 65.9453 161.965 65.8451C162.066 65.7448 162.122 65.6089 162.122 65.4672ZM163.738 68.1909C163.738 68.0388 163.677 67.8928 163.57 67.7852C163.462 67.6777 163.316 67.6172 163.164 67.6172C163.012 67.6172 162.866 67.6777 162.758 67.7852C162.651 67.8928 162.59 68.0388 162.59 68.1909C162.59 68.3431 162.651 68.489 162.758 68.5965C162.866 68.7041 163.012 68.7646 163.164 68.7646C163.316 68.7646 163.462 68.7041 163.57 68.5965C163.677 68.489 163.738 68.3431 163.738 68.1909ZM141.308 68.2473C141.308 68.1781 141.294 68.1095 141.268 68.0456C141.241 67.9816 141.202 67.9235 141.153 67.8746C141.104 67.8256 141.046 67.7868 140.982 67.7603C140.918 67.7338 140.85 67.7202 140.781 67.7202C140.711 67.7202 140.643 67.7338 140.579 67.7603C140.515 67.7868 140.457 67.8256 140.408 67.8746C140.359 67.9235 140.32 67.9816 140.294 68.0456C140.267 68.1095 140.254 68.1781 140.254 68.2473C140.254 68.3165 140.267 68.385 140.294 68.449C140.32 68.5129 140.359 68.571 140.408 68.62C140.457 68.6689 140.515 68.7078 140.579 68.7343C140.643 68.7607 140.711 68.7744 140.781 68.7744C140.92 68.7744 141.055 68.7188 141.153 68.62C141.252 68.5211 141.308 68.3871 141.308 68.2473Z" fill="white"/>
  <path d="M85.5363 45.1528C86.3674 44.7336 87.2549 44.4467 88.1595 44.2383C88.5076 44.1574 88.6744 44.2457 88.9367 44.4467C88.9956 44.4912 89.0679 44.5153 89.1426 44.5154C90.2753 44.5203 91.5329 44.1991 92.1066 45.4715C92.1491 45.5679 92.1189 45.6055 92.0159 45.5843C89.6052 45.1005 87.3832 45.5042 85.35 46.7954C84.9136 47.0724 84.5189 47.1214 84.3105 46.5796C84.2968 46.5449 84.2956 46.5065 84.3073 46.4707C84.3189 46.435 84.3425 46.4042 84.3742 46.3835C84.764 46.1359 85.5093 45.903 85.4358 45.3416C85.4243 45.2549 85.4579 45.192 85.5363 45.1528Z" fill="white"/>
  <path d="M143.254 45.0319L143.204 45.0511C143.066 45.1035 142.997 45.2578 143.049 45.3958L147.602 57.382C147.655 57.52 147.809 57.5894 147.947 57.537L147.997 57.5178C148.135 57.4654 148.205 57.3111 148.152 57.1731L143.599 45.1869C143.547 45.0489 143.392 44.9795 143.254 45.0319Z" fill="#020102"/>
  <path d="M142.333 50.8825L143.269 50.4142C143.299 50.3992 143.331 50.3905 143.364 50.3886C143.397 50.3867 143.43 50.3917 143.46 50.4032C143.491 50.4148 143.52 50.4326 143.543 50.4556C143.567 50.4786 143.585 50.5062 143.598 50.5368L149.496 65.065C149.513 65.1083 149.515 65.156 149.5 65.1999C149.486 65.2438 149.457 65.2811 149.418 65.3053C149.102 65.4998 148.776 65.7106 148.44 65.9378C148.35 65.9999 148.299 66.0636 148.288 66.129C148.275 66.2009 148.298 66.2663 148.359 66.3251C148.411 66.3774 148.47 66.3864 148.535 66.3521L149.82 65.7C149.839 65.69 149.86 65.6841 149.881 65.6824C149.902 65.6807 149.923 65.6834 149.944 65.6903C149.964 65.6972 149.982 65.7081 149.998 65.7224C150.014 65.7367 150.027 65.7541 150.036 65.7735L150.504 66.786C150.515 66.8101 150.521 66.8365 150.521 66.8631C150.521 66.8898 150.516 66.916 150.504 66.94C150.493 66.964 150.477 66.985 150.456 67.0016C150.436 67.0183 150.412 67.0301 150.386 67.0361C149.762 67.1897 149.221 67.4905 148.763 67.9383C148.749 67.9523 148.732 67.9626 148.713 67.9683C148.693 67.974 148.673 67.975 148.654 67.9711C148.634 67.9672 148.616 67.9586 148.6 67.9461C148.585 67.9335 148.573 67.9174 148.565 67.8991L140.717 49.2644C140.68 49.1762 140.702 49.1092 140.786 49.0634L141.546 48.6368C141.616 48.5976 141.651 48.5363 141.651 48.4529V48.3524C141.651 48.327 141.645 48.3018 141.634 48.2789C141.623 48.256 141.607 48.236 141.587 48.2204C141.567 48.2047 141.543 48.1939 141.518 48.1888C141.493 48.1836 141.467 48.1843 141.443 48.1906L140.992 48.3083C140.895 48.3328 140.827 48.3001 140.786 48.2102L140.082 46.6951C140.05 46.6262 140.047 46.5475 140.074 46.4763C140.1 46.4051 140.153 46.3471 140.222 46.3151L141.6 45.69C141.619 45.6813 141.639 45.6766 141.66 45.6763C141.681 45.676 141.701 45.6799 141.72 45.688C141.739 45.6961 141.757 45.7081 141.771 45.7232C141.785 45.7383 141.796 45.7562 141.803 45.7758L143.252 49.7376C143.29 49.8406 143.26 49.9198 143.164 49.9754C142.945 50.1012 142.662 50.2312 142.316 50.3652C142.131 50.4371 142.074 50.5834 142.146 50.804C142.179 50.9037 142.241 50.9299 142.333 50.8825Z" fill="#020102"/>
  <path d="M90.3487 47.0848L92.1261 47.3814C92.2258 47.3978 92.2708 47.4574 92.261 47.5604L92.2438 47.732C92.2419 47.751 92.236 47.7693 92.2263 47.7858C92.2167 47.8022 92.2037 47.8164 92.1881 47.8273C92.1725 47.8382 92.1547 47.8457 92.136 47.8491C92.1173 47.8526 92.098 47.8519 92.0795 47.8472C89.1654 47.1314 86.7734 47.9004 84.9037 50.1542C84.8678 50.1973 84.8167 50.2248 84.761 50.2312C84.7053 50.2376 84.6493 50.2223 84.6046 50.1885C84.5294 50.1313 84.5041 50.0496 84.5286 49.9434C84.5433 49.8796 84.585 49.8151 84.6536 49.7497C84.853 49.5617 85.0181 49.3869 85.1488 49.2251C85.1734 49.1942 85.1906 49.1581 85.1991 49.1197C85.2076 49.0812 85.2072 49.0414 85.198 49.0032C85.1888 48.9651 85.1709 48.9297 85.1458 48.8997C85.1207 48.8697 85.089 48.846 85.0532 48.8303L84.4183 48.5509C84.281 48.4888 84.2671 48.407 84.3766 48.3057C86.0666 46.7334 88.0753 45.9481 90.4026 45.9497C90.4381 45.9503 90.4729 45.9599 90.5036 45.9776C90.5343 45.9953 90.5599 46.0206 90.5779 46.051C90.5959 46.0813 90.6057 46.1157 90.6064 46.1508C90.607 46.1859 90.5985 46.2205 90.5816 46.2513L90.2433 46.8691C90.232 46.8897 90.2258 46.9127 90.2253 46.9363C90.2248 46.9598 90.2299 46.9831 90.2402 47.0042C90.2505 47.0253 90.2658 47.0437 90.2846 47.0577C90.3035 47.0717 90.3255 47.081 90.3487 47.0848Z" fill="white"/>
  <path d="M77.4066 64.81C77.4198 64.8205 77.4361 64.8263 77.4529 64.8266C77.4697 64.8268 77.4861 64.8215 77.4996 64.8114C77.513 64.8013 77.5228 64.787 77.5272 64.7708C77.5317 64.7546 77.5307 64.7373 77.5243 64.7218L76.1146 61.5052C76.0997 61.4706 76.0739 61.4416 76.0413 61.4226C76.0086 61.4037 75.9708 61.3957 75.9332 61.3998L73.7488 61.6327C73.729 61.6354 73.7106 61.6448 73.6968 61.6593C73.683 61.6739 73.6745 61.6927 73.6728 61.7126C73.6711 61.7326 73.6762 61.7526 73.6874 61.7693C73.6985 61.7859 73.715 61.7983 73.7341 61.8043L75.59 62.2922C75.6074 62.2973 75.6226 62.3086 75.6327 62.3238C75.6429 62.3391 75.6473 62.3574 75.6452 62.3753C75.6432 62.3933 75.6347 62.4096 75.6214 62.4214C75.608 62.4331 75.5908 62.4395 75.5728 62.4393L72.8148 62.4687C72.7732 62.4692 72.7329 62.4549 72.7013 62.4283C72.6698 62.4017 72.6491 62.3646 72.6432 62.3241L72.1234 59.0316C72.1142 58.9768 72.1227 58.9203 72.1478 58.8701C72.1729 58.8199 72.2132 58.7787 72.2632 58.7521C73.2503 58.2225 74.3021 57.8989 75.4184 57.7813C75.4584 57.7763 75.4951 57.7566 75.521 57.7261C75.547 57.6957 75.5602 57.6567 75.5581 57.617L75.5091 56.5481C75.5058 56.4517 75.456 56.41 75.3595 56.4231C74.4312 56.5391 73.605 56.7312 72.881 56.9992C68.4877 58.6222 64.0952 60.1822 59.7036 61.6793C59.6333 61.703 59.5585 61.7104 59.4851 61.7011C59.4116 61.6918 59.3413 61.6659 59.2795 61.6254L45.9109 52.8584C45.8896 52.8447 45.8722 52.8255 45.8607 52.803C45.8491 52.7804 45.8437 52.7552 45.8449 52.7299C45.8461 52.7045 45.854 52.68 45.8677 52.6587C45.8815 52.6373 45.9006 52.62 45.9231 52.6084C48.3829 51.3237 50.8606 50.0268 53.3564 48.7177C55.3446 47.6757 57.9654 47.8351 60.0811 48.3622C64.8495 49.5488 69.358 51.5983 73.8837 53.4713C73.9036 53.4794 73.9252 53.4825 73.9466 53.4802C73.9679 53.4779 73.9884 53.4704 74.0062 53.4582C74.0239 53.4461 74.0383 53.4297 74.0482 53.4106C74.0581 53.3915 74.063 53.3702 74.0626 53.3488L73.9695 49.8331C73.9689 49.8146 73.9728 49.7961 73.9809 49.7794C73.989 49.7626 74.0011 49.7481 74.016 49.737C74.0309 49.7259 74.0483 49.7186 74.0667 49.7157C74.0851 49.7128 74.1039 49.7144 74.1215 49.7204L75.3644 50.1543C75.4364 50.1805 75.478 50.2303 75.4895 50.3039L75.9724 53.6062C75.9782 53.6453 75.9955 53.6819 76.0221 53.7112C76.0487 53.7404 76.0835 53.7611 76.122 53.7704L78.4388 54.322C78.4788 54.3317 78.5207 54.3313 78.5606 54.321C78.6005 54.3106 78.6373 54.2905 78.6678 54.2624C78.6982 54.2344 78.7214 54.1992 78.7354 54.16C78.7493 54.1209 78.7535 54.0788 78.7477 54.0377L78.603 53.0374C78.5883 52.9361 78.6308 52.8731 78.7305 52.8486C78.7714 52.8388 78.8073 52.8478 78.8384 52.8756C78.8612 52.8952 78.8751 52.9263 78.88 52.9688C78.934 53.495 78.9585 54.0238 78.9536 54.5549C78.952 54.6399 78.9258 54.7159 78.8751 54.7829C78.5613 55.2013 78.4894 55.6712 78.6594 56.1926C78.6855 56.2743 78.7403 56.3234 78.8237 56.3397L79.4071 56.4623C79.7308 56.5293 79.8803 56.3985 79.8558 56.07L79.6474 53.2924C79.6467 53.2809 79.6484 53.2694 79.6523 53.2587C79.6563 53.2479 79.6624 53.2382 79.6703 53.23C79.6782 53.2219 79.6876 53.2156 79.6981 53.2116C79.7085 53.2075 79.7196 53.2058 79.7308 53.2066C79.7585 53.2082 79.7863 53.209 79.8141 53.209C79.8435 53.2106 79.8599 53.2254 79.8631 53.2531C79.9882 54.5574 80.0372 55.8616 80.2456 57.1561C80.3142 57.581 80.351 58.0093 80.3559 58.4407C80.3559 58.529 80.3388 58.5952 80.3044 58.6393C80.2815 58.672 80.2538 58.6957 80.2211 58.7104C80.2066 58.7171 80.1906 58.7197 80.1747 58.7178C80.1589 58.7159 80.1439 58.7097 80.1314 58.6997C80.119 58.6898 80.1095 58.6766 80.1041 58.6616C80.0987 58.6466 80.0976 58.6304 80.1009 58.6148L80.1524 58.35C80.172 58.2552 80.1541 58.1686 80.0985 58.0902C78.1446 55.3272 74.2367 58.5216 76.4701 60.9365C77.2007 61.7275 78.1527 61.8787 79.3262 61.39C79.4145 61.3524 79.4701 61.3802 79.4929 61.4734C79.7757 62.6387 80.0503 63.7877 80.3167 64.9203C80.3477 65.0511 80.2971 65.1279 80.1647 65.1508C80.1266 65.1567 80.0877 65.1487 80.0552 65.1284C80.0227 65.1082 79.9989 65.0769 79.9882 65.0405L79.1179 62.0029C79.1049 61.9598 79.0771 61.9226 79.0395 61.898C79.0018 61.8733 78.9566 61.8627 78.9119 61.8681L77.8651 62.0078C77.8424 62.0108 77.8205 62.0183 77.8009 62.03C77.7812 62.0417 77.7642 62.0572 77.7508 62.0756C77.7375 62.094 77.7281 62.1149 77.7233 62.137C77.7185 62.159 77.7184 62.1818 77.7229 62.2039L78.4608 66.0554C78.465 66.0769 78.4647 66.0989 78.46 66.1203C78.4553 66.1416 78.4462 66.1618 78.4334 66.1797C78.4206 66.1976 78.4042 66.2127 78.3854 66.2242C78.3665 66.2357 78.3454 66.2433 78.3235 66.2466L77.1075 66.4305C77.0665 66.4368 77.0246 66.4278 76.9898 66.4052C76.955 66.3826 76.9297 66.348 76.9188 66.3079L76.3941 64.4398C76.3834 64.4003 76.3855 64.3584 76.4001 64.3201C76.4148 64.2819 76.4411 64.2493 76.4754 64.2269C76.5098 64.2046 76.5503 64.1937 76.5912 64.1958C76.632 64.198 76.6712 64.213 76.703 64.2388L77.4066 64.81Z" fill="white"/>
  <path d="M87.0561 50.8504L86.4506 50.4851C86.3411 50.4181 86.3264 50.3348 86.4065 50.2351C87.7467 48.5402 89.4889 47.9461 91.6333 48.4527C91.7395 48.4789 91.827 48.5287 91.8956 48.6023C91.91 48.6185 91.9189 48.6388 91.9211 48.6603C91.9232 48.6819 91.9186 48.7036 91.9077 48.7223C91.8968 48.741 91.8803 48.7559 91.8606 48.7647C91.8408 48.7735 91.8187 48.7759 91.7975 48.7715L90.2923 48.438C90.2416 48.427 90.1886 48.4362 90.1446 48.4636C90.1006 48.4911 90.0692 48.5347 90.0569 48.5851C89.927 49.1098 90.1966 49.2789 90.6747 49.3745C91.3039 49.4988 91.8801 49.7488 92.4031 50.1247C92.4864 50.1852 92.5044 50.2612 92.457 50.3527L92.4031 50.4557C92.3606 50.5391 92.3009 50.5546 92.2241 50.5023C91.5083 50.0193 90.6698 49.6197 89.7872 49.784C88.3604 50.0504 87.4664 50.9656 87.1052 52.5298C87.0989 52.5566 87.0855 52.5812 87.0664 52.6011C87.0474 52.6211 87.0234 52.6355 86.9969 52.643C86.9704 52.6505 86.9423 52.6508 86.9157 52.6438C86.889 52.6368 86.8647 52.6228 86.8453 52.6033C86.7897 52.5477 86.7709 52.466 86.7889 52.3582C86.8674 51.9185 86.9867 51.5099 87.1468 51.1323C87.1684 51.082 87.1711 51.0256 87.1544 50.9737C87.1377 50.9218 87.1028 50.878 87.0561 50.8504Z" fill="white"/>
  <path d="M174.692 63.9394C174.711 63.8986 174.715 63.8561 174.704 63.812C173.377 58.6162 171.1 54.2989 167.874 50.8601C166.829 49.7455 166.885 49.6866 168.04 50.6836C172.865 54.8448 175.8 60.262 176.844 66.9353C176.913 67.3766 176.95 68.0647 176.957 68.9996C176.957 69.0829 176.915 69.1246 176.832 69.1246L174.851 69.1295C174.75 69.1311 174.696 69.0805 174.689 68.9775C174.447 65.135 173.334 61.5736 171.35 58.2934C171.003 57.7197 171.039 57.6952 171.455 58.2198C172.835 59.9507 173.896 61.8564 174.638 63.937C174.652 63.9811 174.67 63.9819 174.692 63.9394Z" fill="white"/>
  <path d="M91.0278 51.0736C89.3313 50.37 88.2477 51.5492 88.1717 53.2335C88.1709 53.282 88.152 53.3283 88.1186 53.3632C88.0853 53.3981 88.0399 53.4191 87.9914 53.4222C87.9429 53.4253 87.8948 53.4101 87.8565 53.3798C87.8182 53.3494 87.7925 53.306 87.7843 53.258C87.6618 52.5879 87.8415 51.957 88.3237 51.3654C89.0804 50.4354 90.1346 50.2123 91.4863 50.6961C91.5268 50.7101 91.5621 50.7363 91.5874 50.7709C91.6127 50.8056 91.6269 50.8471 91.6279 50.89C91.629 50.9329 91.617 50.9751 91.5934 51.011C91.5698 51.0469 91.5359 51.0747 91.4961 51.0908C91.3522 51.1496 91.1962 51.1439 91.0278 51.0736Z" fill="white"/>
  <path d="M40.5126 54.0106L38.4557 57.0113C38.3969 57.098 38.3242 57.111 38.2376 57.0506L37.5609 56.5749C37.4808 56.5177 37.462 56.445 37.5045 56.3568C38.3658 54.5605 39.4633 52.9237 40.797 51.4462C40.864 51.371 40.94 51.3612 41.025 51.4168L68.2011 68.9923C68.2136 69.0008 68.2231 69.0131 68.2282 69.0274C68.2332 69.0417 68.2336 69.0572 68.2292 69.0717C68.2248 69.0862 68.216 69.0989 68.2038 69.108C68.1917 69.1171 68.177 69.1221 68.1618 69.1223C66.4163 69.119 64.6626 69.1116 62.9007 69.1002C62.5607 69.0986 62.2445 69.0111 61.9519 68.8379C54.6674 64.5639 47.3886 60.2834 40.1155 55.9964C40.0828 55.9767 40.058 55.9463 40.0451 55.9101C40.0321 55.874 40.0319 55.8344 40.0444 55.7978L40.645 54.0768C40.6538 54.0592 40.6552 54.0389 40.649 54.0203C40.6428 54.0016 40.6295 53.9862 40.6119 53.9775C40.5944 53.9687 40.5741 53.9673 40.5554 53.9735C40.5368 53.9797 40.5214 53.993 40.5126 54.0106Z" fill="white"/>
  <path d="M93.3642 54.8294L93.83 54.9961C93.8631 55.0085 93.8997 55.0083 93.933 54.9957C93.9663 54.9831 93.9942 54.9589 94.0115 54.9274C94.595 53.8634 94.7159 52.7488 94.3743 51.5834C94.3712 51.573 94.3706 51.5619 94.3726 51.5511C94.3746 51.5404 94.3792 51.5303 94.3859 51.5216C94.3926 51.513 94.4013 51.5061 94.4112 51.5015C94.4211 51.4969 94.432 51.4947 94.4429 51.4952C94.4691 51.4968 94.4953 51.4985 94.5214 51.5001C94.577 51.5017 94.6113 51.5295 94.6244 51.5834C94.8973 52.7144 94.8197 53.8119 94.3915 54.8759C94.3604 54.9511 94.3097 55.0091 94.2395 55.05C93.9878 55.1922 93.8194 55.3189 93.7344 55.43C92.981 56.4205 92.0126 57.0097 90.8293 57.1976C90.1355 57.3079 89.3975 57.1167 88.6253 57.0677C88.2984 57.0481 88.0238 56.9672 87.8016 56.825C86.7817 56.1696 86.0985 55.2412 85.752 54.0399C85.7463 54.018 85.7488 53.9947 85.759 53.9745C85.7693 53.9543 85.7865 53.9385 85.8076 53.93C85.8286 53.9216 85.852 53.9212 85.8734 53.9288C85.8948 53.9364 85.9126 53.9515 85.9236 53.9713C86.6248 55.3393 87.0416 56.2856 88.564 56.9059C88.6045 56.9217 88.6492 56.9233 88.691 56.9104C88.7328 56.8975 88.7693 56.8709 88.7945 56.8348L89.0911 56.3959C89.1159 56.3596 89.1509 56.3312 89.1918 56.3142C89.2327 56.2972 89.2778 56.2924 89.3215 56.3003C90.853 56.5863 92.0861 56.1377 93.021 54.9544C93.0864 54.8727 93.0978 54.7844 93.0553 54.6896L92.9426 54.4371C92.9099 54.3619 92.914 54.2892 92.9548 54.2189C93.3454 53.5488 93.4239 52.8403 93.1902 52.0934C93.1756 52.0473 93.1754 51.998 93.1894 51.952C93.2034 51.906 93.231 51.8655 93.2686 51.836C93.4206 51.7183 93.5154 51.751 93.553 51.934C93.7524 52.8705 93.6601 53.767 93.276 54.6234C93.2319 54.7231 93.2613 54.7918 93.3642 54.8294Z" fill="white"/>
  <path d="M92.4499 53.6281C92.6297 53.1329 92.6525 52.6311 92.5185 52.1228C92.5149 52.1085 92.5143 52.0935 92.5169 52.079C92.5196 52.0644 92.5253 52.0507 92.5337 52.0388C92.5422 52.0268 92.5531 52.017 92.5657 52.0099C92.5783 52.0028 92.5924 51.9986 92.6068 51.9978C92.6329 51.9945 92.6583 51.9912 92.6828 51.988C92.723 51.9813 92.7641 51.9904 92.7979 52.0132C92.8316 52.0359 92.8553 52.0708 92.8642 52.1105C93.0227 52.8019 92.9574 53.4753 92.6681 54.1307C92.6554 54.16 92.6336 54.1842 92.6058 54.1997C92.5781 54.2153 92.5459 54.2213 92.5142 54.2169C92.4824 54.2125 92.4528 54.1978 92.4297 54.1752C92.4066 54.1526 92.3913 54.1232 92.3861 54.0914C92.3649 53.9558 92.3861 53.8013 92.4499 53.6281Z" fill="white"/>
  <path d="M88.5467 53.7579C88.5222 53.7318 88.5031 53.7012 88.4905 53.6678C88.4778 53.6343 88.4719 53.5987 88.473 53.5629C88.4742 53.5272 88.4824 53.492 88.4971 53.4594C88.5118 53.4268 88.5329 53.3975 88.559 53.373L88.5859 53.346C88.7794 53.1636 89.0138 53.0404 89.2377 53.0036C89.4616 52.9669 89.6566 53.0195 89.7799 53.1499L89.7946 53.1646C89.917 53.2955 89.9576 53.4932 89.9075 53.7143C89.8574 53.9354 89.7207 54.1618 89.5273 54.3438L89.5004 54.3708C89.4745 54.3955 89.444 54.4148 89.4106 54.4276C89.3772 54.4404 89.3416 54.4466 89.3059 54.4457C89.2701 54.4448 89.2349 54.4368 89.2023 54.4223C89.1696 54.4078 89.1401 54.3869 89.1155 54.361L88.5467 53.7579Z" fill="white"/>
  <path d="M90.17 53.8952C90.1994 53.7007 90.2754 53.534 90.398 53.3951C90.423 53.3668 90.456 53.3467 90.4927 53.3376C90.5294 53.3284 90.5679 53.3307 90.6033 53.3439C90.6387 53.3572 90.6692 53.381 90.6907 53.412C90.7123 53.443 90.7239 53.4799 90.7241 53.5177L90.729 54.437C90.729 54.5416 90.6807 54.616 90.5843 54.6601C90.3571 54.7647 90.1381 54.7607 89.9273 54.6479C89.8374 54.6005 89.8194 54.5343 89.8734 54.4493L90.0965 54.0987C90.1357 54.0366 90.1602 53.9688 90.17 53.8952Z" fill="white"/>
  <path d="M89.1573 55.3493C89.3518 55.4261 89.5136 55.516 89.6427 55.619C89.6653 55.6367 89.6813 55.6615 89.6883 55.6894C89.6953 55.7173 89.6929 55.7467 89.6814 55.773C89.6699 55.7993 89.65 55.8211 89.6248 55.835C89.5996 55.8488 89.5706 55.8539 89.5422 55.8494C88.7217 55.7285 88.0998 55.3101 87.6765 54.5942C87.6592 54.5624 87.6543 54.5253 87.6627 54.49C87.6711 54.4548 87.6922 54.4239 87.7219 54.4032C87.7517 54.3825 87.788 54.3736 87.824 54.3781C87.8599 54.3826 87.893 54.4002 87.9168 54.4275C88.2485 54.8492 88.662 55.1564 89.1573 55.3493Z" fill="white"/>
  <path d="M19.8431 67.7345L19.9853 68.6783C20 68.7829 19.9551 68.8336 19.8505 68.8303L19.1322 68.8156C19.0292 68.8124 18.9744 68.7592 18.9679 68.6563L18.9507 68.3915C18.9458 68.2993 18.9077 68.2118 18.8434 68.1452C18.7792 68.0787 18.6931 68.0375 18.6012 68.0294C18.5093 68.0214 18.4178 68.0469 18.3437 68.1013C18.2696 68.1557 18.2179 68.2353 18.1981 68.3253C18.1769 68.4168 18.1711 68.5116 18.1809 68.6097C18.1936 68.6994 18.1701 68.7905 18.1156 68.8629C18.0612 68.9353 17.9802 68.9831 17.8904 68.9958C17.8007 69.0085 17.7096 68.985 17.6372 68.9305C17.5648 68.8761 17.517 68.795 17.5043 68.7053C15.7514 59.0901 26.9307 52.5272 34.4277 58.7395C34.4943 58.7952 34.5762 58.8294 34.6628 58.8377C34.7494 58.846 34.8366 58.828 34.9131 58.7861L37.2324 57.5113C37.2554 57.4985 37.2814 57.4921 37.3078 57.4929C37.3341 57.4936 37.3598 57.5014 37.3821 57.5154C37.4043 57.5294 37.4225 57.5492 37.4345 57.5726C37.4466 57.596 37.4521 57.6223 37.4506 57.6486L37.3598 59.4799C37.3554 59.5585 37.3739 59.6368 37.4131 59.7051C37.4523 59.7734 37.5104 59.8289 37.5805 59.8648L48.3627 65.4079C48.3997 65.4272 48.4306 65.4561 48.4523 65.4916C48.4739 65.527 48.4853 65.5676 48.4852 65.6089L48.4632 68.8965C48.463 68.9566 48.4419 69.0147 48.4033 69.0609C48.3648 69.107 48.3114 69.1382 48.2523 69.149C48.0644 69.185 47.9818 69.0943 48.0047 68.8769C48.1093 67.8816 48.1567 66.8944 48.1469 65.9154C48.1465 65.8975 48.142 65.8799 48.1338 65.8641C48.1255 65.8482 48.1138 65.8345 48.0996 65.8241C48.0853 65.8136 48.0688 65.8067 48.0515 65.8038C48.0342 65.8009 48.0165 65.8022 47.9998 65.8075L38.3969 68.6734C38.3168 68.6979 38.2457 68.738 38.1836 68.7936C37.8845 69.0665 37.502 69.1531 37.0362 69.0534C34.9989 68.617 32.7508 68.9578 30.6253 68.8794C29.7607 68.8467 28.883 68.8475 27.9923 68.8818C26.4281 68.9431 24.8542 68.774 23.3416 68.8598C22.6698 68.899 21.9973 68.9349 21.3239 68.9676C21.2507 68.971 21.1788 68.9474 21.1219 68.9013C21.065 68.8552 21.0269 68.7898 21.015 68.7176L20.8385 67.7222C20.831 67.6796 20.8089 67.6411 20.7762 67.6133C20.7435 67.5855 20.7022 67.5702 20.6595 67.5702H19.9853C19.9645 67.5704 19.944 67.5749 19.9251 67.5836C19.9063 67.5922 19.8895 67.6048 19.876 67.6204C19.8625 67.636 19.8526 67.6543 19.8469 67.6739C19.8412 67.6936 19.84 67.7143 19.8431 67.7345ZM29.8457 57.5579C29.8457 57.4954 29.8334 57.4336 29.8095 57.3758C29.7856 57.3181 29.7505 57.2657 29.7064 57.2215C29.6622 57.1774 29.6098 57.1424 29.5521 57.1184C29.4944 57.0945 29.4325 57.0822 29.3701 57.0822C29.3076 57.0822 29.2458 57.0945 29.1881 57.1184C29.1304 57.1424 29.0779 57.1774 29.0338 57.2215C28.9896 57.2657 28.9546 57.3181 28.9307 57.3758C28.9068 57.4336 28.8945 57.4954 28.8945 57.5579C28.8945 57.684 28.9446 57.805 29.0338 57.8942C29.123 57.9834 29.2439 58.0335 29.3701 58.0335C29.4962 58.0335 29.6172 57.9834 29.7064 57.8942C29.7956 57.805 29.8457 57.684 29.8457 57.5579ZM26.7174 58.1315C26.7174 58.0164 26.6717 57.9061 26.5903 57.8247C26.509 57.7433 26.3986 57.6976 26.2835 57.6976C26.1684 57.6976 26.058 57.7433 25.9767 57.8247C25.8953 57.9061 25.8496 58.0164 25.8496 58.1315C25.8496 58.1885 25.8608 58.2449 25.8826 58.2976C25.9044 58.3502 25.9364 58.3981 25.9767 58.4384C26.0169 58.4787 26.0648 58.5106 26.1174 58.5324C26.1701 58.5542 26.2265 58.5655 26.2835 58.5655C26.3986 58.5655 26.509 58.5197 26.5903 58.4384C26.6717 58.357 26.7174 58.2466 26.7174 58.1315ZM23.5769 58.6439C23.5769 58.5191 23.5273 58.3994 23.4391 58.3111C23.3508 58.2228 23.2311 58.1732 23.1062 58.1732C22.9814 58.1732 22.8616 58.2228 22.7734 58.3111C22.6851 58.3994 22.6355 58.5191 22.6355 58.6439C22.6355 58.7688 22.6851 58.8885 22.7734 58.9768C22.8616 59.065 22.9814 59.1146 23.1062 59.1146C23.2311 59.1146 23.3508 59.065 23.4391 58.9768C23.5273 58.8885 23.5769 58.7688 23.5769 58.6439ZM32.0399 60.034C30.9268 59.3475 29.719 58.9332 28.4164 58.791C28.3973 58.7889 28.3779 58.7909 28.3597 58.7969C28.3414 58.8029 28.3246 58.8127 28.3105 58.8257C28.2963 58.8387 28.2851 58.8546 28.2775 58.8723C28.27 58.89 28.2664 58.9091 28.2668 58.9283L28.2816 59.6344C28.2824 59.6697 28.2958 59.7036 28.3192 59.7297C28.3426 59.7558 28.3745 59.7724 28.409 59.7766C29.3815 59.9008 30.2992 60.1941 31.1622 60.6567C31.2308 60.6943 31.3003 60.6967 31.3706 60.664L32.0178 60.3797C32.2433 60.28 32.2507 60.1647 32.0399 60.034ZM32.616 59.1882C32.616 59.0731 32.5703 58.9627 32.4889 58.8813C32.4075 58.8 32.2971 58.7542 32.1821 58.7542C32.067 58.7542 31.9566 58.8 31.8752 58.8813C31.7938 58.9627 31.7481 59.0731 31.7481 59.1882C31.7481 59.3033 31.7938 59.4136 31.8752 59.495C31.9566 59.5764 32.067 59.6221 32.1821 59.6221C32.2971 59.6221 32.4075 59.5764 32.4889 59.495C32.5703 59.4136 32.616 59.3033 32.616 59.1882ZM23.3734 61.3407C24.3786 60.4557 25.4794 60.0707 26.7934 59.8231C26.8751 59.8068 26.916 59.7569 26.916 59.6736V59.0018C26.916 58.8907 26.8604 58.8425 26.7493 58.8572C25.2391 59.0746 23.8817 59.6515 22.6772 60.588C22.602 60.6469 22.5799 60.7221 22.611 60.8136C22.7009 61.0833 22.8798 61.272 23.1479 61.3799C23.2312 61.4126 23.3064 61.3995 23.3734 61.3407ZM21.9442 60.4428C21.9438 60.4122 21.9373 60.382 21.9252 60.3539C21.9131 60.3258 21.8956 60.3004 21.8737 60.2791C21.8518 60.2578 21.8259 60.241 21.7974 60.2296C21.769 60.2183 21.7386 60.2127 21.7081 60.2132L21.3845 60.2177C21.3227 60.2186 21.2638 60.2439 21.2208 60.2882C21.1777 60.3325 21.154 60.3921 21.1549 60.4538L21.1596 60.7921C21.16 60.8227 21.1665 60.8529 21.1786 60.881C21.1907 60.9091 21.2082 60.9345 21.2301 60.9558C21.252 60.9772 21.2779 60.994 21.3064 61.0053C21.3348 61.0166 21.3651 61.0222 21.3957 61.0218L21.7193 61.0172C21.7811 61.0164 21.8399 60.991 21.883 60.9467C21.9261 60.9024 21.9498 60.8429 21.9489 60.7811L21.9442 60.4428ZM30.3973 61.0416C26.3987 59.3402 22.3756 61.6692 21.498 65.8369C21.4931 65.8608 21.4951 65.8855 21.5038 65.9082C21.5126 65.931 21.5276 65.9507 21.5472 65.9651C21.5668 65.9796 21.5901 65.9881 21.6144 65.9897C21.6387 65.9913 21.663 65.9859 21.6843 65.9742L30.4071 61.2279C30.4244 61.2187 30.4387 61.2047 30.4483 61.1877C30.458 61.1706 30.4625 61.1512 30.4615 61.1316C30.4605 61.1121 30.4539 61.0932 30.4425 61.0773C30.4311 61.0613 30.4154 61.0489 30.3973 61.0416ZM20.7772 66.0992C20.9586 64.7362 21.3656 63.7065 22.1574 62.5738C22.1858 62.5327 22.1993 62.4833 22.1957 62.4338C22.1922 62.3842 22.1717 62.3376 22.1378 62.3017L21.7014 61.8384C21.6246 61.7566 21.5519 61.7599 21.4833 61.8482C20.5042 63.1017 19.9461 64.5253 19.8088 66.1189C19.7974 66.2414 19.8529 66.3003 19.9755 66.2954L20.5884 66.2709C20.6996 66.266 20.7625 66.2088 20.7772 66.0992ZM19.6985 62.8827C19.6985 62.8222 19.6866 62.7623 19.6634 62.7064C19.6402 62.6505 19.6063 62.5996 19.5635 62.5568C19.5207 62.514 19.4699 62.4801 19.414 62.4569C19.358 62.4338 19.2981 62.4218 19.2376 62.4218C19.1771 62.4218 19.1171 62.4338 19.0612 62.4569C19.0053 62.4801 18.9545 62.514 18.9117 62.5568C18.8689 62.5996 18.8349 62.6505 18.8118 62.7064C18.7886 62.7623 18.7767 62.8222 18.7767 62.8827C18.7767 63.005 18.8252 63.1222 18.9117 63.2086C18.9981 63.2951 19.1153 63.3436 19.2376 63.3436C19.3598 63.3436 19.4771 63.2951 19.5635 63.2086C19.6499 63.1222 19.6985 63.005 19.6985 62.8827ZM19.048 65.8426C19.155 65.857 19.2641 65.8225 19.3514 65.7466C19.4386 65.6707 19.4969 65.5597 19.5134 65.4379C19.5215 65.3776 19.5192 65.3165 19.5064 65.258C19.4937 65.1996 19.4708 65.1449 19.4392 65.0972C19.4075 65.0495 19.3676 65.0097 19.3218 64.98C19.276 64.9503 19.2251 64.9314 19.1722 64.9242C19.0652 64.9097 18.9561 64.9442 18.8688 65.0201C18.7815 65.096 18.7233 65.2071 18.7068 65.3289C18.6987 65.3892 18.701 65.4503 18.7137 65.5087C18.7265 65.5672 18.7493 65.6218 18.781 65.6695C18.8127 65.7172 18.8526 65.7571 18.8984 65.7868C18.9442 65.8164 18.9951 65.8354 19.048 65.8426Z" fill="white"/>
  <path d="M140.747 56.3714C136.799 59.2178 134.09 64.0376 133.659 68.8722C133.654 68.9326 133.634 68.9909 133.601 69.0419C133.568 69.0929 133.523 69.1351 133.47 69.1648C133.417 69.1946 133.358 69.2109 133.297 69.2124C133.237 69.214 133.176 69.2007 133.122 69.1737C132.905 69.0658 132.827 68.8893 132.889 68.6442C132.923 68.5085 132.941 68.435 132.943 68.4235C133.824 63.3291 136.37 59.3093 140.582 56.3641C140.608 56.3466 140.639 56.3388 140.671 56.342C140.693 56.3453 140.717 56.3477 140.742 56.3494C140.744 56.3498 140.746 56.3509 140.748 56.3526C140.75 56.3543 140.751 56.3564 140.751 56.3588C140.752 56.3611 140.752 56.3636 140.751 56.3658C140.75 56.3681 140.748 56.37 140.747 56.3714Z" fill="white"/>
  <path d="M29.3701 58.0337C29.6328 58.0337 29.8458 57.8208 29.8458 57.5581C29.8458 57.2955 29.6328 57.0825 29.3701 57.0825C29.1075 57.0825 28.8945 57.2955 28.8945 57.5581C28.8945 57.8208 29.1075 58.0337 29.3701 58.0337Z" fill="#020102"/>
  <path d="M88.591 62.0471C92.5258 62.7409 96.034 60.7452 97.6129 57.1831C97.6224 57.1604 97.6385 57.1411 97.6592 57.1277C97.6798 57.1143 97.704 57.1074 97.7286 57.1079C97.7531 57.1085 97.777 57.1164 97.797 57.1307C97.8171 57.1449 97.8323 57.1649 97.8409 57.188C97.988 57.5606 97.9512 57.9382 97.7306 58.3206C95.8404 61.591 92.1017 63.3562 88.3679 62.6134C88.3463 62.6095 88.326 62.6007 88.3084 62.5876C88.2908 62.5746 88.2764 62.5576 88.2662 62.538C88.2561 62.5184 88.2505 62.4967 88.2498 62.4745C88.2492 62.4523 88.2535 62.4302 88.2625 62.4099L88.3752 62.1623C88.3927 62.1218 88.4235 62.0884 88.4626 62.0675C88.5018 62.0466 88.547 62.0394 88.591 62.0471Z" fill="white"/>
  <path d="M79.1375 57.7274C79.0754 57.7568 79.0272 57.7258 78.9929 57.6343C78.952 57.5296 78.9847 57.4945 79.0909 57.5288C79.274 57.5877 79.4252 57.6915 79.5445 57.8402C79.5554 57.8517 79.5618 57.8668 79.5625 57.8826C79.5632 57.8985 79.5582 57.9141 79.5484 57.9266C79.5386 57.939 79.5246 57.9476 79.5091 57.9506C79.4935 57.9537 79.4773 57.951 79.4636 57.9432C79.3426 57.886 79.2339 57.814 79.1375 57.7274Z" fill="white"/>
  <path d="M26.2833 58.5656C26.523 58.5656 26.7172 58.3713 26.7172 58.1317C26.7172 57.892 26.523 57.6978 26.2833 57.6978C26.0436 57.6978 25.8494 57.892 25.8494 58.1317C25.8494 58.3713 26.0436 58.5656 26.2833 58.5656Z" fill="#020102"/>
  <path d="M76.914 58.3281C77.0807 58.2742 77.2343 58.1949 77.3749 58.0903C78.1349 57.5289 79.0395 57.828 79.5691 58.534C79.6165 58.5978 79.6157 58.6623 79.5666 58.7277L79.4857 58.8356C79.4729 58.8523 79.4564 58.8659 79.4375 58.8753C79.4186 58.8846 79.3977 58.8895 79.3766 58.8895C79.3555 58.8895 79.3347 58.8846 79.3158 58.8753C79.2969 58.8659 79.2804 58.8523 79.2675 58.8356C78.6154 57.9693 77.9322 57.9203 77.218 58.6885C77.1951 58.7134 77.1644 58.7298 77.1309 58.7347C77.0974 58.7396 77.0632 58.7328 77.0341 58.7154L76.5315 58.4041C76.4613 58.3616 76.4572 58.3117 76.5193 58.2545L76.5781 58.2031C76.6598 58.1295 76.7301 58.1393 76.789 58.2325C76.8053 58.257 76.8208 58.2799 76.8355 58.3011C76.8552 58.3305 76.8813 58.3395 76.914 58.3281Z" fill="white"/>
  <path d="M23.1062 59.1148C23.3662 59.1148 23.5769 58.904 23.5769 58.644C23.5769 58.3841 23.3662 58.1733 23.1062 58.1733C22.8462 58.1733 22.6355 58.3841 22.6355 58.644C22.6355 58.904 22.8462 59.1148 23.1062 59.1148Z" fill="#020102"/>
  <path d="M77.9143 58.5953C77.9999 58.5198 78.1119 58.4812 78.2259 58.4881C78.3399 58.495 78.4464 58.5468 78.5223 58.6321L78.8165 58.9606C78.9004 59.055 78.9695 59.161 79.0197 59.2725C79.0699 59.384 79.1003 59.4988 79.1092 59.6103C79.1181 59.7219 79.1053 59.828 79.0714 59.9227C79.0376 60.0173 78.9835 60.0986 78.9121 60.1619L78.6155 60.4242C78.5443 60.4878 78.4573 60.5321 78.3594 60.5547C78.2614 60.5773 78.1545 60.5776 78.0448 60.5558C77.935 60.5339 77.8246 60.4903 77.7197 60.4273C77.6149 60.3643 77.5177 60.2833 77.4338 60.1888L77.142 59.8579C77.0662 59.7726 77.0272 59.6607 77.0336 59.5468C77.0401 59.4328 77.0914 59.3261 77.1764 59.2499L77.9143 58.5953Z" fill="white"/>
  <path d="M32.0397 60.0343C32.2505 60.1651 32.2431 60.2803 32.0176 60.38L31.3704 60.6644C31.3001 60.6971 31.2306 60.6946 31.162 60.657C30.299 60.1945 29.3813 59.9011 28.4088 59.7769C28.3743 59.7728 28.3424 59.7561 28.319 59.73C28.2956 59.7039 28.2822 59.67 28.2814 59.6347L28.2666 58.9286C28.2662 58.9094 28.2698 58.8903 28.2773 58.8726C28.2849 58.8549 28.2961 58.839 28.3103 58.826C28.3244 58.813 28.3412 58.8032 28.3595 58.7972C28.3777 58.7912 28.3971 58.7892 28.4162 58.7913C29.7188 58.9335 30.9266 59.3479 32.0397 60.0343Z" fill="#020102"/>
  <path d="M32.182 59.6223C32.4216 59.6223 32.6159 59.428 32.6159 59.1883C32.6159 58.9487 32.4216 58.7544 32.182 58.7544C31.9423 58.7544 31.748 58.9487 31.748 59.1883C31.748 59.428 31.9423 59.6223 32.182 59.6223Z" fill="#020102"/>
  <path d="M26.7935 59.8235C25.4794 60.0711 24.3786 60.456 23.3735 61.341C23.3065 61.3999 23.2313 61.413 23.1479 61.3803C22.8799 61.2724 22.7009 61.0836 22.611 60.8139C22.58 60.7224 22.602 60.6472 22.6772 60.5884C23.8818 59.6519 25.2392 59.0749 26.7493 58.8576C26.8605 58.8428 26.916 58.8911 26.916 59.0022V59.6739C26.916 59.7573 26.8752 59.8071 26.7935 59.8235Z" fill="#020102"/>
  <path d="M83.1998 60.6963C87.6152 65.2759 94.6341 64.4056 98.1963 59.1886C98.2453 59.115 98.3091 59.0995 98.3875 59.142C98.5036 59.2074 98.5354 59.303 98.4831 59.4288C98.2854 59.9077 97.9495 60.3907 97.4755 60.8777C93.4377 65.0381 87.0832 65.2588 82.9865 61.1352C82.8198 60.9684 82.7945 60.823 82.9105 60.6988C82.9293 60.679 82.9518 60.6632 82.9767 60.6524C83.0016 60.6415 83.0284 60.6358 83.0554 60.6356C83.0825 60.6353 83.1092 60.6406 83.134 60.651C83.1589 60.6615 83.1813 60.6769 83.1998 60.6963Z" fill="white"/>
  <path d="M79.9491 59.794C79.8216 60.3334 79.5356 60.7191 79.091 60.9512C77.8775 61.5837 76.713 60.8899 76.3256 59.6077C76.3188 59.5836 76.3196 59.5581 76.328 59.5345C76.3364 59.5109 76.3519 59.4906 76.3725 59.4763C76.393 59.462 76.4174 59.4544 76.4424 59.4547C76.4674 59.455 76.4917 59.463 76.512 59.4778C76.7498 59.6567 76.8086 60.0196 76.9508 60.2255C77.8628 61.5396 79.5029 60.608 80.0128 59.4508C80.1011 59.2498 80.1264 59.2555 80.0888 59.468C80.079 59.5268 80.0562 59.584 80.0202 59.6396C79.9826 59.6984 79.9589 59.7499 79.9491 59.794Z" fill="white"/>
  <path d="M81.8784 65.3958C83.5553 65.82 83.9157 67.8597 82.6188 68.7668C80.6428 70.1446 78.2991 67.2468 80.7115 65.5429C80.7519 65.5148 80.783 65.4749 80.8004 65.4285C80.8179 65.3822 80.8211 65.3315 80.8095 65.2831L79.8411 61.2183C79.8199 61.1268 79.8354 61.0418 79.8877 60.9633C80.0838 60.6642 80.2391 60.3423 80.3535 59.9974C80.4761 59.6313 80.5766 59.637 80.6551 60.0146L81.7289 65.2389C81.737 65.2765 81.7553 65.3111 81.7817 65.3388C81.8081 65.3665 81.8416 65.3862 81.8784 65.3958ZM82.3271 67.2002C82.3271 66.9948 82.2454 66.7977 82.1002 66.6524C81.9549 66.5071 81.7578 66.4255 81.5524 66.4255C81.3469 66.4255 81.1498 66.5071 81.0046 66.6524C80.8593 66.7977 80.7777 66.9948 80.7777 67.2002C80.7777 67.4057 80.8593 67.6027 81.0046 67.748C81.1498 67.8933 81.3469 67.9749 81.5524 67.9749C81.7578 67.9749 81.9549 67.8933 82.1002 67.748C82.2454 67.6027 82.3271 67.4057 82.3271 67.2002ZM80.9517 68.0656C80.8553 67.9316 80.7425 67.8041 80.6134 67.6832C80.57 67.6424 80.5126 67.6201 80.4533 67.6209C80.394 67.6217 80.3373 67.6456 80.295 67.6876C80.2527 67.7296 80.2281 67.7865 80.2262 67.8464C80.2243 67.9063 80.2453 67.9646 80.2849 68.0092C80.9893 68.7709 81.755 68.8485 82.582 68.2422C82.7618 68.1114 82.828 67.9766 82.7806 67.8376C82.7693 67.8034 82.7488 67.773 82.7214 67.7497C82.6939 67.7263 82.6605 67.711 82.6248 67.7052C82.589 67.6994 82.5522 67.7034 82.5183 67.7168C82.4845 67.7302 82.4548 67.7525 82.4325 67.7812C82.1105 68.1997 81.6921 68.3451 81.1773 68.2176C81.087 68.1955 81.0071 68.1417 80.9517 68.0656Z" fill="white"/>
  <path d="M157.084 61.0612C157.386 61.0612 157.631 60.8164 157.631 60.5145C157.631 60.2125 157.386 59.9678 157.084 59.9678C156.782 59.9678 156.537 60.2125 156.537 60.5145C156.537 60.8164 156.782 61.0612 157.084 61.0612Z" fill="#020102"/>
  <path d="M21.7081 60.2134L21.3845 60.2179C21.2559 60.2197 21.1531 60.3255 21.1549 60.4541L21.1596 60.7924C21.1614 60.921 21.2671 61.0238 21.3957 61.022L21.7193 61.0175C21.8479 61.0157 21.9507 60.91 21.9489 60.7813L21.9442 60.443C21.9424 60.3144 21.8367 60.2116 21.7081 60.2134Z" fill="#020102"/>
  <path d="M149.012 61.0441C149.15 61.4089 149.381 61.6596 149.528 61.6041C149.674 61.5486 149.682 61.2079 149.544 60.8431C149.406 60.4783 149.175 60.2276 149.028 60.2831C148.881 60.3387 148.874 60.6794 149.012 61.0441Z" fill="#020102"/>
  <path d="M21.498 65.8371C22.3756 61.6694 26.3987 59.3404 30.3973 61.0418C30.4154 61.0491 30.4311 61.0615 30.4425 61.0774C30.4539 61.0934 30.4605 61.1122 30.4615 61.1318C30.4625 61.1514 30.4579 61.1708 30.4483 61.1879C30.4387 61.2049 30.4244 61.2189 30.4071 61.2281L21.6843 65.9744C21.6629 65.9861 21.6387 65.9915 21.6144 65.9899C21.5901 65.9883 21.5668 65.9798 21.5472 65.9653C21.5276 65.9509 21.5126 65.9311 21.5038 65.9084C21.4951 65.8857 21.4931 65.8609 21.498 65.8371Z" fill="#020102"/>
  <path d="M157.341 62.9663C157.322 62.9985 157.296 63.0266 157.266 63.0488C157.235 63.0711 157.201 63.0871 157.164 63.096C157.127 63.1049 157.089 63.1064 157.052 63.1006C157.015 63.0947 156.979 63.0816 156.947 63.0619L155.101 61.9391C155.023 61.8922 154.955 61.8323 154.899 61.7628C154.843 61.6933 154.801 61.6156 154.776 61.5341C154.75 61.4526 154.742 61.3689 154.75 61.2878C154.759 61.2067 154.785 61.1297 154.826 61.0614L154.851 61.0246C154.892 60.9564 154.948 60.898 155.016 60.853C155.084 60.8079 155.162 60.777 155.246 60.7619C155.33 60.7469 155.419 60.7481 155.506 60.7654C155.593 60.7827 155.678 60.8158 155.755 60.8628L157.601 61.9857C157.634 62.0051 157.662 62.0307 157.685 62.0611C157.707 62.0914 157.723 62.1259 157.732 62.1626C157.741 62.1993 157.743 62.2374 157.738 62.2748C157.732 62.3122 157.719 62.348 157.699 62.3804L157.341 62.9663Z" fill="#020102"/>
  <path d="M159.942 62.3681C160.265 62.3681 160.526 62.1069 160.526 61.7847C160.526 61.4624 160.265 61.2012 159.942 61.2012C159.62 61.2012 159.359 61.4624 159.359 61.7847C159.359 62.1069 159.62 62.3681 159.942 62.3681Z" fill="#020102"/>
  <path d="M22.1575 62.5742C21.3656 63.7068 20.9586 64.7365 20.7772 66.0996C20.7625 66.2091 20.6996 66.2663 20.5884 66.2712L19.9755 66.2957C19.853 66.3006 19.7974 66.2418 19.8088 66.1192C19.9461 64.5257 20.5043 63.1021 21.4833 61.8485C21.5519 61.7603 21.6247 61.757 21.7015 61.8387L22.1379 62.3021C22.1718 62.338 22.1922 62.3846 22.1958 62.4341C22.1993 62.4837 22.1858 62.5331 22.1575 62.5742Z" fill="#020102"/>
  <path d="M143.814 62.8439C144.113 62.8439 144.355 62.6013 144.355 62.3021C144.355 62.0028 144.113 61.7603 143.814 61.7603C143.514 61.7603 143.272 62.0028 143.272 62.3021C143.272 62.6013 143.514 62.8439 143.814 62.8439Z" fill="#020102"/>
  <path d="M145.358 62.1549C145.366 62.15 145.375 62.1469 145.385 62.1456C145.395 62.1444 145.404 62.145 145.414 62.1475C145.423 62.15 145.432 62.1544 145.439 62.1603C145.447 62.1661 145.454 62.1735 145.458 62.1819L145.476 62.2113C145.546 62.3338 145.611 62.4577 145.667 62.5759C145.723 62.6941 145.769 62.8043 145.803 62.9002C145.836 62.9961 145.856 63.0757 145.861 63.1346C145.866 63.1935 145.857 63.2305 145.833 63.2434L145.779 63.2753C145.733 63.3019 145.631 63.2296 145.498 63.0742C145.365 62.9189 145.21 62.6931 145.069 62.4466L145.051 62.4172C145.047 62.4088 145.043 62.3996 145.042 62.39C145.041 62.3804 145.042 62.3707 145.044 62.3614C145.047 62.352 145.051 62.3433 145.057 62.3356C145.063 62.3279 145.07 62.3215 145.078 62.3167L145.358 62.1549Z" fill="#020102"/>
  <path d="M149.782 62.2683L149.773 62.2718C149.649 62.3194 149.587 62.4583 149.634 62.5822L151.263 66.8256C151.311 66.9495 151.45 67.0113 151.574 66.9638L151.583 66.9603C151.707 66.9127 151.769 66.7738 151.721 66.6499L150.092 62.4065C150.045 62.2826 149.906 62.2207 149.782 62.2683Z" fill="#020102"/>
  <path d="M19.2375 63.3437C19.4921 63.3437 19.6984 63.1373 19.6984 62.8828C19.6984 62.6282 19.4921 62.4219 19.2375 62.4219C18.983 62.4219 18.7766 62.6282 18.7766 62.8828C18.7766 63.1373 18.983 63.3437 19.2375 63.3437Z" fill="#020102"/>
  <path d="M160.296 68.8329C160.024 67.1879 159.386 65.6826 158.334 64.3931C158.272 64.3162 158.275 64.2427 158.342 64.1724L158.984 63.4933C159.058 63.4165 159.128 63.419 159.195 63.5007C160.462 65.0272 161.228 66.7785 161.494 68.7545C161.497 68.7754 161.496 68.7968 161.49 68.8173C161.485 68.8377 161.475 68.8569 161.461 68.8736C161.448 68.8904 161.431 68.9043 161.412 68.9146C161.393 68.9248 161.372 68.9313 161.35 68.9334L160.521 69.007C160.468 69.0115 160.416 68.996 160.374 68.9638C160.332 68.9315 160.304 68.8848 160.296 68.8329Z" fill="#020102"/>
  <path d="M140.928 65.7046C141.25 65.7046 141.511 65.4433 141.511 65.1211C141.511 64.7988 141.25 64.5376 140.928 64.5376C140.605 64.5376 140.344 64.7988 140.344 65.1211C140.344 65.4433 140.605 65.7046 140.928 65.7046Z" fill="#020102"/>
  <path d="M18.7068 65.3291C18.6725 65.5827 18.8252 65.8127 19.048 65.8428C19.2707 65.8729 19.4791 65.6918 19.5134 65.4382C19.5476 65.1846 19.3949 64.9546 19.1721 64.9245C18.9494 64.8944 18.7411 65.0755 18.7068 65.3291Z" fill="#020102"/>
  <path d="M161.587 66.0015C161.883 66.0015 162.122 65.7622 162.122 65.4671C162.122 65.1719 161.883 64.9326 161.587 64.9326C161.292 64.9326 161.053 65.1719 161.053 65.4671C161.053 65.7622 161.292 66.0015 161.587 66.0015Z" fill="#020102"/>
  <path d="M81.5525 67.9752C81.9804 67.9752 82.3272 67.6283 82.3272 67.2005C82.3272 66.7726 81.9804 66.4258 81.5525 66.4258C81.1247 66.4258 80.7778 66.7726 80.7778 67.2005C80.7778 67.6283 81.1247 67.9752 81.5525 67.9752Z" fill="#020102"/>
  <path d="M81.1773 68.2178C81.6921 68.3453 82.1105 68.1999 82.4325 67.7814C82.4548 67.7527 82.4845 67.7304 82.5184 67.717C82.5522 67.7036 82.589 67.6996 82.6248 67.7054C82.6605 67.7112 82.6939 67.7265 82.7214 67.7499C82.7488 67.7732 82.7693 67.8036 82.7806 67.8378C82.828 67.9768 82.7618 68.1116 82.5821 68.2424C81.7551 68.8487 80.9893 68.7711 80.2849 68.0094C80.2453 67.9648 80.2243 67.9065 80.2262 67.8466C80.2281 67.7867 80.2527 67.7298 80.2951 67.6878C80.3374 67.6458 80.3941 67.6219 80.4534 67.6211C80.5127 67.6203 80.57 67.6426 80.6134 67.6834C80.7425 67.8043 80.8553 67.9318 80.9517 68.0658C81.0071 68.1419 81.087 68.1957 81.1773 68.2178Z" fill="#020102"/>
  <path d="M163.164 68.7645C163.481 68.7645 163.738 68.5077 163.738 68.1909C163.738 67.874 163.481 67.6172 163.164 67.6172C162.847 67.6172 162.59 67.874 162.59 68.1909C162.59 68.5077 162.847 68.7645 163.164 68.7645Z" fill="#020102"/>
  <path d="M140.781 68.7739C141.072 68.7739 141.308 68.5379 141.308 68.2468C141.308 67.9557 141.072 67.7197 140.781 67.7197C140.49 67.7197 140.254 67.9557 140.254 68.2468C140.254 68.5379 140.49 68.7739 140.781 68.7739Z" fill="#020102"/>
  <path d="M134.291 68.9534C134.292 68.9873 134.281 69.0203 134.258 69.0459C134.236 69.0716 134.205 69.0878 134.171 69.0915C134.138 69.0953 134.104 69.0861 134.077 69.066C134.049 69.0458 134.031 69.0161 134.024 68.9828C133.988 68.7817 134.024 68.5864 134.132 68.3968C134.212 68.2596 134.256 68.2702 134.264 68.4287L134.291 68.9534Z" fill="white"/>
  <path d="M4.64063 85.1924H2.7578C2.50054 85.1924 2.29199 85.4009 2.29199 85.6582V97.9309C2.29199 98.1882 2.50054 98.3967 2.7578 98.3967H4.64063C4.89789 98.3967 5.10643 98.1882 5.10643 97.9309V85.6582C5.10643 85.4009 4.89789 85.1924 4.64063 85.1924Z" fill="#D81517"/>
  <path d="M90.849 87.6441C90.8632 87.6583 90.88 87.6696 90.8985 87.6773C90.917 87.685 90.9369 87.689 90.9569 87.689C90.977 87.689 90.9968 87.685 91.0153 87.6773C91.0339 87.6696 91.0507 87.6583 91.0648 87.6441L92.8741 85.8299C93.0702 85.6338 93.3356 85.5235 93.612 85.5234C96.5114 85.5234 99.4092 85.5243 102.305 85.5259C103.031 85.5259 103.237 85.5553 103.774 86.0873C104.542 86.8473 105.3 87.6147 106.047 88.3894C106.488 88.847 106.71 89.2768 106.713 89.6789C106.735 92.6143 106.749 95.5979 106.758 98.6297C106.758 98.6773 106.749 98.7244 106.731 98.7684C106.713 98.8124 106.686 98.8524 106.652 98.8861C106.618 98.9199 106.578 98.9466 106.534 98.9649C106.49 98.9832 106.443 98.9926 106.395 98.9926L104.502 98.9901C104.409 98.9895 104.32 98.952 104.254 98.8859C104.188 98.8197 104.151 98.7303 104.151 98.6371L104.149 90.2599C104.149 90.2288 104.143 90.198 104.131 90.1694C104.119 90.1408 104.102 90.1149 104.08 90.0932L102.313 88.2839C102.289 88.2592 102.26 88.2395 102.229 88.226C102.197 88.2125 102.163 88.2055 102.129 88.2055C99.6871 88.2006 97.251 88.2006 94.8207 88.2055C93.8596 88.2079 93.5998 88.6639 92.9599 89.2818C92.5317 89.6936 92.3176 90.1128 92.3176 90.5394C92.311 93.0842 92.3029 95.781 92.293 98.6297C92.2924 98.7242 92.2544 98.8146 92.1873 98.8812C92.1203 98.9478 92.0296 98.9852 91.9351 98.9852H90.0351C89.9291 98.9852 89.8275 98.9431 89.7526 98.8682C89.6776 98.7932 89.6355 98.6916 89.6355 98.5856L89.6453 90.0319C89.6453 89.9707 89.6206 89.9117 89.5767 89.8677L87.8851 88.257C87.8504 88.224 87.8039 88.2056 87.7551 88.2055L78.8852 88.2079C78.8581 88.2079 78.8313 88.2133 78.8064 88.2239C78.7816 88.2344 78.7592 88.2498 78.7406 88.2692L76.9852 90.0834C76.949 90.1212 76.9288 90.1713 76.9288 90.2232L76.9166 98.5979C76.9166 98.8545 76.7883 98.9819 76.5317 98.9803L74.5704 98.9705C74.5082 98.9699 74.4487 98.9451 74.4047 98.9016C74.3607 98.858 74.3357 98.7992 74.335 98.7376C74.2811 95.696 74.2697 92.6568 74.3007 89.6201C74.304 89.3046 74.4372 89.0096 74.7003 88.735C75.6614 87.7381 76.5807 86.7844 77.4584 85.874C77.5646 85.7639 77.6919 85.6764 77.8326 85.6166C77.9732 85.5568 78.1245 85.5259 78.2772 85.5259C81.546 85.5243 84.7748 85.5243 87.9635 85.5259C89.2212 85.5259 90.0572 86.8522 90.849 87.6441Z" fill="white"/>
  <path d="M43.9302 95.401L30.157 95.4034C30.1278 95.4034 30.0997 95.415 30.079 95.4357C30.0583 95.4564 30.0467 95.4845 30.0467 95.5137L30.0443 98.11C30.0443 98.1492 30.0365 98.1879 30.0215 98.2241C30.0064 98.2602 29.9843 98.293 29.9565 98.3206C29.9287 98.3482 29.8957 98.37 29.8594 98.3848C29.8232 98.3995 29.7843 98.407 29.7452 98.4066L27.8059 98.3993C27.7578 98.3992 27.7106 98.3859 27.6696 98.3609C27.6285 98.3358 27.5951 98.2999 27.573 98.2571C27.4799 98.074 27.4317 97.8305 27.4284 97.5265C27.4006 95.1762 27.3973 92.8268 27.4186 90.4781C27.4251 89.7083 27.5861 89.1363 27.9016 88.762C28.7645 87.7372 29.907 86.1241 31.3804 86.1216C35.3487 86.12 39.3162 86.1159 43.2829 86.1094C43.9718 86.1069 45.4869 87.8623 46.0018 88.3992C46.6416 89.0709 46.7201 89.5294 46.7152 90.4169C46.6972 92.9567 46.698 95.4524 46.7176 97.904C46.7189 98.0285 46.6709 98.1484 46.5841 98.2375C46.4973 98.3266 46.3787 98.3777 46.2543 98.3797L44.5921 98.414C44.257 98.4205 44.0887 98.2571 44.0871 97.9237L44.0699 95.5383C44.0699 95.52 44.0663 95.502 44.0592 95.4851C44.0522 95.4683 44.0418 95.4531 44.0288 95.4403C44.0158 95.4275 44.0004 95.4175 43.9834 95.4107C43.9665 95.404 43.9484 95.4006 43.9302 95.401ZM30.2527 93.0597H43.8738C43.9329 93.0597 43.9897 93.0362 44.0315 92.9943C44.0734 92.9525 44.0969 92.8958 44.0969 92.8366V90.8263C44.0969 90.5587 44.0431 90.2938 43.9386 90.0466C43.8341 89.7995 43.681 89.5749 43.488 89.3857C43.2949 89.1965 43.0657 89.0464 42.8135 88.9441C42.5613 88.8417 42.2909 88.789 42.0179 88.789H32.1085C31.5571 88.789 31.0284 89.0036 30.6385 89.3857C30.2486 89.7678 30.0296 90.2859 30.0296 90.8263V92.8366C30.0296 92.8958 30.0531 92.9525 30.0949 92.9943C30.1367 93.0362 30.1935 93.0597 30.2527 93.0597Z" fill="#D81517"/>
  <path d="M17.872 96.0336C17.8468 96.0332 17.8218 96.038 17.7984 96.0474C17.7751 96.0569 17.7539 96.071 17.7361 96.0888C17.7182 96.1067 17.7042 96.1279 17.6947 96.1512C17.6852 96.1746 17.6805 96.1996 17.6808 96.2248L17.7102 98.0267C17.7109 98.0737 17.7023 98.1204 17.685 98.1641C17.6678 98.2078 17.6421 98.2476 17.6096 98.2813C17.577 98.315 17.5382 98.3419 17.4953 98.3605C17.4524 98.379 17.4063 98.3889 17.3596 98.3896L15.1801 98.4312C15.109 98.4326 15.0403 98.4057 14.9889 98.3566C14.9374 98.3075 14.9075 98.24 14.9056 98.1689L14.8541 96.139C14.8538 96.1248 14.8507 96.1109 14.8449 96.0979C14.8392 96.0849 14.831 96.0732 14.8208 96.0634C14.8105 96.0536 14.7984 96.046 14.7852 96.0408C14.772 96.0357 14.7579 96.0332 14.7438 96.0336L11.2625 96.0483C11.1369 96.049 11.0125 96.023 10.8975 95.9719C10.7826 95.9207 10.6797 95.8456 10.5956 95.7516C9.31917 94.3313 8.08274 92.8767 6.88636 91.3878C6.70004 91.1557 6.6126 90.7904 6.62404 90.2919C6.65101 89.0416 6.62159 87.7888 6.65591 86.5213C6.66245 86.2484 6.80219 86.1144 7.07513 86.1193L8.82558 86.1561C8.89133 86.1571 8.95614 86.1717 9.01594 86.199C9.07573 86.2262 9.1292 86.2655 9.17297 86.3144C9.21675 86.3632 9.24987 86.4206 9.27025 86.4828C9.29063 86.545 9.29783 86.6107 9.29139 86.6758C9.19659 87.6532 9.19251 88.6436 9.27913 89.6471C9.37964 90.8116 10.2794 91.5888 11.0737 92.5327C11.5861 93.1431 11.8116 93.3613 12.6771 93.3613C15.2725 93.3613 17.8132 93.3654 20.2991 93.3736C20.4449 93.3743 20.5891 93.3428 20.7213 93.2813C20.8535 93.2199 20.9705 93.13 21.064 93.0181L22.9272 90.792C23.1694 90.504 23.3023 90.1385 23.3023 89.7599L23.3048 86.6733C23.3048 86.3056 23.4895 86.1234 23.8588 86.1266L25.32 86.1389C25.6632 86.1405 25.8422 86.3138 25.8569 86.6586C25.9141 87.9498 25.9255 89.2434 25.8912 90.5395C25.8765 91.0789 25.6019 91.5349 25.2244 91.986C23.7027 93.8002 22.602 95.0448 21.9221 95.7198C21.3876 96.2518 18.6541 96.0458 17.872 96.0336Z" fill="#D81517"/>
  <path d="M48.1665 86.5313C48.1662 86.481 48.1758 86.4312 48.1947 86.3847C48.2136 86.3382 48.2415 86.2958 48.2768 86.2601C48.3121 86.2244 48.3541 86.1959 48.4003 86.1764C48.4466 86.1569 48.4963 86.1467 48.5465 86.1464L62.555 86.0728C63.8512 86.0661 65.097 86.5555 66.0183 87.4337C66.9396 88.3118 67.4611 89.5066 67.468 90.7554L67.4827 93.6434C67.4861 94.262 67.363 94.8752 67.1204 95.448C66.8778 96.0209 66.5205 96.5421 66.0688 96.982C65.6171 97.4218 65.08 97.7717 64.488 98.0115C63.896 98.2514 63.2608 98.3765 62.6187 98.3799L48.6103 98.4534C48.56 98.4538 48.5102 98.4442 48.4637 98.4253C48.4172 98.4063 48.3748 98.3784 48.3391 98.3431C48.3034 98.3078 48.2749 98.2659 48.2554 98.2196C48.2359 98.1733 48.2257 98.1236 48.2253 98.0734L48.1665 86.5313ZM64.5065 90.3239C64.3496 89.1545 63.6484 88.7598 62.4839 88.7598C58.6528 88.7565 54.8161 88.7524 50.9736 88.7475C50.8788 88.7459 50.8314 88.7925 50.8314 88.8873L50.8265 95.6145C50.8265 95.6929 50.8657 95.7321 50.9442 95.7321C54.6543 95.7272 58.3627 95.724 62.0696 95.7223C63.2758 95.7223 64.3348 95.4992 64.5604 94.2195C64.7385 93.1996 64.7206 91.9011 64.5065 90.3239Z" fill="#D81517"/>
  <path d="M111.636 86.5239L122.276 86.5264C122.368 86.5263 122.458 86.5445 122.543 86.5799C122.628 86.6152 122.704 86.667 122.769 86.7323L125.243 89.2771C125.411 89.4489 125.508 89.6784 125.515 89.9194C125.564 91.7434 125.566 93.6058 125.522 95.5066C125.507 96.2494 123.556 97.9754 122.987 98.5343C122.704 98.8106 122.409 98.9503 122.102 98.9536C118.812 98.9797 115.523 98.9928 112.234 98.9928C110.996 98.9928 110.229 97.9313 109.256 96.8893C108.706 96.3009 108.373 96.0705 108.371 95.1953C108.371 93.4562 108.371 91.7205 108.371 89.988C108.371 89.702 108.503 89.4242 108.768 89.1545C109.533 88.3765 110.313 87.5748 111.109 86.7495C111.177 86.6782 111.259 86.6214 111.35 86.5827C111.44 86.5439 111.538 86.5239 111.636 86.5239ZM122.899 91.1569C122.898 90.8967 122.846 90.6392 122.746 90.3991C122.646 90.1589 122.5 89.9408 122.316 89.7572C122.132 89.5736 121.913 89.428 121.672 89.3289C121.432 89.2298 121.174 89.179 120.914 89.1794L112.971 89.1933C112.711 89.1938 112.453 89.2454 112.213 89.3454C111.973 89.4454 111.755 89.5917 111.571 89.7759C111.388 89.9602 111.242 90.1788 111.143 90.4193C111.044 90.6598 110.993 90.9175 110.994 91.1777L110.999 94.3549C111 94.6151 111.051 94.8726 111.151 95.1127C111.251 95.3529 111.397 95.571 111.582 95.7546C111.766 95.9383 111.985 96.0838 112.225 96.1829C112.466 96.282 112.723 96.3328 112.983 96.3324L120.927 96.3185C121.187 96.3181 121.444 96.2664 121.684 96.1664C121.925 96.0664 122.143 95.9201 122.326 95.7359C122.51 95.5516 122.655 95.333 122.755 95.0925C122.854 94.852 122.904 94.5943 122.904 94.3342L122.899 91.1569Z" fill="white"/>
  <path d="M137.319 89.6424L137.314 98.6839C137.314 98.7608 137.284 98.8347 137.23 98.8893C137.176 98.944 137.102 98.975 137.025 98.9756L134.801 99.0002C134.763 99.0005 134.725 98.9932 134.689 98.9787C134.653 98.9641 134.621 98.9427 134.594 98.9156C134.566 98.8885 134.545 98.8562 134.53 98.8206C134.515 98.7851 134.507 98.7469 134.507 98.7084L134.515 89.6424C134.515 89.565 134.484 89.4908 134.429 89.4361C134.374 89.3814 134.3 89.3506 134.223 89.3506L127.378 89.3555C127.301 89.3555 127.227 89.3251 127.173 89.271C127.118 89.2168 127.087 89.1432 127.086 89.0663L127.069 86.8181C127.069 86.7796 127.076 86.7414 127.091 86.7057C127.105 86.67 127.127 86.6376 127.154 86.6102C127.181 86.5829 127.213 86.5612 127.249 86.5464C127.284 86.5316 127.322 86.5239 127.361 86.5239L144.38 86.5215C144.457 86.5215 144.531 86.5522 144.586 86.6069C144.641 86.6617 144.672 86.7359 144.672 86.8132V89.0712C144.672 89.1485 144.641 89.2227 144.586 89.2774C144.531 89.3322 144.457 89.3629 144.38 89.3629L137.611 89.3506C137.534 89.3506 137.459 89.3814 137.405 89.4361C137.35 89.4908 137.319 89.565 137.319 89.6424Z" fill="white"/>
  <path d="M163.475 95.3203C163.478 96.1882 161.857 97.6199 161.239 98.1838C160.872 98.5196 160.612 99.0002 159.979 98.9977C156.67 98.9912 153.36 98.9904 150.05 98.9953C149.141 98.9953 149.06 98.7403 148.341 98.0538C147.655 97.3968 147.004 96.7063 146.388 95.9822C146.334 95.9173 146.304 95.8358 146.304 95.7518V89.8557C146.304 89.6578 146.382 89.4677 146.52 89.3261L149.06 86.7348C149.125 86.6673 149.203 86.6137 149.289 86.577C149.376 86.5404 149.469 86.5215 149.562 86.5215H160.094C160.301 86.5215 160.5 86.6004 160.651 86.7421C161.355 87.3943 163.421 89.1521 163.434 90.1719C163.456 91.8881 163.47 93.6042 163.475 95.3203ZM160.839 91.1569C160.839 90.8967 160.787 90.6392 160.687 90.3991C160.587 90.1589 160.441 89.9408 160.257 89.7572C160.073 89.5735 159.854 89.428 159.613 89.3289C159.373 89.2298 159.115 89.179 158.855 89.1794L150.878 89.1934C150.617 89.1938 150.36 89.2455 150.12 89.3455C149.88 89.4454 149.662 89.5917 149.478 89.776C149.294 89.9602 149.149 90.1789 149.05 90.4194C148.95 90.6599 148.9 90.9176 148.9 91.1777L148.906 94.3501C148.906 94.6102 148.958 94.8677 149.058 95.1079C149.158 95.348 149.304 95.5661 149.488 95.7498C149.673 95.9334 149.891 96.0789 150.132 96.178C150.372 96.2772 150.63 96.328 150.89 96.3275L158.868 96.3136C159.128 96.3131 159.385 96.2615 159.625 96.1615C159.866 96.0615 160.084 95.9152 160.267 95.731C160.451 95.5467 160.596 95.3281 160.696 95.0876C160.795 94.8471 160.845 94.5894 160.845 94.3292L160.839 91.1569Z" fill="white"/>
  <path d="M178.107 96.3132C179.254 96.3108 179.779 94.9452 178.825 94.3274C178.603 94.1852 178.24 94.1141 177.736 94.1141C174.494 94.1125 171.251 94.1027 168.008 94.0847C167.17 94.0798 166.118 92.8368 165.584 92.2387C165.26 91.8742 165.069 91.4893 165.01 91.0839C164.861 90.0763 164.929 89.2673 165.704 88.5098C166.279 87.9492 166.846 87.3894 167.405 86.8304C167.506 86.7303 167.625 86.651 167.756 86.5971C167.887 86.5432 168.028 86.5159 168.17 86.5166L181.223 86.5289C181.345 86.5289 181.407 86.5902 181.409 86.7127L181.433 88.9682C181.434 88.9964 181.428 89.0244 181.418 89.0506C181.407 89.0768 181.392 89.1006 181.372 89.1206C181.352 89.1407 181.328 89.1566 181.302 89.1675C181.276 89.1784 181.248 89.184 181.22 89.1839C177.302 89.1905 173.38 89.1938 169.452 89.1938C168.491 89.1938 167.224 90.1254 168.148 91.1452C168.545 91.5841 168.984 91.513 169.543 91.513C172.964 91.5244 176.382 91.5244 179.798 91.513C179.852 91.5129 179.904 91.534 179.943 91.5718L182.11 93.6336C182.126 93.6491 182.139 93.6678 182.148 93.6884C182.157 93.7091 182.162 93.7313 182.162 93.7537C182.163 94.5448 182.166 95.3105 182.171 96.0509C182.173 96.3336 182.083 96.5715 181.902 96.7643C181.184 97.5292 180.423 98.2467 179.619 98.9168C179.559 98.9659 179.484 98.9927 179.406 98.9928H165.858C165.761 98.9928 165.667 98.9542 165.597 98.8853C165.528 98.8164 165.489 98.7228 165.488 98.6251L165.486 96.6834C165.486 96.5872 165.524 96.4949 165.591 96.4269C165.659 96.3588 165.751 96.3206 165.846 96.3206C170.001 96.3222 174.088 96.3198 178.107 96.3132Z" fill="white"/>
</svg>